<?xml version="1.0" standalone="no"?>
<!DOCTYPE svg PUBLIC "-//W3C//DTD SVG 1.1//EN" "http://www.w3.org/Graphics/SVG/1.1/DTD/svg11.dtd" >
<svg xmlns="http://www.w3.org/2000/svg" xmlns:xlink="http://www.w3.org/1999/xlink" version="1.1">
<metadata>
Created by FontForge 20191125 at Tue Dec  6 04:19:44 2011
 By convertio
Copyright (c) 2010 by AndrijType. Osnova is a trademark of AndrijType. All rights reserved.
</metadata>
<defs>
<font id="OsnovaPro-Bold" horiz-adv-x="612" >
  <font-face 
    font-family="Osnova Pro"
    font-weight="700"
    font-stretch="normal"
    units-per-em="1000"
    panose-1="2 1 8 4 4 2 0 2 0 4"
    ascent="750"
    descent="-250"
    x-height="500"
    cap-height="650"
    bbox="-74 -343 1914 952"
    underline-thickness="50"
    underline-position="-100"
    stemh="109"
    stemv="147"
    unicode-range="U+0020-FB06"
  />
<missing-glyph horiz-adv-x="708" 
d="M417 549v-172h174v-115h-174v-173h-122v173h-177v115h177v172h122zM553 217l92 -92l-96 -95l-91 91zM458 520l91 91l96 -95l-92 -92zM158 612l92 -92l-95 -95l-91 91zM64 125l91 91l95 -95l-92 -91z" />
    <glyph glyph-name="arrowleft" unicode="&#x3c;&#x2d;&#x2d;" horiz-adv-x="802" 
d="M388 542l67 -84l-168 -132h459v-103h-459l168 -131l-67 -84l-320 267z" />
    <glyph glyph-name="arrowright" unicode="&#x2d;&#x2d;&#x3e;" horiz-adv-x="793" 
d="M57 223v103h459l-168 132l67 84l320 -267l-320 -267l-67 84l167 131h-458z" />
    <glyph glyph-name="ff" unicode="ff" horiz-adv-x="741" 
d="M736 500v-118h-152v-382h-147v382h-197v-382h-147v382h-57v98l57 19v72c0 113 43 189 178 189c97 0 127 -42 127 -42l-29 -87s-52 14 -74 14c-35 0 -55 -25 -55 -89v-56h197v71c0 113 43 189 178 189c97 0 127 -42 127 -42l-29 -87s-52 14 -74 14c-35 0 -55 -25 -55 -89
v-56h152z" />
    <glyph glyph-name="fi" unicode="fi" horiz-adv-x="663" 
d="M392 500v-118h-152v-382h-147v382h-57v98l57 19v72c0 113 43 189 178 189c97 0 127 -42 127 -42l-29 -87s-52 14 -74 14c-35 0 -55 -25 -55 -89v-56h152zM598 500v-500h-147v500h147zM463 712h130v-121h-130v121z" />
    <glyph glyph-name="fl" unicode="fl" horiz-adv-x="663" 
d="M392 500v-118h-152v-382h-147v382h-57v98l57 19v72c0 113 43 189 178 189c97 0 127 -42 127 -42l-29 -87s-52 14 -74 14c-35 0 -55 -25 -55 -89v-56h152zM599 750v-750h-147v750h147z" />
    <glyph glyph-name="ft" unicode="ft" horiz-adv-x="749" 
d="M716 500v-118h-133v-206c0 -44 16 -73 58 -73c39 0 71 8 71 8v-102s-29 -28 -118 -28c-105 0 -158 48 -158 161v240h-196v-382h-147v382h-57v98l57 19v72c0 113 43 189 178 189c97 0 127 -42 127 -42l-29 -87s-52 14 -74 14c-35 0 -55 -25 -55 -89v-56h196v130l124 37h23
v-167h133z" />
    <glyph glyph-name="tt" unicode="tt" horiz-adv-x="732" 
d="M699 500v-118h-133v-206c0 -44 16 -73 58 -73c39 0 71 8 71 8v-102s-29 -28 -118 -28c-105 0 -158 48 -158 161v240h-183v-206c0 -44 16 -73 58 -73c39 0 71 8 71 8v-102s-29 -28 -118 -28c-105 0 -158 48 -158 161v240h-57v98l57 16v134l124 37h23v-167h183v130l124 37
h23v-167h133z" />
    <glyph glyph-name="afii10056_afii10056" unicode="&#x407;&#x407;" horiz-adv-x="663" 
d="M177 847h126v-121h-126v121zM361 847h126v-121h-126v121zM542 847h126v-121h-126v121zM-4 847h126v-121h-126v121zM243 650v-650h-154v650h154zM575 650v-650h-154v650h154z" />
    <glyph glyph-name="quoteright_afii10104" unicode="&#x27;&#x457;" horiz-adv-x="397" 
d="M106 627h-54v123h141c5 -22 7 -44 7 -65c0 -118 -69 -223 -144 -256l-65 53c46 33 115 78 115 145zM303 712h126v-121h-126v121zM333 500v-500h-147v500h147z" />
    <glyph glyph-name="afii10104_afii10104" unicode="&#x457;&#x457;" horiz-adv-x="572" 
d="M-32 712h126v-121h-126v121zM478 712h126v-121h-126v121zM311 712h125v-121h-125v121zM138 712h125v-121h-125v121zM212 500v-500h-147v500h147zM508 500v-500h-147v500h147z" />
    <glyph glyph-name="afii10103_afii10104" unicode="&#x456;&#x457;" horiz-adv-x="572" 
d="M478 712h126v-121h-126v121zM289 712h126v-121h-126v121zM212 500v-500h-147v500h147zM75 712h130v-121h-130v121zM508 500v-500h-147v500h147z" />
    <glyph glyph-name="fleuron" unicode="&#x2d;&#x2d;&#x2a;" horiz-adv-x="1056" 
d="M836 136c88 0 128 27 128 146h84c0 -162 -74 -240 -219 -240c-33 0 -64 4 -93 11c-52 -26 -58 -80 -144 -130c-36 -21 -72 -30 -108 -30c-74 0 -142 39 -180 96c-20 29 -29 61 -29 92c0 62 37 121 100 158c10 6 22 10 34 13c-77 60 -151 110 -229 110
c-67 0 -88 -27 -88 -81h-84c0 105 58 168 179 168c138 0 241 -82 347 -162l6 7c-32 40 -48 82 -48 121c0 50 27 93 80 115c28 12 58 18 87 18c63 0 120 -28 148 -82c19 -36 25 -74 25 -111c0 -72 -24 -138 -24 -179c0 -22 7 -37 28 -40zM635 216c35 -22 61 -41 88 -55
c-1 10 -1 21 -1 32c0 46 7 98 7 141c0 29 -3 53 -14 71c-17 27 -45 43 -74 43c-15 0 -30 -4 -44 -12c-27 -14 -37 -39 -37 -67c0 -51 34 -114 75 -153zM586 120c-36 22 -71 48 -105 75c-15 -2 -27 -4 -34 -8c-38 -22 -56 -55 -56 -89c0 -18 5 -35 14 -52
c21 -34 57 -52 94 -52c20 0 40 5 59 16c38 21 53 53 84 78c-19 10 -37 20 -56 32z" />
    <glyph glyph-name="curve.01" unicode="&#x28;&#x2d;&#x2d;" horiz-adv-x="1147" 
d="M18 223v103c326 0 445 -311 746 -311c242 0 291 131 291 266h84c0 -170 -79 -368 -381 -368c-342 0 -471 310 -740 310z" />
    <glyph glyph-name="fleuron.01" unicode="&#x2a;&#x2d;&#x2d;" horiz-adv-x="1056" 
d="M220 425c-88 0 -128 -27 -128 -146h-84c0 162 74 240 219 240c33 0 63 -4 92 -11c51 26 58 80 145 129c36 21 73 30 109 30c73 0 141 -39 179 -95c20 -29 29 -61 29 -92c0 -62 -37 -122 -100 -159c-11 -6 -22 -10 -34 -13c77 -60 151 -109 229 -109c67 0 88 26 88 81h84
c0 -105 -58 -168 -179 -168c-139 0 -242 81 -347 161l-6 -7c32 -39 48 -81 48 -120c0 -50 -27 -93 -81 -116c-28 -12 -58 -17 -86 -17c-63 0 -120 28 -148 82c-19 36 -25 73 -25 110c0 71 24 139 24 180c0 22 -7 37 -28 40zM421 345c-35 22 -62 41 -89 54c1 -10 1 -21 1 -32
c0 -45 -6 -95 -6 -138c0 -30 3 -55 14 -73c17 -28 45 -43 75 -43c14 0 29 4 43 11c26 14 37 39 37 67c0 51 -35 114 -75 154zM470 441c36 -23 70 -49 104 -75c15 1 27 4 35 8c38 22 56 55 56 88c0 18 -5 35 -15 52c-20 35 -56 53 -93 53c-20 0 -41 -5 -60 -16
c-38 -22 -53 -53 -84 -79c19 -9 38 -20 57 -31z" />
    <glyph glyph-name="doubleline" unicode="&#x2d;&#x2d;&#x2d;" horiz-adv-x="1297" 
d="M92 281h-84c0 107 64 180 191 180c38 0 78 -10 118 -26c19 59 72 118 160 118c166 0 458 -351 627 -351c67 0 101 37 101 79h83c0 -108 -63 -180 -191 -180c-38 0 -78 10 -118 26c-19 -60 -71 -118 -159 -118c-167 0 -458 351 -628 351c-66 0 -100 -37 -100 -79zM471 437
c-39 0 -65 -19 -75 -41c171 -97 339 -271 430 -271c38 0 64 18 74 40c-171 97 -339 272 -429 272z" />
    <glyph glyph-name="doubleline.01" unicode="&#x3d;&#x3d;&#x3d;" horiz-adv-x="1297" 
d="M92 281h-84c0 170 64 353 366 353c414 0 561 -424 730 -424c65 0 99 42 101 69v2h83v-6c-2 -168 -66 -347 -366 -347c-414 0 -560 424 -730 424c-66 0 -100 -44 -100 -71zM367 532c-133 0 -203 -36 -239 -90c21 7 44 12 71 12c226 0 372 -424 730 -424
c134 0 204 35 240 90c-21 -8 -45 -12 -72 -12c-226 0 -371 424 -730 424z" />
    <glyph glyph-name="line" unicode="&#x2b;&#x2b;&#x2b;" horiz-adv-x="1297" 
d="M92 281h-84c0 70 64 173 191 173c226 0 372 -424 730 -424c242 0 276 116 276 251h83c0 -170 -63 -353 -366 -353c-414 0 -560 424 -730 424c-66 0 -100 -44 -100 -71z" />
    <glyph glyph-name="curve" unicode="&#x2d;&#x2d;&#x29;" horiz-adv-x="1147" 
d="M1129 326v-103c-326 0 -446 324 -747 324c-241 0 -290 -132 -290 -266h-84c0 170 79 368 381 368c342 0 471 -323 740 -323z" />
    <glyph glyph-name=".notdef" horiz-adv-x="708" 
d="M417 549v-172h174v-115h-174v-173h-122v173h-177v115h177v172h122zM553 217l92 -92l-96 -95l-91 91zM458 520l91 91l96 -95l-92 -92zM158 612l92 -92l-95 -95l-91 91zM64 125l91 91l95 -95l-92 -91z" />
    <glyph glyph-name="space" unicode=" " horiz-adv-x="297" 
 />
    <glyph glyph-name="exclam" unicode="!" horiz-adv-x="375" 
d="M268 750v-264l-30 -256h-94l-30 256v264h154zM125 129h135v-129h-135v129z" />
    <glyph glyph-name="quotedbl" unicode="&#x22;" horiz-adv-x="445" 
d="M168 746l-27 -249h-109v249h136zM385 746l-27 -249h-109v249h136z" />
    <glyph glyph-name="numbersign" unicode="#" horiz-adv-x="595" 
d="M486 563l-24 -100h83v-97h-107l-20 -83h127v-97h-150l-33 -136l-89 25l27 111h-77l-30 -125l-88 25l24 100h-79v97h103l20 83h-123v97h147l33 135l89 -24l-27 -111h75l31 124zM268 366l-21 -83h76l21 83h-76z" />
    <glyph glyph-name="dollar" unicode="$" horiz-adv-x="505" 
d="M20 170l80 62s61 -80 152 -80c50 0 81 23 81 51c0 84 -273 50 -273 226c0 80 54 133 139 150l2 121h113l7 -118c86 -13 127 -51 127 -51l-31 -87s-118 43 -148 43c-40 0 -70 -15 -70 -44c0 -81 276 -56 276 -227c0 -79 -50 -142 -153 -161v-105h-114l-7 102
c-151 19 -181 118 -181 118z" />
    <glyph glyph-name="percent" unicode="%" horiz-adv-x="1001" 
d="M710 615l-319 -627l-115 20l319 627zM445 466c0 -120 -72 -204 -203 -204c-136 0 -203 84 -203 204c0 119 74 201 203 201c124 0 203 -82 203 -201zM325 466c0 53 -25 94 -83 94c-59 0 -82 -41 -82 -94c0 -52 23 -95 82 -95c58 0 83 43 83 95zM962 185
c0 -120 -72 -204 -203 -204c-136 0 -203 84 -203 204c0 119 74 201 203 201c124 0 203 -82 203 -201zM842 185c0 53 -25 94 -83 94c-59 0 -82 -41 -82 -94c0 -52 23 -95 82 -95c58 0 83 43 83 95z" />
    <glyph glyph-name="ampersand" unicode="&#x26;" horiz-adv-x="740" 
d="M707 383v-108h-133v-108c0 -44 18 -68 60 -68c36 0 69 7 69 7v-106s-23 -19 -108 -19c-63 0 -108 18 -134 59c-29 -30 -78 -59 -163 -59c-188 0 -259 89 -259 199c0 80 56 129 119 156c-48 29 -89 75 -89 143c0 110 73 188 216 188c161 0 199 -67 199 -67l-54 -90
s-67 40 -107 40c-78 0 -111 -37 -111 -87c0 -57 40 -79 80 -80h144l51 117h87v-117h133zM434 154v121h-150c-50 -3 -95 -32 -95 -86c0 -50 39 -90 123 -90c87 0 115 41 122 55z" />
    <glyph glyph-name="quotesingle" unicode="'" horiz-adv-x="227" 
d="M168 746l-27 -249h-109v249h136z" />
    <glyph glyph-name="parenleft" unicode="(" horiz-adv-x="406" 
d="M251 744l114 -47s-123 -155 -123 -425s123 -421 123 -421l-114 -47s-156 137 -156 468s156 472 156 472z" />
    <glyph glyph-name="parenright" unicode=")" horiz-adv-x="406" 
d="M154 -196l-113 47s122 156 122 426s-122 420 -122 420l113 47s156 -136 156 -467s-156 -473 -156 -473z" />
    <glyph glyph-name="asterisk" unicode="*" horiz-adv-x="471" 
d="M51 631l144 -79l-28 163h137l-31 -161l147 77l42 -129l-163 -22l119 -116l-111 -80l-70 148l-74 -148l-110 80l119 113l-164 25z" />
    <glyph glyph-name="plus" unicode="+" horiz-adv-x="521" 
d="M322 496v-164h167v-115h-167v-164h-121v164h-169v115h169v164h121z" />
    <glyph glyph-name="comma" unicode="," horiz-adv-x="298" 
d="M129 26h-55v123h142c6 -28 9 -55 9 -82c0 -110 -48 -207 -119 -238l-65 53c46 32 88 77 88 144z" />
    <glyph glyph-name="hyphen" unicode="-" horiz-adv-x="378" 
d="M345 332v-115h-313v115h313z" />
    <glyph glyph-name="period" unicode="." horiz-adv-x="333" 
d="M98 129h135v-129h-135v129z" />
    <glyph glyph-name="slash" unicode="/" horiz-adv-x="523" 
d="M417 750h140l-432 -1000h-141z" />
    <glyph glyph-name="zero" unicode="0" horiz-adv-x="670" 
d="M335 667c204 0 286 -137 286 -344s-82 -342 -286 -342s-286 135 -286 342s82 344 286 344zM335 551c-95 0 -128 -72 -128 -228s33 -225 128 -225s128 69 128 225s-33 228 -128 228z" />
    <glyph glyph-name="one" unicode="1" horiz-adv-x="455" 
d="M359 650v-650h-146v460c-42 -28 -94 -47 -153 -52l-15 108c78 11 165 73 168 131v3h146z" />
    <glyph glyph-name="two" unicode="2" horiz-adv-x="559" 
d="M520 125v-125h-491v109s318 206 318 341c0 64 -38 93 -114 93c-74 0 -116 -65 -116 -65l-94 74s42 115 226 115c175 0 260 -96 260 -211c0 -144 -159 -262 -281 -331h292z" />
    <glyph glyph-name="three" unicode="3" horiz-adv-x="568" 
d="M494 650v-84l-169 -173c111 -10 204 -78 204 -194c0 -148 -123 -218 -276 -218c-199 0 -241 133 -241 133l73 71s55 -83 163 -83c92 0 131 37 131 100c0 54 -40 90 -119 90c-25 0 -41 -9 -44 -11l-69 73l157 174h-237v122h427z" />
    <glyph glyph-name="four" unicode="4" horiz-adv-x="605" 
d="M190 660l138 -10c-23 -147 -81 -292 -153 -396h186v96l19 202h128v-298h76v-92l-76 -21v-141h-147v140h-322l-8 84c52 90 137 291 159 436z" />
    <glyph glyph-name="five" unicode="5" horiz-adv-x="563" 
d="M481 650v-122h-238l-15 -125c12 2 24 3 38 3c154 0 258 -67 258 -201c0 -155 -116 -224 -268 -224c-200 0 -241 126 -241 126l72 78s63 -83 164 -83c84 0 123 43 123 106c0 54 -43 97 -122 97c-51 0 -77 -14 -85 -23l-1 -1l-76 10l38 359h353z" />
    <glyph glyph-name="six" unicode="6" 
d="M501 609l-50 -94s-91 36 -117 36c-85 0 -139 -59 -146 -182c29 31 73 60 143 60c139 0 242 -67 242 -217c0 -141 -96 -231 -258 -231c-163 0 -266 90 -266 285c0 28 3 81 5 95c30 217 126 306 272 306c130 0 175 -58 175 -58zM313 327c-62 0 -96 -30 -108 -50
c-4 -14 -6 -33 -6 -55c0 -86 36 -132 116 -132c78 0 107 59 107 124c0 60 -32 113 -109 113z" />
    <glyph glyph-name="seven" unicode="7" horiz-adv-x="518" 
d="M504 650v-106c-94 -145 -185 -354 -227 -544h-169c48 199 135 368 254 521h-348v129h490z" />
    <glyph glyph-name="eight" unicode="8" horiz-adv-x="618" 
d="M563 482c0 -76 -52 -122 -111 -150c62 -21 126 -67 126 -161c0 -136 -105 -190 -270 -190c-164 0 -269 55 -269 191c0 78 58 127 121 157c-54 24 -106 69 -106 154c0 116 105 184 254 184c150 0 255 -69 255 -185zM425 179c0 74 -73 94 -122 99c-41 -6 -111 -27 -111 -99
c0 -62 47 -98 116 -98c70 0 117 36 117 98zM200 475c0 -71 65 -93 111 -100c39 6 106 26 106 100c0 58 -42 92 -109 92s-108 -35 -108 -92z" />
    <glyph glyph-name="nine" unicode="9" 
d="M75 60l74 93s45 -55 129 -55c81 0 134 54 145 159c-26 -20 -70 -42 -142 -42c-139 0 -242 61 -242 212c0 141 102 240 264 240c163 0 260 -90 260 -284c0 -28 -2 -86 -4 -100c-19 -213 -128 -302 -281 -302c-150 0 -203 79 -203 79zM299 316c58 0 91 24 105 39
c5 17 8 47 8 72c0 86 -29 131 -109 131c-78 0 -114 -61 -114 -126c0 -60 33 -116 110 -116z" />
    <glyph glyph-name="colon" unicode=":" horiz-adv-x="334" 
d="M98 480h135v-129h-135v129zM98 129h135v-129h-135v129z" />
    <glyph glyph-name="semicolon" unicode=";" horiz-adv-x="333" 
d="M149 26h-55v123h142c6 -28 9 -55 9 -82c0 -110 -48 -207 -119 -238l-65 53c46 32 88 77 88 144zM98 480h135v-129h-135v129z" />
    <glyph glyph-name="less" unicode="&#x3c;" horiz-adv-x="434" 
d="M402 160l-68 -70l-281 225l281 226l68 -71l-204 -155z" />
    <glyph glyph-name="equal" unicode="=" horiz-adv-x="600" 
d="M568 222v-115h-536v115h536zM568 442v-115h-536v115h536z" />
    <glyph glyph-name="greater" unicode="&#x3e;" horiz-adv-x="434" 
d="M32 470l68 71l281 -226l-281 -225l-68 70l204 155z" />
    <glyph glyph-name="question" unicode="?" horiz-adv-x="510" 
d="M99 572l-94 59s37 129 247 129c166 0 233 -93 233 -178c0 -211 -234 -147 -242 -352h-86c-7 31 -10 56 -10 79c0 170 178 138 178 254c0 41 -29 75 -109 75c-90 0 -117 -66 -117 -66zM131 129h135v-129h-135v129z" />
    <glyph glyph-name="at" unicode="@" horiz-adv-x="1001" 
d="M730 -18c-68 0 -113 18 -130 63c-14 -26 -45 -64 -113 -64c-114 0 -195 66 -195 211c0 128 87 217 211 217c54 0 89 -19 112 -41l17 23h63v-280c0 -29 13 -41 41 -41c54 0 102 41 102 208c0 166 -94 256 -296 256c-216 0 -360 -105 -360 -350c0 -215 127 -320 338 -320
c159 0 256 76 256 76l42 -81s-87 -108 -298 -108c-328 0 -469 163 -469 433c0 274 167 456 491 456c273 0 413 -137 413 -355c0 -220 -93 -303 -225 -303zM512 70c57 0 75 46 80 60v154c-8 13 -28 38 -78 38c-74 0 -103 -57 -103 -130c0 -76 31 -122 101 -122z" />
    <glyph glyph-name="A" unicode="A" horiz-adv-x="717" 
d="M256 650h206l237 -650h-157l-50 133h-271l-47 -133h-155zM358 541h-1l-101 -306h201z" />
    <glyph glyph-name="B" unicode="B" horiz-adv-x="639" 
d="M89 0v650h237c178 0 240 -88 240 -177c0 -61 -37 -103 -80 -130c73 -26 114 -78 114 -148c0 -114 -77 -195 -267 -195h-244zM354 287h-129v-171h99c89 0 128 33 128 88c0 53 -35 83 -98 83zM225 376h121c35 0 78 21 78 80c0 53 -38 80 -105 80h-94v-160z" />
    <glyph glyph-name="C" unicode="C" horiz-adv-x="672" 
d="M632 565l-58 -98s-127 72 -178 72c-139 0 -200 -87 -200 -217c0 -128 72 -212 195 -212c132 0 214 93 214 93l61 -79s-71 -143 -282 -143c-232 0 -345 138 -345 341s121 345 347 345c183 0 246 -102 246 -102z" />
    <glyph glyph-name="D" unicode="D" horiz-adv-x="750" 
d="M353 650c233 0 359 -112 359 -327c0 -210 -119 -323 -358 -323h-265v650h264zM353 521h-110v-393h113c137 0 198 62 198 195c0 135 -62 198 -201 198z" />
    <glyph glyph-name="E" unicode="E" horiz-adv-x="605" 
d="M559 122v-122h-470v650h453v-122h-299v-142h265v-117h-265v-147h316z" />
    <glyph glyph-name="F" unicode="F" horiz-adv-x="562" 
d="M507 359v-118h-264v-241h-154v650h459v-122h-305v-169h264z" />
    <glyph glyph-name="G" unicode="G" horiz-adv-x="725" 
d="M388 110c104 0 131 59 138 83v63h-123v118h254v-374h-108l-18 57c-37 -42 -93 -76 -176 -76c-207 0 -316 132 -316 342c0 206 130 344 354 344c164 0 241 -78 241 -78l-44 -102s-149 52 -184 52c-153 0 -210 -86 -210 -217c0 -140 80 -212 192 -212z" />
    <glyph glyph-name="H" unicode="H" horiz-adv-x="760" 
d="M671 650v-650h-154v267h-274v-267h-154v650h154v-266h274v266h154z" />
    <glyph glyph-name="I" unicode="I" horiz-adv-x="332" 
d="M243 650v-650h-154v650h154z" />
    <glyph glyph-name="J" unicode="J" horiz-adv-x="469" 
d="M80 144c0 0 30 -42 82 -42c43 0 74 25 74 105v443h154v-443c0 -171 -71 -226 -212 -226c-131 0 -177 102 -177 102z" />
    <glyph glyph-name="K" unicode="K" horiz-adv-x="706" 
d="M89 0v650h154v-288l57 38l208 250h172l-260 -309l283 -341h-180l-216 256l-64 -36v-220h-154z" />
    <glyph glyph-name="L" unicode="L" horiz-adv-x="554" 
d="M544 122v-122h-455v650h154v-528h301z" />
    <glyph glyph-name="M" unicode="M" horiz-adv-x="1010" 
d="M921 650v-650h-148v445h-4l-190 -445h-149l-190 445h-3v-445h-148v650h200l213 -505h5l213 505h201z" />
    <glyph glyph-name="N" unicode="N" horiz-adv-x="780" 
d="M691 650v-650h-163l-308 451h-3l5 -58v-393h-133v650h161l309 -456h2l-3 45v411h133z" />
    <glyph glyph-name="O" unicode="O" horiz-adv-x="769" 
d="M730 324c0 -204 -124 -343 -347 -343s-344 139 -344 343s121 343 344 343s347 -139 347 -343zM573 324c0 126 -68 215 -190 215s-187 -89 -187 -215s63 -214 187 -214c125 0 190 88 190 214z" />
    <glyph glyph-name="P" unicode="P" horiz-adv-x="602" 
d="M89 0v650h225c167 0 265 -71 265 -220c0 -166 -139 -230 -261 -230h-86v-200h-143zM287 534h-55v-222h55c74 0 134 25 134 112c0 81 -57 110 -134 110z" />
    <glyph glyph-name="Q" unicode="Q" horiz-adv-x="769" 
d="M383 -19c-223 0 -344 139 -344 343s121 343 344 343s347 -132 347 -336c0 -122 -50 -223 -135 -285l133 -111l-115 -69l-140 126c-29 -7 -58 -11 -90 -11zM573 324c0 126 -68 215 -190 215s-187 -89 -187 -215s63 -214 187 -214c125 0 190 88 190 214z" />
    <glyph glyph-name="R" unicode="R" horiz-adv-x="651" 
d="M315 650c168 0 264 -78 264 -220c0 -99 -52 -160 -120 -193l162 -237h-177l-137 208h-75v-208h-143v650h226zM288 534h-56v-222h61c89 0 129 33 129 112c0 74 -43 110 -134 110z" />
    <glyph glyph-name="S" unicode="S" horiz-adv-x="591" 
d="M524 593l-48 -102s-115 61 -157 61c-67 0 -101 -28 -101 -76c0 -116 334 -78 334 -284c0 -134 -94 -211 -256 -211c-189 0 -257 105 -257 105l76 100s76 -80 189 -80c67 0 97 29 97 73c0 108 -334 64 -334 287c0 117 96 201 245 201c155 0 212 -74 212 -74z" />
    <glyph glyph-name="T" unicode="T" horiz-adv-x="535" 
d="M524 650v-122h-179v-528h-155v528h-179v122h513z" />
    <glyph glyph-name="U" unicode="U" horiz-adv-x="746" 
d="M373 -19c-216 0 -294 115 -294 255v414h154v-383c0 -88 37 -148 140 -148c104 0 141 60 141 148v383h154v-414c0 -140 -79 -255 -295 -255z" />
    <glyph glyph-name="V" unicode="V" horiz-adv-x="695" 
d="M448 0h-201l-240 650h165l175 -509h2l174 509h164z" />
    <glyph glyph-name="W" unicode="W" horiz-adv-x="1029" 
d="M862 650h159l-198 -650h-166l-141 474h-2l-144 -474h-166l-197 650h159l127 -490h1l138 490h166l140 -487h2z" />
    <glyph glyph-name="X" unicode="X" horiz-adv-x="708" 
d="M6 0l254 325l-249 325h176l167 -226l167 226h176l-249 -325l254 -325h-183l-165 223l-164 -223h-184z" />
    <glyph glyph-name="Y" unicode="Y" horiz-adv-x="644" 
d="M319 364h1l163 286h172l-256 -414v-236h-155v236l-255 414h172z" />
    <glyph glyph-name="Z" unicode="Z" horiz-adv-x="645" 
d="M599 650v-93l-355 -435h355v-122h-554v92l356 436h-356v122h554z" />
    <glyph glyph-name="bracketleft" unicode="[" horiz-adv-x="438" 
d="M432 19v-108h-337v800h337v-108h-207v-584h207z" />
    <glyph glyph-name="backslash" unicode="\" horiz-adv-x="523" 
d="M-34 750h141l432 -1000h-140z" />
    <glyph glyph-name="bracketright" unicode="]" horiz-adv-x="438" 
d="M342 710v-799h-337v108h207v584h-207v107h337z" />
    <glyph glyph-name="asciicircum" unicode="^" horiz-adv-x="409" 
d="M203 698l174 -167l-60 -60l-113 115l-113 -115l-59 60z" />
    <glyph glyph-name="underscore" unicode="_" horiz-adv-x="783" 
d="M749 -68v-115h-717v115h717z" />
    <glyph glyph-name="grave" unicode="`" horiz-adv-x="271" 
d="M-56 711l139 15l99 -147l-105 -8z" />
    <glyph glyph-name="a" unicode="a" horiz-adv-x="560" 
d="M379 0l-21 62c-10 -24 -42 -81 -145 -81c-115 0 -184 59 -184 145c0 141 205 184 326 192v2c0 64 -36 86 -97 86c-76 0 -110 -48 -110 -48l-83 68s45 92 208 92c146 0 228 -56 228 -195v-323h-122zM257 86c84 0 98 66 98 66v79c-104 -9 -182 -29 -182 -82
c0 -42 31 -63 84 -63z" />
    <glyph glyph-name="b" unicode="b" horiz-adv-x="623" 
d="M65 0v750h147v-310h5s38 78 142 78c140 0 234 -106 234 -258c0 -163 -88 -279 -234 -279c-87 0 -137 49 -153 68l-24 -49h-117zM315 403c-85 0 -103 -71 -103 -71v-181s17 -56 97 -56c95 0 133 61 133 162c0 100 -39 146 -127 146z" />
    <glyph glyph-name="c" unicode="c" horiz-adv-x="515" 
d="M431 152l76 -54s-39 -117 -212 -117c-177 0 -264 97 -264 266c0 162 91 271 268 271c134 0 190 -69 190 -69l-45 -91s-90 49 -125 49c-92 0 -136 -47 -136 -158c0 -114 51 -158 126 -158c71 0 122 61 122 61z" />
    <glyph glyph-name="d" unicode="d" horiz-adv-x="623" 
d="M559 750v-750h-130l-15 56c-11 -22 -48 -75 -149 -75c-140 0 -234 106 -234 258c0 163 88 279 234 279c107 0 143 -61 143 -61h4v293h147zM309 96c80 0 101 64 103 70v183c-1 3 -19 55 -97 55c-95 0 -133 -61 -133 -161c0 -101 39 -147 127 -147z" />
    <glyph glyph-name="e" unicode="e" horiz-adv-x="547" 
d="M434 144l83 -52s-53 -111 -220 -111c-160 0 -266 81 -266 260c0 177 103 277 258 277c149 0 229 -93 229 -238c0 -53 -13 -80 -13 -80h-337c2 -70 50 -110 137 -110c84 0 129 54 129 54zM289 413c-79 0 -117 -48 -121 -118h231v7c0 63 -34 111 -110 111z" />
    <glyph glyph-name="f" unicode="f" horiz-adv-x="397" 
d="M392 500v-118h-152v-382h-147v382h-57v98l57 19v72c0 113 43 189 178 189c97 0 127 -42 127 -42l-29 -87s-52 14 -74 14c-35 0 -55 -25 -55 -89v-56h152z" />
    <glyph glyph-name="g" unicode="g" horiz-adv-x="540" 
d="M279 518c9 0 19 -1 28 -1l40 115l112 -15l-63 -119c67 -27 106 -83 106 -169c0 -124 -85 -179 -226 -179h-22c-4 -3 -11 -10 -11 -29c0 -26 21 -33 30 -34h3c187 0 269 -64 269 -172s-70 -184 -263 -184c-195 0 -269 75 -269 184c0 75 44 127 123 153
c-7 13 -12 29 -12 47c0 23 10 41 25 55c-68 26 -109 78 -109 159c0 131 104 189 239 189zM276 -8h-1c-88 0 -126 -23 -126 -77s37 -83 133 -83c94 0 127 32 127 84c0 54 -37 76 -133 76zM366 332c0 70 -37 93 -93 93s-97 -23 -97 -96c0 -66 38 -92 97 -92s93 28 93 95z" />
    <glyph glyph-name="h" unicode="h" horiz-adv-x="611" 
d="M65 0v750h147v-301h4c1 0 39 69 148 69c120 0 189 -61 189 -179v-339h-148v312c0 46 -26 77 -91 77c-74 0 -102 -43 -102 -43v-346h-147z" />
    <glyph glyph-name="i" unicode="i" horiz-adv-x="277" 
d="M212 500v-500h-147v500h147zM73 712h130v-121h-130v121z" />
    <glyph glyph-name="j" unicode="j" horiz-adv-x="286" 
d="M75 -36v536h146v-536c0 -171 -96 -233 -189 -233c-76 0 -104 27 -104 27l40 120s20 -11 47 -11c34 0 60 32 60 97zM83 712h130v-121h-130v121z" />
    <glyph glyph-name="k" unicode="k" horiz-adv-x="557" 
d="M65 0v750h147v-439l38 31l121 158h169l-179 -220l194 -280h-176l-142 210l-25 -10v-200h-147z" />
    <glyph glyph-name="l" unicode="l" horiz-adv-x="277" 
d="M212 750v-750h-147v750h147z" />
    <glyph glyph-name="m" unicode="m" horiz-adv-x="863" 
d="M65 0v500h130l15 -52c10 18 47 70 132 70c70 0 118 -25 143 -70c12 17 54 70 154 70c110 0 165 -55 165 -169v-349h-147v326c0 48 -22 67 -69 67c-49 0 -73 -27 -80 -36v-357h-147v326c0 48 -23 67 -68 67c-51 0 -76 -30 -81 -37v-356h-147z" />
    <glyph glyph-name="n" unicode="n" 
d="M65 0v500h130l15 -51c11 17 51 69 155 69c120 0 188 -61 188 -179v-339h-147v312c0 46 -26 77 -91 77c-74 0 -103 -43 -103 -43v-346h-147z" />
    <glyph glyph-name="o" unicode="o" horiz-adv-x="605" 
d="M574 250c0 -166 -104 -269 -272 -269c-176 0 -271 103 -271 269s95 268 271 268s272 -102 272 -268zM302 407c-88 0 -120 -62 -120 -156c0 -96 32 -160 120 -160s121 64 121 159c0 94 -33 157 -121 157z" />
    <glyph glyph-name="p" unicode="p" horiz-adv-x="623" 
d="M65 -250v750h130l14 -57c12 21 54 75 157 75c140 0 226 -106 226 -258c0 -163 -88 -279 -234 -279c-107 0 -143 61 -143 61h-4v-292h-146zM314 403c-81 0 -101 -64 -103 -71v-184c4 -9 26 -53 97 -53c95 0 133 53 133 162c0 108 -39 146 -127 146z" />
    <glyph glyph-name="q" unicode="q" horiz-adv-x="624" 
d="M559 500v-750h-147v309h-5s-30 -78 -142 -78c-140 0 -234 106 -234 258c0 163 96 279 242 279c84 0 130 -47 145 -67l24 49h117zM309 96c85 0 103 71 103 71v184c-4 9 -25 53 -96 53c-96 0 -134 -53 -134 -161s39 -147 127 -147z" />
    <glyph glyph-name="r" unicode="r" horiz-adv-x="405" 
d="M400 493l-28 -118s-46 14 -67 14c-65 0 -93 -62 -93 -62v-327h-147v500h116l19 -71c8 24 38 89 118 89c64 0 82 -25 82 -25z" />
    <glyph glyph-name="s" unicode="s" horiz-adv-x="505" 
d="M20 102l80 62s61 -80 152 -80c50 0 81 23 81 51c0 84 -273 50 -273 226c0 100 84 157 208 157c123 0 180 -55 180 -55l-31 -87s-118 43 -148 43c-40 0 -70 -15 -70 -44c0 -81 276 -56 276 -227c0 -95 -71 -167 -221 -167c-197 0 -234 121 -234 121z" />
    <glyph glyph-name="t" unicode="t" horiz-adv-x="402" 
d="M369 500v-118h-133v-206c0 -44 16 -73 58 -73c39 0 71 8 71 8v-102s-29 -28 -118 -28c-105 0 -158 48 -158 161v240h-57v98l57 16v134l124 37h23v-167h133z" />
    <glyph glyph-name="u" unicode="u" 
d="M547 500v-500h-131l-14 50c-11 -18 -52 -69 -155 -69c-120 0 -189 61 -189 179v340h148v-312c0 -47 26 -78 91 -78c70 0 100 38 103 42v348h147z" />
    <glyph glyph-name="v" unicode="v" horiz-adv-x="554" 
d="M196 0l-189 500h163l105 -366h5l105 366h162l-188 -500h-163z" />
    <glyph glyph-name="w" unicode="w" horiz-adv-x="822" 
d="M656 500h155l-150 -500h-159l-90 325h-2l-90 -325h-160l-150 500h156l73 -331h4l94 331h148l94 -331h4z" />
    <glyph glyph-name="x" unicode="x" horiz-adv-x="570" 
d="M561 500l-182 -249l185 -251h-172l-105 182h-4l-104 -182h-173l184 251l-181 249h171l103 -173h4l103 173h171z" />
    <glyph glyph-name="y" unicode="y" horiz-adv-x="567" 
d="M47 -122c0 0 29 -16 60 -16c50 0 83 41 121 142l-221 496h162l131 -352h4l94 352h162l-195 -523c-64 -171 -138 -246 -238 -246c-65 0 -105 27 -105 27z" />
    <glyph glyph-name="z" unicode="z" horiz-adv-x="499" 
d="M469 500v-72l-242 -314h240l-1 -114h-439v79l243 307h-223v114h422z" />
    <glyph glyph-name="braceleft" unicode="{" horiz-adv-x="463" 
d="M107 231v122c36 0 101 19 101 62c0 54 -30 111 -30 179c0 98 54 154 253 154v-106c-92 0 -126 -31 -126 -86c0 -62 30 -113 30 -176c0 -36 -22 -66 -58 -89c36 -22 58 -52 58 -88c0 -62 -30 -113 -30 -175c0 -56 34 -86 126 -86v-107c-199 0 -253 57 -253 155
c0 68 30 125 30 179c0 42 -65 62 -101 62z" />
    <glyph glyph-name="bar" unicode="|" horiz-adv-x="391" 
d="M265 750v-1000h-140v1000h140z" />
    <glyph glyph-name="braceright" unicode="}" horiz-adv-x="463" 
d="M386 353v-122c-36 0 -101 -20 -101 -62c0 -54 30 -111 30 -179c0 -98 -54 -155 -253 -155v107c92 0 126 30 126 86c0 62 -30 113 -30 175c0 36 21 66 58 88c-37 23 -58 53 -58 89c0 63 30 114 30 176c0 55 -34 86 -126 86v106c199 0 253 -56 253 -154
c0 -68 -30 -125 -30 -179c0 -43 65 -62 101 -62z" />
    <glyph glyph-name="asciitilde" unicode="~" horiz-adv-x="691" 
d="M630 399l6 -116s-43 -63 -156 -63c-134 0 -152 87 -281 87c-84 0 -139 -42 -139 -42l-6 129s52 64 175 64c149 0 162 -91 282 -91c77 0 119 32 119 32z" />
    <glyph glyph-name="nbspace" unicode="&#xa0;" horiz-adv-x="297" 
 />
    <glyph glyph-name="exclamdown" unicode="&#xa1;" horiz-adv-x="375" 
d="M107 -250v263l30 256h93l30 -256v-263h-153zM114 500h135v-129h-135v129z" />
    <glyph glyph-name="cent" unicode="&#xa2;" horiz-adv-x="515" 
d="M431 222l76 -54s-31 -89 -152 -112v-106h-114l-6 105c-137 20 -204 113 -204 262c0 140 68 241 202 265v118h115l5 -116c95 -15 136 -65 136 -65l-45 -91s-90 49 -125 49c-92 0 -136 -47 -136 -158c0 -114 51 -158 126 -158c71 0 122 61 122 61z" />
    <glyph glyph-name="sterling" unicode="&#xa3;" 
d="M528 358v-95h-240c-4 -55 -14 -104 -41 -141h344v-122h-547v122h45c39 30 47 85 47 150l-92 14v72h88c-3 36 -5 73 -5 110c0 120 82 199 236 199c135 0 188 -69 188 -69l-49 -89s-83 34 -112 34c-59 0 -101 -25 -101 -83c0 -35 1 -69 1 -102h238z" />
    <glyph glyph-name="currency" unicode="&#xa4;" horiz-adv-x="633" 
d="M510 315c0 -38 -10 -72 -28 -101l105 -89l-55 -67l-102 101c-31 -22 -70 -35 -113 -35c-42 0 -81 12 -112 33l-104 -98l-55 67l106 87c-17 29 -27 64 -27 102c0 37 9 70 26 99l-105 90l55 67l102 -101c31 22 71 35 114 35c42 0 80 -12 111 -33l104 98l55 -66l-106 -87
c18 -29 29 -64 29 -102zM414 315c0 63 -40 99 -97 99c-56 0 -95 -36 -95 -98c0 -63 39 -101 95 -101c57 0 97 37 97 100z" />
    <glyph glyph-name="yen" unicode="&#xa5;" horiz-adv-x="644" 
d="M319 364h1l163 286h172l-204 -329h95v-80h-144l-3 -5v-67h147v-80h-147v-89h-155v89h-146v80h146v67l-3 5h-143v80h93l-202 329h172z" />
    <glyph glyph-name="brokenbar" unicode="&#xa6;" horiz-adv-x="391" 
d="M265 150v-400h-140v400h140zM265 750v-400h-140v400h140z" />
    <glyph glyph-name="section" unicode="&#xa7;" horiz-adv-x="582" 
d="M67 314c0 55 31 90 62 111c-16 18 -25 41 -25 70c0 105 81 172 217 172c160 0 197 -76 197 -76l-54 -84s-88 49 -124 49c-61 0 -79 -27 -79 -56c0 -85 286 -54 286 -217c0 -59 -37 -98 -71 -120c15 -18 25 -41 25 -69c0 -105 -51 -170 -222 -170
c-174 0 -230 102 -230 102l76 61s39 -51 137 -51c64 0 81 25 81 53c0 86 -276 47 -276 225zM194 328c0 -68 118 -78 207 -115c11 14 19 31 19 55c0 59 -121 69 -213 107c-8 -12 -13 -27 -13 -47z" />
    <glyph glyph-name="dieresis" unicode="&#xa8;" horiz-adv-x="481" 
d="M228 712h126v-121h-126v121zM14 712h126v-121h-126v121z" />
    <glyph glyph-name="copyright" unicode="&#xa9;" horiz-adv-x="849" 
d="M782 323c0 -207 -124 -342 -360 -342c-235 0 -355 135 -355 342s123 344 355 344c233 0 360 -137 360 -344zM679 322c0 162 -94 263 -258 263c-162 0 -252 -101 -252 -263s90 -259 252 -259c164 0 258 97 258 259zM564 447l-47 -60s-36 25 -65 25
c-66 0 -101 -31 -101 -95c0 -58 42 -87 94 -87c66 0 93 46 93 46l46 -42s-24 -95 -150 -95c-105 0 -183 66 -183 178c0 113 74 182 186 182c84 0 127 -52 127 -52z" />
    <glyph glyph-name="ordfeminine" unicode="&#xaa;" horiz-adv-x="474" 
d="M309 320l-24 45c-6 -16 -31 -58 -116 -58c-91 0 -140 41 -140 106c0 103 158 125 254 129v9c0 30 -22 45 -70 45c-61 0 -103 -33 -103 -33l-44 63s36 57 166 57c117 0 183 -39 183 -137v-226h-106zM219 388c54 0 63 29 64 41v45c-78 -5 -124 -15 -124 -50
c0 -25 21 -36 60 -36z" />
    <glyph glyph-name="guillemotleft" unicode="&#xab;" horiz-adv-x="615" 
d="M338 366l-117 -117l116 -118l-63 -72l-184 191l185 186zM552 366l-117 -117l116 -118l-63 -72l-184 191l185 186z" />
    <glyph glyph-name="logicalnot" unicode="&#xac;" horiz-adv-x="566" 
d="M511 372v-277h-121v162h-336v115h457z" />
    <glyph glyph-name="uni00AD" unicode="&#xad;" horiz-adv-x="405" 
d="M358 332v-115h-313v115h313z" />
    <glyph glyph-name="registered" unicode="&#xae;" horiz-adv-x="771" 
d="M721 430c0 -196 -121 -330 -337 -330c-217 0 -334 134 -334 330c0 197 127 329 334 329s337 -132 337 -329zM618 429c0 160 -81 252 -235 252s-231 -97 -231 -252c0 -159 77 -247 231 -247s235 88 235 247zM270 274v310h114c96 0 145 -29 145 -100c0 -45 -24 -76 -63 -92
l62 -119h-87l-55 106h-37v-105h-79zM386 522h-37v-88h38c32 0 58 15 58 49c0 27 -21 39 -59 39z" />
    <glyph glyph-name="macron" unicode="&#xaf;" horiz-adv-x="490" 
d="M362 692v-78h-248v78h248z" />
    <glyph glyph-name="degree" unicode="&#xb0;" horiz-adv-x="484" 
d="M445 564c0 -120 -72 -204 -203 -204c-136 0 -203 84 -203 204c0 119 74 201 203 201c124 0 203 -82 203 -201zM325 564c0 53 -25 94 -83 94c-59 0 -82 -41 -82 -94c0 -52 23 -95 82 -95c58 0 83 43 83 95z" />
    <glyph glyph-name="plusminus" unicode="&#xb1;" horiz-adv-x="600" 
d="M364 746v-164h167v-115h-167v-164h-121v164h-169v115h169v164h121zM568 223v-115h-536v115h536z" />
    <glyph glyph-name="twosuperior" unicode="&#xb2;" horiz-adv-x="475" 
d="M435 325v-95h-400v77s240 138 240 228c0 39 -20 67 -76 67c-67 0 -85 -52 -85 -52l-91 30s31 125 200 125c141 0 204 -71 204 -155c0 -89 -92 -168 -180 -225h188z" />
    <glyph glyph-name="threesuperior" unicode="&#xb3;" horiz-adv-x="472" 
d="M174 422l-57 56l118 114h-178v93h344v-59l-131 -118c110 -11 163 -62 163 -139c0 -104 -85 -159 -227 -159c-174 0 -194 112 -194 112l78 47s28 -67 111 -67c63 0 90 33 90 69c0 32 -28 56 -78 56c-29 0 -36 -4 -39 -5z" />
    <glyph glyph-name="acute" unicode="&#xb4;" horiz-adv-x="271" 
d="M150 726l139 -15l-134 -140l-105 8z" />
    <glyph glyph-name="mu" unicode="&#xb5;" horiz-adv-x="618" 
d="M553 500v-500h-131l-14 50c-11 -18 -52 -69 -155 -69c-19 0 -36 2 -52 5l3 -236h-147l7 466v284h148v-312c0 -47 26 -78 91 -78c70 0 100 38 103 42v348h147z" />
    <glyph glyph-name="paragraph" unicode="&#xb6;" horiz-adv-x="819" 
d="M779 650v-129h-72v-521h-154v521h-97v-521h-150v232c-167 0 -267 62 -267 212c0 133 81 206 296 206h444z" />
    <glyph glyph-name="periodcentered" unicode="&#xb7;" horiz-adv-x="333" 
d="M98 429h135v-129h-135v129z" />
    <glyph glyph-name="cedilla" unicode="&#xb8;" horiz-adv-x="282" 
d="M127 -1h76l-7 -60c0 -8 94 -8 94 -85c0 -63 -39 -105 -126 -105c-96 0 -119 50 -119 50l36 41s22 -28 62 -28c35 0 55 12 55 41c0 43 -82 38 -82 53z" />
    <glyph glyph-name="onesuperior" unicode="&#xb9;" horiz-adv-x="407" 
d="M163 685h148v-455h-148v293c-29 -16 -65 -27 -106 -30l-12 98c60 8 118 53 118 94z" />
    <glyph glyph-name="ordmasculine" unicode="&#xba;" horiz-adv-x="504" 
d="M473 495c0 -117 -79 -188 -221 -188c-148 0 -221 71 -221 188c0 116 73 188 221 188s221 -72 221 -188zM252 595c-62 0 -85 -34 -85 -99c0 -67 23 -106 85 -106s85 38 85 105c0 66 -23 100 -85 100z" />
    <glyph glyph-name="guillemotright" unicode="&#xbb;" horiz-adv-x="615" 
d="M63 364l63 72l184 -191l-184 -186l-65 69l118 117zM277 364l63 72l184 -191l-184 -186l-65 69l118 117z" />
    <glyph glyph-name="onequarter" unicode="&#xbc;" horiz-adv-x="928" 
d="M163 685h148v-455h-148v293c-29 -16 -65 -27 -106 -30l-12 98c60 8 118 53 118 94zM724 555l-392 -605l-94 51l393 605zM572 262l127 -7c-16 -100 -45 -203 -90 -277h105v67l29 141h104v-208h53v-72l-53 -15v-91h-133v90h-233l-6 67c37 63 82 204 97 305z" />
    <glyph glyph-name="onehalf" unicode="&#xbd;" horiz-adv-x="975" 
d="M163 685h148v-455h-148v293c-29 -16 -65 -27 -106 -30l-12 98c60 8 118 53 118 94zM724 555l-392 -605l-94 51l393 605zM935 -105v-95h-400v77s240 138 240 228c0 39 -20 67 -76 67c-67 0 -85 -52 -85 -52l-91 30s31 125 200 125c141 0 204 -71 204 -155
c0 -89 -92 -168 -180 -225h188z" />
    <glyph glyph-name="threequarters" unicode="&#xbe;" horiz-adv-x="977" 
d="M180 422l-57 56l118 114h-178v93h344v-59l-131 -118c110 -11 163 -62 163 -139c0 -104 -85 -159 -227 -159c-174 0 -194 112 -194 112l78 47s28 -67 111 -67c63 0 90 33 90 69c0 32 -28 56 -78 56c-29 0 -36 -4 -39 -5zM774 555l-392 -605l-94 51l393 605zM621 262
l127 -7c-16 -100 -45 -203 -90 -277h105v67l29 141h104v-208h53v-72l-53 -15v-91h-133v90h-233l-6 67c37 63 82 204 97 305z" />
    <glyph glyph-name="questiondown" unicode="&#xbf;" horiz-adv-x="510" 
d="M410 -81l94 -59s-37 -129 -246 -129c-166 0 -234 93 -234 178c0 211 235 146 243 352h85c7 -31 11 -57 11 -80c0 -169 -179 -138 -179 -254c0 -40 29 -75 109 -75c91 0 117 67 117 67zM242 500h135v-129h-135v129z" />
    <glyph glyph-name="Agrave" unicode="&#xc0;" horiz-adv-x="717" 
d="M256 650h206l237 -650h-157l-50 133h-271l-47 -133h-155zM358 541h-1l-101 -306h201zM185 846l139 15l99 -147l-105 -8z" />
    <glyph glyph-name="Aacute" unicode="&#xc1;" horiz-adv-x="717" 
d="M256 650h206l237 -650h-157l-50 133h-271l-47 -133h-155zM358 541h-1l-101 -306h201zM390 861l139 -15l-134 -140l-105 8z" />
    <glyph glyph-name="Acircumflex" unicode="&#xc2;" horiz-adv-x="717" 
d="M256 650h206l237 -650h-157l-50 133h-271l-47 -133h-155zM358 541h-1l-101 -306h201zM397 888l134 -85l-49 -90l-124 81l-124 -81l-49 90l134 85h78z" />
    <glyph glyph-name="Atilde" unicode="&#xc3;" horiz-adv-x="717" 
d="M256 650h206l237 -650h-157l-50 133h-271l-47 -133h-155zM358 541h-1l-101 -306h201zM537 853l32 -72s-23 -63 -113 -63c-75 0 -120 51 -186 51c-46 0 -85 -38 -85 -38l-32 81s35 70 125 70c84 0 127 -54 187 -54c47 0 72 25 72 25z" />
    <glyph glyph-name="Adieresis" unicode="&#xc4;" horiz-adv-x="717" 
d="M256 650h206l237 -650h-157l-50 133h-271l-47 -133h-155zM358 541h-1l-101 -306h201zM401 847h126v-121h-126v121zM187 847h126v-121h-126v121z" />
    <glyph glyph-name="Aring" unicode="&#xc5;" horiz-adv-x="717" 
d="M256 650h206l237 -650h-157l-50 133h-271l-47 -133h-155zM358 541h-1l-101 -306h201zM477 835c0 -69 -48 -118 -119 -118c-74 0 -119 49 -119 118c0 68 50 117 119 117c67 0 119 -49 119 -117zM409 835c0 31 -23 52 -51 52s-51 -21 -51 -52s21 -53 51 -53s51 22 51 53z
" />
    <glyph glyph-name="AE" unicode="&#xc6;" horiz-adv-x="954" 
d="M383 650h518v-122h-300v-142h266v-117h-266v-147h317v-122h-471v133h-226l-78 -133h-164zM439 528l-160 -293h168v293h-8z" />
    <glyph glyph-name="Ccedilla" unicode="&#xc7;" horiz-adv-x="672" 
d="M632 565l-58 -98s-127 72 -178 72c-139 0 -200 -87 -200 -217c0 -128 72 -212 195 -212c132 0 214 93 214 93l61 -79s-65 -130 -254 -142l-5 -43c0 -8 94 -8 94 -85c0 -63 -39 -105 -126 -105c-96 0 -119 50 -119 50l36 41s22 -28 62 -28c35 0 55 12 55 41
c0 43 -82 38 -82 53l9 78c-200 17 -297 149 -297 338c0 203 121 345 347 345c183 0 246 -102 246 -102z" />
    <glyph glyph-name="Egrave" unicode="&#xc8;" horiz-adv-x="605" 
d="M559 122v-122h-470v650h453v-122h-299v-142h265v-117h-265v-147h316zM146 846l139 15l99 -147l-105 -8z" />
    <glyph glyph-name="Eacute" unicode="&#xc9;" horiz-adv-x="605" 
d="M559 122v-122h-470v650h453v-122h-299v-142h265v-117h-265v-147h316zM352 861l139 -15l-134 -140l-105 8z" />
    <glyph glyph-name="Ecircumflex" unicode="&#xca;" horiz-adv-x="605" 
d="M559 122v-122h-470v650h453v-122h-299v-142h265v-117h-265v-147h316zM358 888l134 -85l-49 -90l-124 81l-124 -81l-49 90l134 85h78z" />
    <glyph glyph-name="Edieresis" unicode="&#xcb;" horiz-adv-x="605" 
d="M559 122v-122h-470v650h453v-122h-299v-142h265v-117h-265v-147h316zM363 847h126v-121h-126v121zM149 847h126v-121h-126v121z" />
    <glyph glyph-name="Igrave" unicode="&#xcc;" horiz-adv-x="332" 
d="M243 650v-650h-154v650h154zM-10 846l139 15l99 -147l-105 -8z" />
    <glyph glyph-name="Iacute" unicode="&#xcd;" horiz-adv-x="332" 
d="M243 650v-650h-154v650h154zM196 861l139 -15l-134 -140l-105 8z" />
    <glyph glyph-name="Icircumflex" unicode="&#xce;" horiz-adv-x="332" 
d="M243 650v-650h-154v650h154zM203 888l134 -85l-49 -90l-124 81l-124 -81l-49 90l134 85h78z" />
    <glyph glyph-name="Idieresis" unicode="&#xcf;" horiz-adv-x="332" 
d="M243 650v-650h-154v650h154zM207 847h126v-121h-126v121zM-7 847h126v-121h-126v121z" />
    <glyph glyph-name="Eth" unicode="&#xd0;" horiz-adv-x="750" 
d="M353 650c233 0 359 -112 359 -327c0 -210 -119 -323 -358 -323h-265v272h-69v100h69v278h264zM353 521h-110v-149h172v-100h-172v-144h113c137 0 198 62 198 195c0 135 -62 198 -201 198z" />
    <glyph glyph-name="Ntilde" unicode="&#xd1;" horiz-adv-x="780" 
d="M691 650v-650h-163l-308 451h-3l5 -58v-393h-133v650h161l309 -456h2l-3 45v411h133zM567 853l32 -72s-23 -63 -113 -63c-75 0 -120 51 -186 51c-46 0 -85 -38 -85 -38l-32 81s35 70 125 70c84 0 127 -54 187 -54c47 0 72 25 72 25z" />
    <glyph glyph-name="Ograve" unicode="&#xd2;" horiz-adv-x="769" 
d="M730 324c0 -204 -124 -343 -347 -343s-344 139 -344 343s121 343 344 343s347 -139 347 -343zM573 324c0 126 -68 215 -190 215s-187 -89 -187 -215s63 -214 187 -214c125 0 190 88 190 214zM209 846l139 15l99 -147l-105 -8z" />
    <glyph glyph-name="Oacute" unicode="&#xd3;" horiz-adv-x="769" 
d="M730 324c0 -204 -124 -343 -347 -343s-344 139 -344 343s121 343 344 343s347 -139 347 -343zM573 324c0 126 -68 215 -190 215s-187 -89 -187 -215s63 -214 187 -214c125 0 190 88 190 214zM415 861l139 -15l-134 -140l-105 8z" />
    <glyph glyph-name="Ocircumflex" unicode="&#xd4;" horiz-adv-x="769" 
d="M730 324c0 -204 -124 -343 -347 -343s-344 139 -344 343s121 343 344 343s347 -139 347 -343zM573 324c0 126 -68 215 -190 215s-187 -89 -187 -215s63 -214 187 -214c125 0 190 88 190 214zM421 888l134 -85l-49 -90l-124 81l-124 -81l-49 90l134 85h78z" />
    <glyph glyph-name="Otilde" unicode="&#xd5;" horiz-adv-x="769" 
d="M730 324c0 -204 -124 -343 -347 -343s-344 139 -344 343s121 343 344 343s347 -139 347 -343zM573 324c0 126 -68 215 -190 215s-187 -89 -187 -215s63 -214 187 -214c125 0 190 88 190 214zM561 853l32 -72s-23 -63 -113 -63c-75 0 -120 51 -186 51
c-46 0 -85 -38 -85 -38l-32 81s35 70 125 70c84 0 127 -54 187 -54c47 0 72 25 72 25z" />
    <glyph glyph-name="Odieresis" unicode="&#xd6;" horiz-adv-x="769" 
d="M730 324c0 -204 -124 -343 -347 -343s-344 139 -344 343s121 343 344 343s347 -139 347 -343zM573 324c0 126 -68 215 -190 215s-187 -89 -187 -215s63 -214 187 -214c125 0 190 88 190 214zM426 847h126v-121h-126v121zM212 847h126v-121h-126v121z" />
    <glyph glyph-name="multiply" unicode="&#xd7;" horiz-adv-x="480" 
d="M448 431l-117 -112l116 -111l-87 -92l-120 115l-120 -115l-87 92l116 111l-117 112l86 92l122 -117l122 117z" />
    <glyph glyph-name="Oslash" unicode="&#xd8;" horiz-adv-x="769" 
d="M730 324c0 -204 -124 -343 -347 -343c-38 0 -73 5 -105 12l-42 -100l-67 11l46 110c-115 53 -176 165 -176 310c0 204 121 343 344 343c45 0 86 -6 123 -17l38 76l68 -11l-45 -90c106 -55 163 -163 163 -301zM271 143l177 386c-20 6 -41 10 -65 10
c-122 0 -187 -89 -187 -215c0 -80 25 -145 75 -181zM573 324c0 73 -24 135 -67 173l-175 -381c16 -4 33 -6 52 -6c125 0 190 88 190 214z" />
    <glyph glyph-name="Ugrave" unicode="&#xd9;" horiz-adv-x="746" 
d="M373 -19c-216 0 -294 115 -294 255v414h154v-383c0 -88 37 -148 140 -148c104 0 141 60 141 148v383h154v-414c0 -140 -79 -255 -295 -255zM192 846l139 15l99 -147l-105 -8z" />
    <glyph glyph-name="Uacute" unicode="&#xda;" horiz-adv-x="746" 
d="M373 -19c-216 0 -294 115 -294 255v414h154v-383c0 -88 37 -148 140 -148c104 0 141 60 141 148v383h154v-414c0 -140 -79 -255 -295 -255zM398 861l139 -15l-134 -140l-105 8z" />
    <glyph glyph-name="Ucircumflex" unicode="&#xdb;" horiz-adv-x="746" 
d="M373 -19c-216 0 -294 115 -294 255v414h154v-383c0 -88 37 -148 140 -148c104 0 141 60 141 148v383h154v-414c0 -140 -79 -255 -295 -255zM405 888l134 -85l-49 -90l-124 81l-124 -81l-49 90l134 85h78z" />
    <glyph glyph-name="Udieresis" unicode="&#xdc;" horiz-adv-x="746" 
d="M373 -19c-216 0 -294 115 -294 255v414h154v-383c0 -88 37 -148 140 -148c104 0 141 60 141 148v383h154v-414c0 -140 -79 -255 -295 -255zM409 847h126v-121h-126v121zM195 847h126v-121h-126v121z" />
    <glyph glyph-name="Yacute" unicode="&#xdd;" horiz-adv-x="644" 
d="M319 364h1l163 286h172l-256 -414v-236h-155v236l-255 414h172zM368 861l139 -15l-134 -140l-105 8z" />
    <glyph glyph-name="Thorn" unicode="&#xde;" 
d="M232 650v-100h82c167 0 265 -71 265 -227c0 -174 -139 -238 -261 -238h-86v-85h-143v650h143zM302 427h-70v-223h70c74 0 126 26 126 113c0 81 -49 110 -126 110z" />
    <glyph glyph-name="germandbls" unicode="&#xdf;" horiz-adv-x="642" 
d="M212 524v-524h-147v524c0 169 100 236 251 236c142 0 223 -63 223 -171c0 -81 -60 -121 -114 -141c118 -23 187 -85 187 -211c0 -169 -89 -256 -220 -256c-113 0 -132 33 -132 33l21 94s16 -14 66 -14c65 0 114 45 114 139c0 104 -47 148 -178 148v108s111 7 111 81
c0 46 -28 74 -80 74c-66 0 -102 -35 -102 -120z" />
    <glyph glyph-name="agrave" unicode="&#xe0;" horiz-adv-x="560" 
d="M379 0l-21 62c-10 -24 -42 -81 -145 -81c-115 0 -184 59 -184 145c0 141 205 184 326 192v2c0 64 -36 86 -97 86c-76 0 -110 -48 -110 -48l-83 68s45 92 208 92c146 0 228 -56 228 -195v-323h-122zM257 86c84 0 98 66 98 66v79c-104 -9 -182 -29 -182 -82
c0 -42 31 -63 84 -63zM118 711l139 15l99 -147l-105 -8z" />
    <glyph glyph-name="aacute" unicode="&#xe1;" horiz-adv-x="560" 
d="M379 0l-21 62c-10 -24 -42 -81 -145 -81c-115 0 -184 59 -184 145c0 141 205 184 326 192v2c0 64 -36 86 -97 86c-76 0 -110 -48 -110 -48l-83 68s45 92 208 92c146 0 228 -56 228 -195v-323h-122zM257 86c84 0 98 66 98 66v79c-104 -9 -182 -29 -182 -82
c0 -42 31 -63 84 -63zM323 726l139 -15l-134 -140l-105 8z" />
    <glyph glyph-name="acircumflex" unicode="&#xe2;" horiz-adv-x="560" 
d="M379 0l-21 62c-10 -24 -42 -81 -145 -81c-115 0 -184 59 -184 145c0 141 205 184 326 192v2c0 64 -36 86 -97 86c-76 0 -110 -48 -110 -48l-83 68s45 92 208 92c146 0 228 -56 228 -195v-323h-122zM257 86c84 0 98 66 98 66v79c-104 -9 -182 -29 -182 -82
c0 -42 31 -63 84 -63zM329 753l134 -85l-49 -90l-124 81l-124 -81l-49 90l134 85h78z" />
    <glyph glyph-name="atilde" unicode="&#xe3;" horiz-adv-x="560" 
d="M379 0l-21 62c-10 -24 -42 -81 -145 -81c-115 0 -184 59 -184 145c0 141 205 184 326 192v2c0 64 -36 86 -97 86c-76 0 -110 -48 -110 -48l-83 68s45 92 208 92c146 0 228 -56 228 -195v-323h-122zM257 86c84 0 98 66 98 66v79c-104 -9 -182 -29 -182 -82
c0 -42 31 -63 84 -63zM470 718l32 -72s-23 -63 -113 -63c-75 0 -120 51 -186 51c-46 0 -85 -38 -85 -38l-32 81s35 70 125 70c84 0 127 -54 187 -54c47 0 72 25 72 25z" />
    <glyph glyph-name="adieresis" unicode="&#xe4;" horiz-adv-x="560" 
d="M379 0l-21 62c-10 -24 -42 -81 -145 -81c-115 0 -184 59 -184 145c0 141 205 184 326 192v2c0 64 -36 86 -97 86c-76 0 -110 -48 -110 -48l-83 68s45 92 208 92c146 0 228 -56 228 -195v-323h-122zM257 86c84 0 98 66 98 66v79c-104 -9 -182 -29 -182 -82
c0 -42 31 -63 84 -63zM333 712h126v-121h-126v121zM119 712h126v-121h-126v121z" />
    <glyph glyph-name="aring" unicode="&#xe5;" horiz-adv-x="560" 
d="M379 0l-21 62c-10 -24 -42 -81 -145 -81c-115 0 -184 59 -184 145c0 141 205 184 326 192v2c0 64 -36 86 -97 86c-76 0 -110 -48 -110 -48l-83 68s45 92 208 92c146 0 228 -56 228 -195v-323h-122zM257 86c84 0 98 66 98 66v79c-104 -9 -182 -29 -182 -82
c0 -42 31 -63 84 -63zM410 698c0 -69 -48 -118 -119 -118c-74 0 -119 49 -119 118c0 68 50 117 119 117c67 0 119 -49 119 -117zM342 698c0 31 -23 52 -51 52s-51 -21 -51 -52s21 -53 51 -53s51 22 51 53z" />
    <glyph glyph-name="ae" unicode="&#xe6;" horiz-adv-x="871" 
d="M759 144l83 -52s-53 -111 -220 -111c-107 0 -189 36 -233 112c-20 -50 -66 -112 -176 -112c-115 0 -184 59 -184 152c0 149 206 178 327 185v2c0 64 -37 86 -98 86c-76 0 -110 -48 -110 -48l-83 68s45 92 208 92c83 0 136 -18 166 -60c44 39 104 60 175 60
c149 0 229 -93 229 -238c0 -53 -13 -80 -13 -80h-337c2 -70 50 -110 137 -110c84 0 129 54 129 54zM614 413c-79 0 -117 -48 -121 -118h231v7c0 63 -34 111 -110 111zM257 86c87 0 98 106 100 129c-1 5 -1 11 -1 16c-104 -9 -183 -29 -183 -82c0 -42 26 -63 84 -63z" />
    <glyph glyph-name="ccedilla" unicode="&#xe7;" horiz-adv-x="515" 
d="M431 152l76 -54s-33 -94 -164 -113l-5 -46c0 -8 94 -8 94 -85c0 -63 -39 -105 -126 -105c-96 0 -119 50 -119 50l36 41s22 -28 62 -28c35 0 55 12 55 41c0 43 -82 38 -82 53l9 76c-159 10 -236 105 -236 265c0 162 91 271 268 271c134 0 190 -69 190 -69l-45 -91
s-90 49 -125 49c-92 0 -136 -47 -136 -158c0 -114 51 -158 126 -158c71 0 122 61 122 61z" />
    <glyph glyph-name="egrave" unicode="&#xe8;" horiz-adv-x="547" 
d="M434 144l83 -52s-53 -111 -220 -111c-160 0 -266 81 -266 260c0 177 103 277 258 277c149 0 229 -93 229 -238c0 -53 -13 -80 -13 -80h-337c2 -70 50 -110 137 -110c84 0 129 54 129 54zM289 413c-79 0 -117 -48 -121 -118h231v7c0 63 -34 111 -110 111zM116 711l139 15
l99 -147l-105 -8z" />
    <glyph glyph-name="eacute" unicode="&#xe9;" horiz-adv-x="547" 
d="M434 144l83 -52s-53 -111 -220 -111c-160 0 -266 81 -266 260c0 177 103 277 258 277c149 0 229 -93 229 -238c0 -53 -13 -80 -13 -80h-337c2 -70 50 -110 137 -110c84 0 129 54 129 54zM289 413c-79 0 -117 -48 -121 -118h231v7c0 63 -34 111 -110 111zM321 726l139 -15
l-134 -140l-105 8z" />
    <glyph glyph-name="ecircumflex" unicode="&#xea;" horiz-adv-x="547" 
d="M434 144l83 -52s-53 -111 -220 -111c-160 0 -266 81 -266 260c0 177 103 277 258 277c149 0 229 -93 229 -238c0 -53 -13 -80 -13 -80h-337c2 -70 50 -110 137 -110c84 0 129 54 129 54zM289 413c-79 0 -117 -48 -121 -118h231v7c0 63 -34 111 -110 111zM328 753l134 -85
l-49 -90l-124 81l-124 -81l-49 90l134 85h78z" />
    <glyph glyph-name="edieresis" unicode="&#xeb;" horiz-adv-x="547" 
d="M434 144l83 -52s-53 -111 -220 -111c-160 0 -266 81 -266 260c0 177 103 277 258 277c149 0 229 -93 229 -238c0 -53 -13 -80 -13 -80h-337c2 -70 50 -110 137 -110c84 0 129 54 129 54zM289 413c-79 0 -117 -48 -121 -118h231v7c0 63 -34 111 -110 111zM332 712h126
v-121h-126v121zM118 712h126v-121h-126v121z" />
    <glyph glyph-name="igrave" unicode="&#xec;" horiz-adv-x="277" 
d="M212 500v-500h-147v500h147zM-35 711l139 15l99 -147l-105 -8z" />
    <glyph glyph-name="iacute" unicode="&#xed;" horiz-adv-x="277" 
d="M212 500v-500h-147v500h147zM170 726l139 -15l-134 -140l-105 8z" />
    <glyph glyph-name="icircumflex" unicode="&#xee;" horiz-adv-x="277" 
d="M212 500v-500h-147v500h147zM177 753l134 -85l-49 -90l-124 81l-124 -81l-49 90l134 85h78z" />
    <glyph glyph-name="idieresis" unicode="&#xef;" horiz-adv-x="277" 
d="M212 500v-500h-147v500h147zM182 712h126v-121h-126v121zM-32 712h126v-121h-126v121z" />
    <glyph glyph-name="eth" unicode="&#xf0;" horiz-adv-x="614" 
d="M31 250c0 166 96 268 249 268c53 0 101 -16 140 -45c-18 48 -46 94 -79 135l-99 -48l-26 54l84 40c-18 18 -38 35 -59 50l100 42c21 -12 41 -26 60 -43l85 41l25 -54l-66 -32c76 -92 129 -229 129 -386c0 -188 -95 -291 -271 -291c-168 0 -272 103 -272 269zM303 407
c-88 0 -121 -63 -121 -157c0 -95 33 -159 121 -159s120 64 120 160c0 89 -32 156 -120 156z" />
    <glyph glyph-name="ntilde" unicode="&#xf1;" 
d="M65 0v500h130l15 -51c11 17 51 69 155 69c120 0 188 -61 188 -179v-339h-147v312c0 46 -26 77 -91 77c-74 0 -103 -43 -103 -43v-346h-147zM475 717l32 -72s-23 -63 -113 -63c-75 0 -120 51 -186 51c-46 0 -85 -38 -85 -38l-32 81s35 70 125 70c84 0 127 -54 187 -54
c47 0 72 25 72 25z" />
    <glyph glyph-name="ograve" unicode="&#xf2;" horiz-adv-x="605" 
d="M574 250c0 -166 -104 -269 -272 -269c-176 0 -271 103 -271 269s95 268 271 268s272 -102 272 -268zM302 407c-88 0 -120 -62 -120 -156c0 -96 32 -160 120 -160s121 64 121 159c0 94 -33 157 -121 157zM128 711l139 15l99 -147l-105 -8z" />
    <glyph glyph-name="oacute" unicode="&#xf3;" horiz-adv-x="605" 
d="M574 250c0 -166 -104 -269 -272 -269c-176 0 -271 103 -271 269s95 268 271 268s272 -102 272 -268zM302 407c-88 0 -120 -62 -120 -156c0 -96 32 -160 120 -160s121 64 121 159c0 94 -33 157 -121 157zM334 726l139 -15l-134 -140l-105 8z" />
    <glyph glyph-name="ocircumflex" unicode="&#xf4;" horiz-adv-x="605" 
d="M574 250c0 -166 -104 -269 -272 -269c-176 0 -271 103 -271 269s95 268 271 268s272 -102 272 -268zM302 407c-88 0 -120 -62 -120 -156c0 -96 32 -160 120 -160s121 64 121 159c0 94 -33 157 -121 157zM340 753l134 -85l-49 -90l-124 81l-124 -81l-49 90l134 85h78z" />
    <glyph glyph-name="otilde" unicode="&#xf5;" horiz-adv-x="605" 
d="M574 250c0 -166 -104 -269 -272 -269c-176 0 -271 103 -271 269s95 268 271 268s272 -102 272 -268zM302 407c-88 0 -120 -62 -120 -156c0 -96 32 -160 120 -160s121 64 121 159c0 94 -33 157 -121 157zM480 718l32 -72s-23 -63 -113 -63c-75 0 -120 51 -186 51
c-46 0 -85 -38 -85 -38l-32 81s35 70 125 70c84 0 127 -54 187 -54c47 0 72 25 72 25z" />
    <glyph glyph-name="odieresis" unicode="&#xf6;" horiz-adv-x="605" 
d="M574 250c0 -166 -104 -269 -272 -269c-176 0 -271 103 -271 269s95 268 271 268s272 -102 272 -268zM302 407c-88 0 -120 -62 -120 -156c0 -96 32 -160 120 -160s121 64 121 159c0 94 -33 157 -121 157zM344 712h126v-121h-126v121zM130 712h126v-121h-126v121z" />
    <glyph glyph-name="divide" unicode="&#xf7;" horiz-adv-x="601" 
d="M232 141h135v-129h-135v129zM233 519h135v-129h-135v129zM568 323v-115h-536v115h536z" />
    <glyph glyph-name="oslash" unicode="&#xf8;" horiz-adv-x="625" 
d="M574 250c0 -166 -104 -269 -272 -269c-28 0 -53 3 -77 8l-78 -172l-66 11l82 181c-86 41 -132 126 -132 241c0 166 95 268 271 268c32 0 62 -4 89 -10l65 142l67 -11l-71 -155c80 -43 122 -124 122 -234zM302 407c-88 0 -120 -62 -120 -156c0 -54 10 -98 34 -126l126 276
c-12 4 -25 6 -40 6zM423 250c0 46 -8 85 -27 112l-123 -269c9 -1 19 -2 29 -2c88 0 121 64 121 159z" />
    <glyph glyph-name="ugrave" unicode="&#xf9;" 
d="M547 500v-500h-131l-14 50c-11 -18 -52 -69 -155 -69c-120 0 -189 61 -189 179v340h148v-312c0 -47 26 -78 91 -78c70 0 100 38 103 42v348h147zM132 711l139 15l99 -147l-105 -8z" />
    <glyph glyph-name="uacute" unicode="&#xfa;" 
d="M547 500v-500h-131l-14 50c-11 -18 -52 -69 -155 -69c-120 0 -189 61 -189 179v340h148v-312c0 -47 26 -78 91 -78c70 0 100 38 103 42v348h147zM337 726l139 -15l-134 -140l-105 8z" />
    <glyph glyph-name="ucircumflex" unicode="&#xfb;" 
d="M547 500v-500h-131l-14 50c-11 -18 -52 -69 -155 -69c-120 0 -189 61 -189 179v340h148v-312c0 -47 26 -78 91 -78c70 0 100 38 103 42v348h147zM344 753l134 -85l-49 -90l-124 81l-124 -81l-49 90l134 85h78z" />
    <glyph glyph-name="udieresis" unicode="&#xfc;" 
d="M547 500v-500h-131l-14 50c-11 -18 -52 -69 -155 -69c-120 0 -189 61 -189 179v340h148v-312c0 -47 26 -78 91 -78c70 0 100 38 103 42v348h147zM349 712h126v-121h-126v121zM135 712h126v-121h-126v121z" />
    <glyph glyph-name="yacute" unicode="&#xfd;" horiz-adv-x="567" 
d="M47 -122c0 0 29 -16 60 -16c50 0 83 41 121 142l-221 496h162l131 -352h4l94 352h162l-195 -523c-64 -171 -138 -246 -238 -246c-65 0 -105 27 -105 27zM324 726l139 -15l-134 -140l-105 8z" />
    <glyph glyph-name="thorn" unicode="&#xfe;" horiz-adv-x="623" 
d="M65 -250v1000h147v-310h5s38 78 142 78c140 0 234 -106 234 -258c0 -163 -88 -279 -234 -279c-79 0 -128 40 -148 62v-293h-146zM315 403c-85 0 -103 -71 -103 -71v-181s17 -56 97 -56c95 0 133 61 133 162c0 100 -39 146 -127 146z" />
    <glyph glyph-name="ydieresis" unicode="&#xff;" horiz-adv-x="567" 
d="M47 -122c0 0 29 -16 60 -16c50 0 83 41 121 142l-221 496h162l131 -352h4l94 352h162l-195 -523c-64 -171 -138 -246 -238 -246c-65 0 -105 27 -105 27zM335 712h126v-121h-126v121zM121 712h126v-121h-126v121z" />
    <glyph glyph-name="Amacron" unicode="&#x100;" horiz-adv-x="717" 
d="M256 650h206l237 -650h-157l-50 133h-271l-47 -133h-155zM358 541h-1l-101 -306h201zM482 827v-78h-248v78h248z" />
    <glyph glyph-name="amacron" unicode="&#x101;" horiz-adv-x="560" 
d="M379 0l-21 62c-10 -24 -42 -81 -145 -81c-115 0 -184 59 -184 145c0 141 205 184 326 192v2c0 64 -36 86 -97 86c-76 0 -110 -48 -110 -48l-83 68s45 92 208 92c146 0 228 -56 228 -195v-323h-122zM257 86c84 0 98 66 98 66v79c-104 -9 -182 -29 -182 -82
c0 -42 31 -63 84 -63zM415 692v-78h-248v78h248z" />
    <glyph glyph-name="Abreve" unicode="&#x102;" horiz-adv-x="717" 
d="M256 650h206l237 -650h-157l-50 133h-271l-47 -133h-155zM358 541h-1l-101 -306h201zM358 788c78 0 99 63 99 63l7 -2l88 -18s-17 -126 -194 -126c-175 0 -193 126 -193 126l89 18l6 2s21 -63 98 -63z" />
    <glyph glyph-name="abreve" unicode="&#x103;" horiz-adv-x="560" 
d="M379 0l-21 62c-10 -24 -42 -81 -145 -81c-115 0 -184 59 -184 145c0 141 205 184 326 192v2c0 64 -36 86 -97 86c-76 0 -110 -48 -110 -48l-83 68s45 92 208 92c146 0 228 -56 228 -195v-323h-122zM257 86c84 0 98 66 98 66v79c-104 -9 -182 -29 -182 -82
c0 -42 31 -63 84 -63zM291 653c78 0 99 63 99 63l7 -2l88 -18s-17 -126 -194 -126c-175 0 -193 126 -193 126l89 18l6 2s21 -63 98 -63z" />
    <glyph glyph-name="Aogonek" unicode="&#x104;" horiz-adv-x="717" 
d="M256 650h206l237 -650h-2c-5 -1 -97 -29 -97 -114c0 -47 37 -58 95 -58v-78c-106 0 -201 26 -201 133c0 52 37 91 76 117h-28l-50 133h-271l-47 -133h-155zM358 541h-1l-101 -306h201z" />
    <glyph glyph-name="aogonek" unicode="&#x105;" horiz-adv-x="560" 
d="M501 0h-3c-5 -1 -97 -29 -97 -114c0 -47 37 -58 95 -58v-78c-106 0 -201 26 -201 133c0 55 41 95 82 121l-19 58c-10 -24 -42 -81 -145 -81c-115 0 -184 59 -184 145c0 141 205 184 326 192v2c0 64 -36 86 -97 86c-76 0 -110 -48 -110 -48l-83 68s45 92 208 92
c146 0 228 -56 228 -195v-323zM257 86c84 0 98 66 98 66v79c-104 -9 -182 -29 -182 -82c0 -42 31 -63 84 -63z" />
    <glyph glyph-name="Cacute" unicode="&#x106;" horiz-adv-x="672" 
d="M632 565l-58 -98s-127 72 -178 72c-139 0 -200 -87 -200 -217c0 -128 72 -212 195 -212c132 0 214 93 214 93l61 -79s-71 -143 -282 -143c-232 0 -345 138 -345 341s121 345 347 345c183 0 246 -102 246 -102zM414 861l139 -15l-134 -140l-105 8z" />
    <glyph glyph-name="cacute" unicode="&#x107;" horiz-adv-x="515" 
d="M431 152l76 -54s-39 -117 -212 -117c-177 0 -264 97 -264 266c0 162 91 271 268 271c134 0 190 -69 190 -69l-45 -91s-90 49 -125 49c-92 0 -136 -47 -136 -158c0 -114 51 -158 126 -158c71 0 122 61 122 61zM338 726l139 -15l-134 -140l-105 8z" />
    <glyph glyph-name="Ccaron" unicode="&#x10c;" horiz-adv-x="672" 
d="M632 565l-58 -98s-127 72 -178 72c-139 0 -200 -87 -200 -217c0 -128 72 -212 195 -212c132 0 214 93 214 93l61 -79s-71 -143 -282 -143c-232 0 -345 138 -345 341s121 345 347 345c183 0 246 -102 246 -102zM343 707l-133 85l48 90l124 -82l125 82l48 -90l-134 -85h-78
z" />
    <glyph glyph-name="ccaron" unicode="&#x10d;" horiz-adv-x="515" 
d="M431 152l76 -54s-39 -117 -212 -117c-177 0 -264 97 -264 266c0 162 91 271 268 271c134 0 190 -69 190 -69l-45 -91s-90 49 -125 49c-92 0 -136 -47 -136 -158c0 -114 51 -158 126 -158c71 0 122 61 122 61zM266 572l-133 85l48 90l124 -82l125 82l48 -90l-134 -85h-78z
" />
    <glyph glyph-name="Dcaron" unicode="&#x10e;" horiz-adv-x="750" 
d="M353 650c233 0 359 -112 359 -327c0 -210 -119 -323 -358 -323h-265v650h264zM353 521h-110v-393h113c137 0 198 62 198 195c0 135 -62 198 -201 198zM292 707l-133 85l48 90l124 -82l125 82l48 -90l-134 -85h-78z" />
    <glyph glyph-name="dcaron" unicode="&#x10f;" horiz-adv-x="623" 
d="M559 750v-750h-130l-15 56c-11 -22 -48 -75 -149 -75c-140 0 -234 106 -234 258c0 163 88 279 234 279c107 0 143 -61 143 -61h4v293h147zM309 96c80 0 101 64 103 70v183c-1 3 -19 55 -97 55c-95 0 -133 -61 -133 -161c0 -101 39 -147 127 -147zM641 785l100 1
c0 -80 -22 -183 -48 -244l-90 12c18 58 26 151 26 231h12z" />
    <glyph glyph-name="Dcroat" unicode="&#x110;" horiz-adv-x="750" 
d="M353 650c233 0 359 -112 359 -327c0 -210 -119 -323 -358 -323h-265v272h-69v100h69v278h264zM353 521h-110v-149h172v-100h-172v-144h113c137 0 198 62 198 195c0 135 -62 198 -201 198z" />
    <glyph glyph-name="dcroat" unicode="&#x111;" horiz-adv-x="623" 
d="M559 750v-59h69v-91l-69 -12v-588h-130l-15 56c-11 -22 -48 -75 -149 -75c-140 0 -234 106 -234 258c0 163 88 279 234 279c107 0 143 -61 143 -61h4v131h-121v103h121v59h147zM309 96c85 0 103 71 103 71v182s-17 55 -97 55c-95 0 -133 -61 -133 -161
c0 -101 39 -147 127 -147z" />
    <glyph glyph-name="Emacron" unicode="&#x112;" horiz-adv-x="605" 
d="M559 122v-122h-470v650h453v-122h-299v-142h265v-117h-265v-147h316zM444 827v-78h-248v78h248z" />
    <glyph glyph-name="emacron" unicode="&#x113;" horiz-adv-x="547" 
d="M434 144l83 -52s-53 -111 -220 -111c-160 0 -266 81 -266 260c0 177 103 277 258 277c149 0 229 -93 229 -238c0 -53 -13 -80 -13 -80h-337c2 -70 50 -110 137 -110c84 0 129 54 129 54zM289 413c-79 0 -117 -48 -121 -118h231v7c0 63 -34 111 -110 111zM413 692v-78
h-248v78h248z" />
    <glyph glyph-name="Edotaccent" unicode="&#x116;" horiz-adv-x="605" 
d="M559 122v-122h-470v650h453v-122h-299v-142h265v-117h-265v-147h316zM255 847h130v-121h-130v121z" />
    <glyph glyph-name="edotaccent" unicode="&#x117;" horiz-adv-x="547" 
d="M434 144l83 -52s-53 -111 -220 -111c-160 0 -266 81 -266 260c0 177 103 277 258 277c149 0 229 -93 229 -238c0 -53 -13 -80 -13 -80h-337c2 -70 50 -110 137 -110c84 0 129 54 129 54zM289 413c-79 0 -117 -48 -121 -118h231v7c0 63 -34 111 -110 111zM224 712h130
v-121h-130v121z" />
    <glyph glyph-name="Eogonek" unicode="&#x118;" horiz-adv-x="605" 
d="M559 122v-122h-3s-98 -27 -98 -114c0 -47 37 -58 95 -58v-78c-106 0 -201 26 -201 133c0 52 37 91 76 117h-339v650h453v-122h-299v-142h265v-117h-265v-147h316z" />
    <glyph glyph-name="eogonek" unicode="&#x119;" horiz-adv-x="547" 
d="M434 144l83 -52s-37 -74 -141 -101c-29 -14 -73 -45 -73 -105c0 -47 37 -58 95 -58v-78c-106 0 -201 26 -201 133c0 42 24 76 54 101c-134 14 -220 95 -220 257c0 177 103 277 258 277c149 0 229 -93 229 -238c0 -53 -13 -80 -13 -80h-337c2 -70 50 -110 137 -110
c84 0 129 54 129 54zM289 413c-79 0 -117 -48 -121 -118h231v7c0 63 -34 111 -110 111z" />
    <glyph glyph-name="Ecaron" unicode="&#x11a;" horiz-adv-x="605" 
d="M559 122v-122h-470v650h453v-122h-299v-142h265v-117h-265v-147h316zM280 707l-133 85l48 90l124 -82l125 82l48 -90l-134 -85h-78z" />
    <glyph glyph-name="ecaron" unicode="&#x11b;" horiz-adv-x="547" 
d="M434 144l83 -52s-53 -111 -220 -111c-160 0 -266 81 -266 260c0 177 103 277 258 277c149 0 229 -93 229 -238c0 -53 -13 -80 -13 -80h-337c2 -70 50 -110 137 -110c84 0 129 54 129 54zM289 413c-79 0 -117 -48 -121 -118h231v7c0 63 -34 111 -110 111zM250 572l-133 85
l48 90l124 -82l125 82l48 -90l-134 -85h-78z" />
    <glyph glyph-name="Gbreve" unicode="&#x11e;" horiz-adv-x="725" 
d="M388 110c104 0 131 59 138 83v63h-123v118h254v-374h-108l-18 57c-37 -42 -93 -76 -176 -76c-207 0 -316 132 -316 342c0 206 130 344 354 344c164 0 241 -78 241 -78l-44 -102s-149 52 -184 52c-153 0 -210 -86 -210 -217c0 -140 80 -212 192 -212zM403 788
c78 0 99 63 99 63l7 -2l88 -18s-17 -126 -194 -126c-175 0 -193 126 -193 126l89 18l6 2s21 -63 98 -63z" />
    <glyph glyph-name="gbreve" unicode="&#x11f;" horiz-adv-x="540" 
d="M279 518c136 0 223 -58 223 -186c0 -125 -85 -182 -226 -182h-22c-4 -3 -11 -10 -11 -29c0 -29 26 -34 33 -34c187 0 269 -64 269 -172s-70 -184 -263 -184c-195 0 -269 75 -269 184c0 78 47 130 131 155c-12 15 -20 33 -20 53c0 21 8 37 20 49c-65 26 -104 78 -104 157
c0 131 104 189 239 189zM409 -84c0 54 -37 76 -133 76c-88 0 -127 -23 -127 -77s37 -83 133 -83c94 0 127 32 127 84zM366 332c0 70 -37 93 -93 93s-97 -23 -97 -96c0 -66 38 -92 97 -92s93 28 93 95zM259 654c78 0 99 63 99 63l7 -2l88 -18s-17 -126 -194 -126
c-175 0 -193 126 -193 126l89 18l6 2s21 -63 98 -63z" />
    <glyph glyph-name="Gcommaaccent" unicode="&#x122;" horiz-adv-x="725" 
d="M388 110c104 0 131 59 138 83v63h-123v118h254v-374h-108l-18 57c-37 -42 -93 -76 -176 -76c-207 0 -316 132 -316 342c0 206 130 344 354 344c164 0 241 -78 241 -78l-44 -102s-149 52 -184 52c-153 0 -210 -86 -210 -217c0 -140 80 -212 192 -212zM317 -52h128
c7 -33 11 -65 11 -94c0 -96 -38 -167 -106 -197l-58 46c43 31 76 74 79 134h-54v111z" />
    <glyph glyph-name="gcommaaccent" unicode="&#x123;" horiz-adv-x="540" 
d="M279 518c136 0 223 -58 223 -186c0 -125 -85 -182 -226 -182h-22c-4 -3 -11 -10 -11 -29c0 -29 26 -34 33 -34c187 0 269 -64 269 -172s-70 -184 -263 -184c-195 0 -269 75 -269 184c0 78 47 130 131 155c-12 15 -20 33 -20 53c0 21 8 37 20 49c-65 26 -104 78 -104 157
c0 131 104 189 239 189zM409 -84c0 54 -37 76 -133 76c-88 0 -127 -23 -127 -77s37 -83 133 -83c94 0 127 32 127 84zM366 332c0 70 -37 93 -93 93s-97 -23 -97 -96c0 -66 38 -92 97 -92s93 28 93 95zM325 567h-128c-7 33 -11 65 -11 94c0 96 38 167 106 197l58 -46
c-43 -31 -76 -74 -79 -134h54v-111z" />
    <glyph glyph-name="uni012A" unicode="&#x12a;" horiz-adv-x="332" 
d="M243 650v-650h-154v650h154zM288 827v-78h-248v78h248z" />
    <glyph glyph-name="imacron" unicode="&#x12b;" horiz-adv-x="277" 
d="M212 500v-500h-147v500h147zM262 692v-78h-248v78h248z" />
    <glyph glyph-name="Iogonek" unicode="&#x12e;" horiz-adv-x="332" 
d="M243 650v-650h-2c-5 -1 -97 -29 -97 -114c0 -47 37 -58 95 -58v-78c-106 0 -201 26 -201 133c0 52 37 91 76 117h-25v650h154z" />
    <glyph glyph-name="iogonek" unicode="&#x12f;" horiz-adv-x="277" 
d="M212 500v-500h-2c-5 -1 -97 -29 -97 -114c0 -47 37 -58 95 -58v-78c-106 0 -201 26 -201 133c0 52 37 91 76 117h-18v500h147zM73 712h130v-121h-130v121z" />
    <glyph glyph-name="Idotaccent" unicode="&#x130;" horiz-adv-x="332" 
d="M243 650v-650h-154v650h154zM102 847h130v-121h-130v121z" />
    <glyph glyph-name="dotlessi" unicode="&#x131;" horiz-adv-x="277" 
d="M212 500v-500h-147v500h147z" />
    <glyph glyph-name="Kcommaaccent" unicode="&#x136;" horiz-adv-x="706" 
d="M89 0v650h154v-288l57 38l208 250h172l-260 -309l283 -341h-180l-216 256l-64 -36v-220h-154zM283 -52h128c7 -33 11 -65 11 -94c0 -96 -38 -167 -106 -197l-58 46c43 31 76 74 79 134h-54v111z" />
    <glyph glyph-name="kcommaaccent" unicode="&#x137;" horiz-adv-x="557" 
d="M65 0v750h147v-439l38 31l121 158h169l-179 -220l194 -280h-176l-142 210l-25 -10v-200h-147zM239 -52h128c7 -33 11 -65 11 -94c0 -96 -38 -167 -106 -197l-58 46c43 31 76 74 79 134h-54v111z" />
    <glyph glyph-name="Lacute" unicode="&#x139;" horiz-adv-x="554" 
d="M544 122v-122h-455v650h154v-528h301zM191 861l139 -15l-134 -140l-105 8z" />
    <glyph glyph-name="lacute" unicode="&#x13a;" horiz-adv-x="277" 
d="M212 750v-750h-147v750h147zM189 951l139 -15l-134 -140l-105 8z" />
    <glyph glyph-name="Lcommaaccent" unicode="&#x13b;" horiz-adv-x="554" 
d="M544 122v-122h-455v650h154v-528h301zM232 -52h128c7 -33 11 -65 11 -94c0 -96 -38 -167 -106 -197l-58 46c43 31 76 74 79 134h-54v111z" />
    <glyph glyph-name="lcommaaccent" unicode="&#x13c;" horiz-adv-x="277" 
d="M212 750v-750h-147v750h147zM83 -52h128c7 -33 11 -65 11 -94c0 -96 -38 -167 -106 -197l-58 46c43 31 76 74 79 134h-54v111z" />
    <glyph glyph-name="Lcaron" unicode="&#x13d;" horiz-adv-x="554" 
d="M544 122v-122h-455v650h154v-528h301zM132 707l-133 85l48 90l124 -82l125 82l48 -90l-134 -85h-78z" />
    <glyph glyph-name="lcaron" unicode="&#x13e;" horiz-adv-x="277" 
d="M212 750v-750h-147v750h147zM296 785l100 1c0 -80 -22 -183 -48 -244l-90 12c18 58 26 151 26 231h12z" />
    <glyph glyph-name="Lslash" unicode="&#x141;" horiz-adv-x="574" 
d="M561 122v-122h-455v207l-61 -38l-39 63l100 63v355h154v-258l115 73l38 -63l-153 -97v-183h301z" />
    <glyph glyph-name="lslash" unicode="&#x142;" horiz-adv-x="354" 
d="M251 750v-273l79 52l40 -62l-119 -79v-388h-147v292l-65 -43l-40 63l105 69v369h147z" />
    <glyph glyph-name="Nacute" unicode="&#x143;" horiz-adv-x="780" 
d="M691 650v-650h-163l-308 451h-3l5 -58v-393h-133v650h161l309 -456h2l-3 45v411h133zM420 861l139 -15l-134 -140l-105 8z" />
    <glyph glyph-name="nacute" unicode="&#x144;" 
d="M65 0v500h130l15 -51c11 17 51 69 155 69c120 0 188 -61 188 -179v-339h-147v312c0 46 -26 77 -91 77c-74 0 -103 -43 -103 -43v-346h-147zM328 726l139 -15l-134 -140l-105 8z" />
    <glyph glyph-name="Ncommaaccent" unicode="&#x145;" horiz-adv-x="780" 
d="M691 650v-650h-163l-308 451h-3l5 -58v-393h-133v650h161l309 -456h2l-3 45v411h133zM325 -52h128c7 -33 11 -65 11 -94c0 -96 -38 -167 -106 -197l-58 46c43 31 76 74 79 134h-54v111z" />
    <glyph glyph-name="ncommaaccent" unicode="&#x146;" 
d="M65 0v500h130l15 -51c11 17 51 69 155 69c120 0 188 -61 188 -179v-339h-147v312c0 46 -26 77 -91 77c-74 0 -103 -43 -103 -43v-346h-147zM257 -52h128c7 -33 11 -65 11 -94c0 -96 -38 -167 -106 -197l-58 46c43 31 76 74 79 134h-54v111z" />
    <glyph glyph-name="Ncaron" unicode="&#x147;" horiz-adv-x="780" 
d="M691 650v-650h-163l-308 451h-3l5 -58v-393h-133v650h161l309 -456h2l-3 45v411h133zM379 707l-133 85l48 90l124 -82l125 82l48 -90l-134 -85h-78z" />
    <glyph glyph-name="ncaron" unicode="&#x148;" 
d="M65 0v500h130l15 -51c11 17 51 69 155 69c120 0 188 -61 188 -179v-339h-147v312c0 46 -26 77 -91 77c-74 0 -103 -43 -103 -43v-346h-147zM257 572l-133 85l48 90l124 -82l125 82l48 -90l-134 -85h-78z" />
    <glyph glyph-name="Omacron" unicode="&#x14c;" horiz-adv-x="769" 
d="M730 324c0 -204 -124 -343 -347 -343s-344 139 -344 343s121 343 344 343s347 -139 347 -343zM573 324c0 126 -68 215 -190 215s-187 -89 -187 -215s63 -214 187 -214c125 0 190 88 190 214zM507 827v-78h-248v78h248z" />
    <glyph glyph-name="omacron" unicode="&#x14d;" horiz-adv-x="605" 
d="M574 250c0 -166 -104 -269 -272 -269c-176 0 -271 103 -271 269s95 268 271 268s272 -102 272 -268zM302 407c-88 0 -120 -62 -120 -156c0 -96 32 -160 120 -160s121 64 121 159c0 94 -33 157 -121 157zM426 692v-78h-248v78h248z" />
    <glyph glyph-name="Ohungarumlaut" unicode="&#x150;" horiz-adv-x="769" 
d="M730 324c0 -204 -124 -343 -347 -343s-344 139 -344 343s121 343 344 343s347 -139 347 -343zM573 324c0 126 -68 215 -190 215s-187 -89 -187 -215s63 -214 187 -214c125 0 190 88 190 214zM405 877l-66 -161l-107 10l84 186zM585 877l-66 -161l-107 10l83 186z" />
    <glyph glyph-name="ohungarumlaut" unicode="&#x151;" horiz-adv-x="605" 
d="M574 250c0 -166 -104 -269 -272 -269c-176 0 -271 103 -271 269s95 268 271 268s272 -102 272 -268zM302 407c-88 0 -120 -62 -120 -156c0 -96 32 -160 120 -160s121 64 121 159c0 94 -33 157 -121 157zM324 742l-66 -161l-107 10l84 186zM504 742l-66 -161l-107 10
l83 186z" />
    <glyph glyph-name="OE" unicode="&#x152;" horiz-adv-x="1089" 
d="M1043 122v-122h-470v25c-52 -28 -115 -44 -190 -44c-223 0 -344 139 -344 343s121 343 344 343c75 0 138 -16 190 -45v28h453v-122h-299v-142h265v-117h-265v-147h316zM573 324c0 126 -68 215 -190 215s-187 -89 -187 -215s63 -214 187 -214c125 0 190 88 190 214z" />
    <glyph glyph-name="oe" unicode="&#x153;" horiz-adv-x="939" 
d="M826 144l83 -52s-53 -111 -220 -111c-82 0 -149 21 -196 65c-46 -42 -112 -65 -191 -65c-176 0 -271 103 -271 269s95 268 271 268c85 0 151 -24 197 -67c45 44 107 67 182 67c149 0 229 -93 229 -238c0 -53 -13 -80 -13 -80h-327c-1 -11 -3 -22 -6 -32
c14 -50 60 -78 133 -78c84 0 129 54 129 54zM302 407c-88 0 -120 -62 -120 -156c0 -96 32 -160 120 -160c86 0 119 61 121 152v7c0 94 -33 157 -121 157zM681 413c-65 0 -102 -33 -116 -83c3 -11 5 -23 6 -35h220v7c0 63 -34 111 -110 111z" />
    <glyph glyph-name="Racute" unicode="&#x154;" horiz-adv-x="651" 
d="M315 650c168 0 264 -78 264 -220c0 -99 -52 -160 -120 -193l162 -237h-177l-137 208h-75v-208h-143v650h226zM288 534h-56v-222h61c89 0 129 33 129 112c0 74 -43 110 -134 110zM337 861l139 -15l-134 -140l-105 8z" />
    <glyph glyph-name="racute" unicode="&#x155;" horiz-adv-x="405" 
d="M400 493l-28 -118s-46 14 -67 14c-65 0 -93 -62 -93 -62v-327h-147v500h116l19 -71c8 24 38 89 118 89c64 0 82 -25 82 -25zM250 726l139 -15l-134 -140l-105 8z" />
    <glyph glyph-name="Rcommaaccent" unicode="&#x156;" horiz-adv-x="651" 
d="M315 650c168 0 264 -78 264 -220c0 -99 -52 -160 -120 -193l162 -237h-177l-137 208h-75v-208h-143v650h226zM288 534h-56v-222h61c89 0 129 33 129 112c0 74 -43 110 -134 110zM270 -52h128c7 -33 11 -65 11 -94c0 -96 -38 -167 -106 -197l-58 46c43 31 76 74 79 134
h-54v111z" />
    <glyph glyph-name="rcommaaccent" unicode="&#x157;" horiz-adv-x="405" 
d="M400 493l-28 -118s-46 14 -67 14c-65 0 -93 -62 -93 -62v-327h-147v500h116l19 -71c8 24 38 89 118 89c64 0 82 -25 82 -25zM78 -52h128c7 -33 11 -65 11 -94c0 -96 -38 -167 -106 -197l-58 46c43 31 76 74 79 134h-54v111z" />
    <glyph glyph-name="Rcaron" unicode="&#x158;" horiz-adv-x="651" 
d="M315 650c168 0 264 -78 264 -220c0 -99 -52 -160 -120 -193l162 -237h-177l-137 208h-75v-208h-143v650h226zM288 534h-56v-222h61c89 0 129 33 129 112c0 74 -43 110 -134 110zM266 707l-133 85l48 90l124 -82l125 82l48 -90l-134 -85h-78z" />
    <glyph glyph-name="rcaron" unicode="&#x159;" horiz-adv-x="405" 
d="M400 493l-28 -118s-46 14 -67 14c-65 0 -93 -62 -93 -62v-327h-147v500h116l19 -71c8 24 38 89 118 89c64 0 82 -25 82 -25zM179 572l-133 85l48 90l124 -82l125 82l48 -90l-134 -85h-78z" />
    <glyph glyph-name="Sacute" unicode="&#x15a;" horiz-adv-x="591" 
d="M524 593l-48 -102s-115 61 -157 61c-67 0 -101 -28 -101 -76c0 -116 334 -78 334 -284c0 -134 -94 -211 -256 -211c-189 0 -257 105 -257 105l76 100s76 -80 189 -80c67 0 97 29 97 73c0 108 -334 64 -334 287c0 117 96 201 245 201c155 0 212 -74 212 -74zM345 861
l139 -15l-134 -140l-105 8z" />
    <glyph glyph-name="sacute" unicode="&#x15b;" horiz-adv-x="505" 
d="M20 102l80 62s61 -80 152 -80c50 0 81 23 81 51c0 84 -273 50 -273 226c0 100 84 157 208 157c123 0 180 -55 180 -55l-31 -87s-118 43 -148 43c-40 0 -70 -15 -70 -44c0 -81 276 -56 276 -227c0 -95 -71 -167 -221 -167c-197 0 -234 121 -234 121zM304 726l139 -15
l-134 -140l-105 8z" />
    <glyph glyph-name="Scedilla" unicode="&#x15e;" horiz-adv-x="591" 
d="M524 593l-48 -102s-115 61 -157 61c-67 0 -101 -28 -101 -76c0 -116 334 -78 334 -284c0 -126 -82 -200 -225 -210l-5 -43c0 -8 94 -8 94 -85c0 -63 -39 -105 -126 -105c-96 0 -119 50 -119 50l36 41s22 -28 62 -28c35 0 55 12 55 41c0 43 -82 38 -82 53l9 77
c-155 15 -212 103 -212 103l76 100s76 -80 189 -80c67 0 97 29 97 73c0 108 -334 64 -334 287c0 117 96 201 245 201c155 0 212 -74 212 -74z" />
    <glyph glyph-name="scedilla" unicode="&#x15f;" horiz-adv-x="505" 
d="M20 102l80 62s61 -80 152 -80c50 0 81 23 81 51c0 84 -273 50 -273 226c0 100 84 157 208 157c123 0 180 -55 180 -55l-31 -87s-118 43 -148 43c-40 0 -70 -15 -70 -44c0 -81 276 -56 276 -227c0 -91 -65 -160 -202 -166l-5 -43c0 -8 94 -8 94 -85
c0 -63 -39 -105 -126 -105c-96 0 -119 50 -119 50l36 41s22 -28 62 -28c35 0 55 12 55 41c0 43 -82 38 -82 53l9 79c-148 20 -177 117 -177 117z" />
    <glyph glyph-name="Scaron" unicode="&#x160;" horiz-adv-x="591" 
d="M524 593l-48 -102s-115 61 -157 61c-67 0 -101 -28 -101 -76c0 -116 334 -78 334 -284c0 -134 -94 -211 -256 -211c-189 0 -257 105 -257 105l76 100s76 -80 189 -80c67 0 97 29 97 73c0 108 -334 64 -334 287c0 117 96 201 245 201c155 0 212 -74 212 -74zM274 707
l-133 85l48 90l124 -82l125 82l48 -90l-134 -85h-78z" />
    <glyph glyph-name="scaron" unicode="&#x161;" horiz-adv-x="505" 
d="M20 102l80 62s61 -80 152 -80c50 0 81 23 81 51c0 84 -273 50 -273 226c0 100 84 157 208 157c123 0 180 -55 180 -55l-31 -87s-118 43 -148 43c-40 0 -70 -15 -70 -44c0 -81 276 -56 276 -227c0 -95 -71 -167 -221 -167c-197 0 -234 121 -234 121zM221 572l-133 85
l48 90l124 -82l125 82l48 -90l-134 -85h-78z" />
    <glyph glyph-name="Tcommaaccent" unicode="&#x162;" horiz-adv-x="535" 
d="M524 650v-122h-179v-528h-155v528h-179v122h513zM214 -52h128c7 -33 11 -65 11 -94c0 -96 -38 -167 -106 -197l-58 46c43 31 76 74 79 134h-54v111z" />
    <glyph glyph-name="tcommaaccent" unicode="&#x163;" horiz-adv-x="402" 
d="M369 500v-118h-133v-206c0 -44 16 -73 58 -73c39 0 71 8 71 8v-102s-29 -28 -118 -28c-105 0 -158 48 -158 161v240h-57v98l57 16v134l124 37h23v-167h133zM152 -52h128c7 -33 11 -65 11 -94c0 -96 -38 -167 -106 -197l-58 46c43 31 76 74 79 134h-54v111z" />
    <glyph glyph-name="Tcaron" unicode="&#x164;" horiz-adv-x="535" 
d="M524 650v-122h-179v-528h-155v528h-179v122h513zM228 707l-133 85l48 90l124 -82l125 82l48 -90l-134 -85h-78z" />
    <glyph glyph-name="tcaron" unicode="&#x165;" horiz-adv-x="402" 
d="M369 500v-118h-133v-206c0 -44 16 -73 58 -73c39 0 71 8 71 8v-102s-29 -28 -118 -28c-105 0 -158 48 -158 161v240h-57v98l57 16v134l124 37h23v-167h133zM359 785l100 1c0 -80 -22 -183 -48 -244l-90 12c18 58 26 151 26 231h12z" />
    <glyph glyph-name="Umacron" unicode="&#x16a;" horiz-adv-x="746" 
d="M373 -19c-216 0 -294 115 -294 255v414h154v-383c0 -88 37 -148 140 -148c104 0 141 60 141 148v383h154v-414c0 -140 -79 -255 -295 -255zM490 827v-78h-248v78h248z" />
    <glyph glyph-name="umacron" unicode="&#x16b;" 
d="M547 500v-500h-131l-14 50c-11 -18 -52 -69 -155 -69c-120 0 -189 61 -189 179v340h148v-312c0 -47 26 -78 91 -78c70 0 100 38 103 42v348h147zM429 692v-78h-248v78h248z" />
    <glyph glyph-name="Uring" unicode="&#x16e;" horiz-adv-x="746" 
d="M373 -19c-216 0 -294 115 -294 255v414h154v-383c0 -88 37 -148 140 -148c104 0 141 60 141 148v383h154v-414c0 -140 -79 -255 -295 -255zM485 835c0 -69 -48 -118 -119 -118c-74 0 -119 49 -119 118c0 68 50 117 119 117c67 0 119 -49 119 -117zM417 835
c0 31 -23 52 -51 52s-51 -21 -51 -52s21 -53 51 -53s51 22 51 53z" />
    <glyph glyph-name="uring" unicode="&#x16f;" 
d="M547 500v-500h-131l-14 50c-11 -18 -52 -69 -155 -69c-120 0 -189 61 -189 179v340h148v-312c0 -47 26 -78 91 -78c70 0 100 38 103 42v348h147zM424 700c0 -69 -48 -118 -119 -118c-74 0 -119 49 -119 118c0 68 50 117 119 117c67 0 119 -49 119 -117zM356 700
c0 31 -23 52 -51 52s-51 -21 -51 -52s21 -53 51 -53s51 22 51 53z" />
    <glyph glyph-name="Uhungarumlaut" unicode="&#x170;" horiz-adv-x="746" 
d="M373 -19c-216 0 -294 115 -294 255v414h154v-383c0 -88 37 -148 140 -148c104 0 141 60 141 148v383h154v-414c0 -140 -79 -255 -295 -255zM388 877l-66 -161l-107 10l84 186zM568 877l-66 -161l-107 10l83 186z" />
    <glyph glyph-name="uhungarumlaut" unicode="&#x171;" 
d="M547 500v-500h-131l-14 50c-11 -18 -52 -69 -155 -69c-120 0 -189 61 -189 179v340h148v-312c0 -47 26 -78 91 -78c70 0 100 38 103 42v348h147zM328 742l-66 -161l-107 10l84 186zM508 742l-66 -161l-107 10l83 186z" />
    <glyph glyph-name="Uogonek" unicode="&#x172;" horiz-adv-x="746" 
d="M668 236c0 -114 -53 -211 -188 -243c-29 -13 -78 -43 -78 -107c0 -47 37 -58 95 -58v-78c-106 0 -201 26 -201 133c0 41 23 74 52 99c-197 8 -269 119 -269 254v414h154v-383c0 -88 37 -148 140 -148c104 0 141 60 141 148v383h154v-414z" />
    <glyph glyph-name="uogonek" unicode="&#x173;" 
d="M547 500v-500h-4c-5 -1 -97 -29 -97 -114c0 -47 37 -58 95 -58v-78c-106 0 -201 26 -201 133c0 52 37 91 76 117l-14 50c-11 -18 -52 -69 -155 -69c-120 0 -189 61 -189 179v340h148v-312c0 -47 26 -78 91 -78c70 0 100 38 103 42v348h147z" />
    <glyph glyph-name="Ydieresis" unicode="&#x178;" horiz-adv-x="644" 
d="M319 364h1l163 286h172l-256 -414v-236h-155v236l-255 414h172zM379 847h126v-121h-126v121zM165 847h126v-121h-126v121z" />
    <glyph glyph-name="Zacute" unicode="&#x179;" horiz-adv-x="645" 
d="M599 650v-93l-355 -435h355v-122h-554v92l356 436h-356v122h554zM361 861l139 -15l-134 -140l-105 8z" />
    <glyph glyph-name="zacute" unicode="&#x17a;" horiz-adv-x="499" 
d="M469 500v-72l-242 -314h240l-1 -114h-439v79l243 307h-223v114h422zM298 726l139 -15l-134 -140l-105 8z" />
    <glyph glyph-name="Zdotaccent" unicode="&#x17b;" horiz-adv-x="645" 
d="M599 650v-93l-355 -435h355v-122h-554v92l356 436h-356v122h554zM264 847h130v-121h-130v121z" />
    <glyph glyph-name="zdotaccent" unicode="&#x17c;" horiz-adv-x="499" 
d="M469 500v-72l-242 -314h240l-1 -114h-439v79l243 307h-223v114h422zM201 712h130v-121h-130v121z" />
    <glyph glyph-name="Zcaron" unicode="&#x17d;" horiz-adv-x="645" 
d="M599 650v-93l-355 -435h355v-122h-554v92l356 436h-356v122h554zM290 707l-133 85l48 90l124 -82l125 82l48 -90l-134 -85h-78z" />
    <glyph glyph-name="zcaron" unicode="&#x17e;" horiz-adv-x="499" 
d="M469 500v-72l-242 -314h240l-1 -114h-439v79l243 307h-223v114h422zM227 572l-133 85l48 90l124 -82l125 82l48 -90l-134 -85h-78z" />
    <glyph glyph-name="longs" unicode="&#x17f;" horiz-adv-x="292" 
d="M371 718l-30 -87s-51 14 -73 14c-36 0 -55 -25 -55 -89v-556h-148v571c0 113 44 189 179 189c96 0 127 -42 127 -42z" />
    <glyph glyph-name="florin" unicode="&#x192;" horiz-adv-x="397" 
d="M93 -36v418h-57v98l57 19v72c0 113 43 189 178 189c97 0 127 -42 127 -42l-29 -87s-52 14 -74 14c-35 0 -56 -25 -56 -89v-56h153v-118h-153v-418c0 -171 -95 -233 -189 -233c-75 0 -104 27 -104 27l40 120s21 -11 48 -11c33 0 59 32 59 97z" />
    <glyph glyph-name="dotlessj" unicode="&#x237;" horiz-adv-x="286" 
d="M75 -36v536h146v-536c0 -171 -96 -233 -189 -233c-76 0 -104 27 -104 27l40 120s20 -11 47 -11c34 0 60 32 60 97z" />
    <glyph glyph-name="circumflex" unicode="&#x2c6;" horiz-adv-x="409" 
d="M242 753l134 -85l-49 -90l-124 81l-124 -81l-49 90l134 85h78z" />
    <glyph glyph-name="caron" unicode="&#x2c7;" horiz-adv-x="409" 
d="M164 572l-133 85l48 90l124 -82l125 82l48 -90l-134 -85h-78z" />
    <glyph glyph-name="breve" unicode="&#x2d8;" horiz-adv-x="438" 
d="M218 653c78 0 99 63 99 63l7 -2l88 -18s-17 -126 -194 -126c-175 0 -193 126 -193 126l89 18l6 2s21 -63 98 -63z" />
    <glyph glyph-name="dotaccent" unicode="&#x2d9;" horiz-adv-x="465" 
d="M193 712h130v-121h-130v121z" />
    <glyph glyph-name="ring" unicode="&#x2da;" horiz-adv-x="484" 
d="M290 699c0 -69 -48 -118 -119 -118c-74 0 -119 49 -119 118c0 68 50 117 119 117c67 0 119 -49 119 -117zM222 699c0 31 -23 52 -51 52s-51 -21 -51 -52s21 -53 51 -53s51 22 51 53z" />
    <glyph glyph-name="ogonek" unicode="&#x2db;" horiz-adv-x="280" 
d="M199 44l36 -44s-98 -27 -98 -114c0 -47 37 -58 95 -58v-78c-106 0 -201 26 -201 133c0 111 168 161 168 161z" />
    <glyph glyph-name="tilde" unicode="&#x2dc;" horiz-adv-x="490" 
d="M421 718l32 -72s-23 -63 -113 -63c-75 0 -120 51 -186 51c-46 0 -85 -38 -85 -38l-32 81s35 70 125 70c84 0 127 -54 187 -54c47 0 72 25 72 25z" />
    <glyph glyph-name="hungarumlaut" unicode="&#x2dd;" horiz-adv-x="481" 
d="M207 742l-66 -161l-107 10l84 186zM387 742l-66 -161l-107 10l83 186z" />
    <glyph glyph-name="tonos" unicode="&#x384;" horiz-adv-x="271" 
d="M152 782l95 -29l-86 -192l-73 20z" />
    <glyph glyph-name="dieresistonos" unicode="&#x385;" horiz-adv-x="271" 
d="M230 712h126v-121h-126v121zM-74 712h126v-121h-126v121zM137 782l95 -29l-86 -192l-73 20z" />
    <glyph glyph-name="Alphatonos" unicode="&#x386;" horiz-adv-x="717" 
d="M256 650h206l237 -650h-157l-50 133h-271l-47 -133h-155zM358 541h-1l-101 -306h201zM87 782l95 -29l-86 -192l-73 20z" />
    <glyph glyph-name="Epsilontonos" unicode="&#x388;" horiz-adv-x="693" 
d="M646 122v-122h-470v650h453v-122h-299v-142h265v-117h-265v-147h316zM64 782l95 -29l-86 -192l-73 20z" />
    <glyph glyph-name="Etatonos" unicode="&#x389;" horiz-adv-x="847" 
d="M758 650v-650h-154v267h-274v-267h-154v650h154v-266h274v266h154zM64 782l95 -29l-86 -192l-73 20z" />
    <glyph glyph-name="Iotatonos" unicode="&#x38a;" horiz-adv-x="419" 
d="M330 650v-650h-154v650h154zM64 782l95 -29l-86 -192l-73 20z" />
    <glyph glyph-name="Omicrontonos" unicode="&#x38c;" horiz-adv-x="816" 
d="M777 324c0 -204 -124 -343 -347 -343s-344 139 -344 343s121 343 344 343s347 -139 347 -343zM620 324c0 126 -68 215 -190 215s-187 -89 -187 -215s63 -214 187 -214c125 0 190 88 190 214zM64 782l95 -29l-86 -192l-73 20z" />
    <glyph glyph-name="Upsilontonos" unicode="&#x38e;" horiz-adv-x="779" 
d="M454 364h1l163 286h172l-256 -414v-236h-155v236l-255 414h172zM34 782l95 -29l-86 -192l-73 20z" />
    <glyph glyph-name="Omegatonos" unicode="&#x38f;" horiz-adv-x="813" 
d="M754 110v-110h-277v116s140 30 140 212c0 122 -66 210 -188 210s-188 -88 -188 -210c0 -173 126 -209 139 -212h1v-116h-277v110h109c-67 41 -130 113 -130 239c0 179 125 318 346 318s345 -139 345 -318c0 -126 -63 -198 -130 -239h110zM64 782l95 -29l-86 -192l-73 20z
" />
    <glyph glyph-name="iotadieresistonos" unicode="&#x390;" horiz-adv-x="277" 
d="M240 712h126v-121h-126v121zM-64 712h126v-121h-126v121zM212 500v-500h-147v500h147zM145 782l95 -29l-86 -192l-73 20z" />
    <glyph glyph-name="Alpha" unicode="&#x391;" horiz-adv-x="717" 
d="M256 650h206l237 -650h-157l-50 133h-271l-47 -133h-155zM358 541h-1l-101 -306h201z" />
    <glyph glyph-name="Beta" unicode="&#x392;" horiz-adv-x="639" 
d="M89 0v650h237c178 0 240 -88 240 -177c0 -61 -37 -103 -80 -130c73 -26 114 -78 114 -148c0 -114 -77 -195 -267 -195h-244zM354 287h-129v-171h99c89 0 128 33 128 88c0 53 -35 83 -98 83zM225 376h121c35 0 78 21 78 80c0 53 -38 80 -105 80h-94v-160z" />
    <glyph glyph-name="Gamma" unicode="&#x393;" horiz-adv-x="503" 
d="M507 528h-264v-528h-154v650h418v-122z" />
    <glyph glyph-name="Delta" unicode="&#x2206;" horiz-adv-x="717" 
d="M255 650h207l221 -531v-119h-649v119zM358 541h-2l-169 -419h339z" />
    <glyph glyph-name="Epsilon" unicode="&#x395;" horiz-adv-x="605" 
d="M559 122v-122h-470v650h453v-122h-299v-142h265v-117h-265v-147h316z" />
    <glyph glyph-name="Zeta" unicode="&#x396;" horiz-adv-x="645" 
d="M599 650v-93l-355 -435h355v-122h-554v92l356 436h-356v122h554z" />
    <glyph glyph-name="Eta" unicode="&#x397;" horiz-adv-x="760" 
d="M671 650v-650h-154v267h-274v-267h-154v650h154v-266h274v266h154z" />
    <glyph glyph-name="Theta" unicode="&#x398;" horiz-adv-x="769" 
d="M512 380v-110h-254v110h254zM730 324c0 -204 -124 -343 -347 -343s-344 139 -344 343s121 343 344 343s347 -139 347 -343zM573 324c0 126 -68 215 -190 215s-187 -89 -187 -215s63 -214 187 -214c125 0 190 88 190 214z" />
    <glyph glyph-name="Iota" unicode="&#x399;" horiz-adv-x="332" 
d="M243 650v-650h-154v650h154z" />
    <glyph glyph-name="Kappa" unicode="&#x39a;" horiz-adv-x="706" 
d="M89 0v650h154v-288l57 38l208 250h172l-260 -309l283 -341h-180l-216 256l-64 -36v-220h-154z" />
    <glyph glyph-name="Lambda" unicode="&#x39b;" horiz-adv-x="697" 
d="M246 650h206l227 -650h-157l-174 541h-1l-173 -541h-155z" />
    <glyph glyph-name="Mu" unicode="&#x39c;" horiz-adv-x="1010" 
d="M921 650v-650h-148v445h-4l-190 -445h-149l-190 445h-3v-445h-148v650h200l213 -505h5l213 505h201z" />
    <glyph glyph-name="Nu" unicode="&#x39d;" horiz-adv-x="780" 
d="M691 650v-650h-163l-308 451h-3l5 -58v-393h-133v650h161l309 -456h2l-3 45v411h133z" />
    <glyph glyph-name="Xi" unicode="&#x39e;" horiz-adv-x="645" 
d="M599 122v-122h-554v122h554zM599 650v-122h-554v122h554zM482 384v-117h-319v117h319z" />
    <glyph glyph-name="Omicron" unicode="&#x39f;" horiz-adv-x="769" 
d="M730 324c0 -204 -124 -343 -347 -343s-344 139 -344 343s121 343 344 343s347 -139 347 -343zM573 324c0 126 -68 215 -190 215s-187 -89 -187 -215s63 -214 187 -214c125 0 190 88 190 214z" />
    <glyph glyph-name="Pi" unicode="&#x3a0;" horiz-adv-x="742" 
d="M653 650v-650h-154v528h-256v-528h-154v650h564z" />
    <glyph glyph-name="Rho" unicode="&#x3a1;" horiz-adv-x="602" 
d="M89 0v650h225c167 0 265 -71 265 -220c0 -166 -139 -230 -261 -230h-86v-200h-143zM287 534h-55v-222h55c74 0 134 25 134 112c0 81 -57 110 -134 110z" />
    <glyph glyph-name="Sigma" unicode="&#x3a3;" horiz-adv-x="593" 
d="M567 122v-122h-522v92l181 236l-158 229v93h479v-122h-292l140 -201l-156 -205h328z" />
    <glyph glyph-name="Tau" unicode="&#x3a4;" horiz-adv-x="535" 
d="M524 650v-122h-179v-528h-155v528h-179v122h513z" />
    <glyph glyph-name="Upsilon" unicode="&#x3a5;" horiz-adv-x="644" 
d="M319 364h1l163 286h172l-256 -414v-236h-155v236l-255 414h172z" />
    <glyph glyph-name="Phi" unicode="&#x3a6;" horiz-adv-x="864" 
d="M501 650v-44c192 -3 324 -85 324 -277c0 -193 -132 -281 -324 -284v-45h-138v45c-193 3 -324 90 -324 283c0 192 131 275 324 278v44h138zM682 329c0 108 -58 167 -181 170v-347c123 3 181 69 181 177zM183 328c0 -108 57 -170 180 -173v346c-123 -3 -180 -65 -180 -173z
" />
    <glyph glyph-name="Chi" unicode="&#x3a7;" horiz-adv-x="708" 
d="M6 0l254 325l-249 325h176l167 -226l167 226h176l-249 -325l254 -325h-183l-165 223l-164 -223h-184z" />
    <glyph glyph-name="Psi" unicode="&#x3a8;" horiz-adv-x="857" 
d="M498 650v-351c107 2 155 62 155 158v193h154v-217c0 -148 -82 -262 -309 -264v-169h-137v169c-227 2 -311 116 -311 264v217h154v-193c0 -96 49 -156 157 -158v351h137z" />
    <glyph glyph-name="Omega" unicode="&#x2126;" horiz-adv-x="769" 
d="M710 110v-110h-277v116s140 30 140 212c0 122 -66 210 -188 210s-188 -88 -188 -210c0 -173 126 -209 139 -212h1v-116h-277v110h109c-67 41 -130 113 -130 239c0 179 125 318 346 318s345 -139 345 -318c0 -126 -63 -198 -130 -239h110z" />
    <glyph glyph-name="Iotadieresis" unicode="&#x3aa;" horiz-adv-x="332" 
d="M243 650v-650h-154v650h154zM210 862h126v-121h-126v121zM-4 862h126v-121h-126v121z" />
    <glyph glyph-name="Upsilondieresis" unicode="&#x3ab;" horiz-adv-x="644" 
d="M319 364h1l163 286h172l-256 -414v-236h-155v236l-255 414h172zM379 847h126v-121h-126v121zM165 847h126v-121h-126v121z" />
    <glyph glyph-name="alphatonos" unicode="&#x3ac;" horiz-adv-x="623" 
d="M559 500v-500h-130l-15 56c-11 -22 -48 -75 -149 -75c-140 0 -234 106 -234 258c0 163 88 279 245 279c78 0 122 -40 139 -60l13 42h131zM309 91c85 0 103 76 103 76v179c-1 3 -19 61 -97 61c-95 0 -133 -56 -133 -164s39 -152 127 -152zM325 782l95 -29l-86 -192l-73 20
z" />
    <glyph glyph-name="epsilontonos" unicode="&#x3ad;" horiz-adv-x="506" 
d="M448 469l-35 -86s-97 35 -133 35c-54 0 -86 -22 -86 -58c0 -51 69 -56 69 -56h90v-97h-86c-56 0 -89 -19 -89 -55c0 -41 34 -65 99 -65c96 0 134 53 134 53l79 -50s-34 -109 -224 -109c-147 0 -232 57 -232 156c0 70 51 111 90 126c-38 21 -69 54 -69 106
c0 92 75 149 213 149c123 0 180 -49 180 -49zM262 782l95 -29l-86 -192l-73 20z" />
    <glyph glyph-name="etatonos" unicode="&#x3ae;" 
d="M318 782l95 -29l-86 -192l-73 20zM65 0v500h130l15 -51c11 17 51 69 155 69c120 0 188 -61 188 -179v-589h-147v562c0 46 -26 77 -91 77c-71 0 -100 -39 -103 -43v-346h-147z" />
    <glyph glyph-name="iotatonos" unicode="&#x3af;" horiz-adv-x="277" 
d="M212 500v-500h-147v500h147zM158 782l95 -29l-86 -192l-73 20z" />
    <glyph glyph-name="upsilondieresistonos" unicode="&#x3b0;" horiz-adv-x="606" 
d="M405 712h126v-121h-126v121zM101 712h125v-121h-125v121zM58 500h148v-313c0 -49 32 -85 97 -85s98 36 98 85v313h147v-325c0 -118 -76 -194 -245 -194c-170 0 -245 76 -245 194v325zM317 782l95 -29l-86 -192l-73 20z" />
    <glyph glyph-name="alpha" unicode="&#x3b1;" horiz-adv-x="623" 
d="M559 500v-500h-130l-15 56c-11 -22 -48 -75 -149 -75c-140 0 -234 106 -234 258c0 163 88 279 245 279c78 0 122 -40 139 -60l13 42h131zM309 91c85 0 103 76 103 76v179c-1 3 -19 61 -97 61c-95 0 -133 -56 -133 -164s39 -152 127 -152z" />
    <glyph glyph-name="beta" unicode="&#x3b2;" horiz-adv-x="624" 
d="M215 42h-3v-292h-147v774c0 169 96 236 244 236c141 0 230 -81 230 -189c0 -85 -54 -129 -104 -151c95 -24 158 -80 158 -196c0 -138 -94 -243 -234 -243c-111 0 -144 61 -144 61zM212 509v-361c5 -9 31 -54 95 -54c85 0 135 60 135 139c0 84 -41 123 -152 123v108
s104 15 104 102c0 48 -25 78 -85 78c-74 0 -97 -37 -97 -135z" />
    <glyph glyph-name="gamma" unicode="&#x3b3;" horiz-adv-x="554" 
d="M385 500h162l-196 -500v-250h-148v250l-196 500h163l105 -374h5z" />
    <glyph glyph-name="delta" unicode="&#x3b4;" horiz-adv-x="605" 
d="M574 250c0 -166 -104 -269 -272 -269c-176 0 -271 103 -271 269c0 108 40 188 116 232c-30 27 -51 65 -51 119c0 101 103 159 220 159c126 0 189 -55 189 -55l-39 -101s-111 37 -143 37c-53 0 -94 -14 -94 -60c0 -42 26 -59 60 -63h13c176 0 272 -102 272 -268zM302 407
c-88 0 -120 -62 -120 -156c0 -96 32 -160 120 -160s121 64 121 159c0 94 -33 157 -121 157z" />
    <glyph glyph-name="epsilon" unicode="&#x3b5;" horiz-adv-x="506" 
d="M448 469l-35 -86s-97 35 -133 35c-54 0 -86 -22 -86 -58c0 -51 69 -56 69 -56h90v-97h-86c-56 0 -89 -19 -89 -55c0 -41 34 -65 99 -65c96 0 134 53 134 53l79 -50s-34 -109 -224 -109c-147 0 -232 57 -232 156c0 70 51 111 90 126c-38 21 -69 54 -69 106
c0 92 75 149 213 149c123 0 180 -49 180 -49z" />
    <glyph glyph-name="zeta" unicode="&#x3b6;" horiz-adv-x="488" 
d="M349 -164c0 0 22 78 22 122c0 29 -12 42 -72 42c-128 0 -252 37 -252 205c0 144 136 309 264 431h-270v114h445v-72c-131 -148 -288 -326 -288 -468c0 -77 91 -99 170 -99c86 0 130 -37 130 -103c0 -95 -45 -186 -45 -186z" />
    <glyph glyph-name="eta" unicode="&#x3b7;" 
d="M65 0v500h130l15 -51c11 17 51 69 155 69c120 0 188 -61 188 -179v-589h-147v562c0 46 -26 77 -91 77c-71 0 -100 -39 -103 -43v-346h-147z" />
    <glyph glyph-name="theta" unicode="&#x3b8;" horiz-adv-x="621" 
d="M310 760c182 0 271 -134 271 -391c0 -256 -89 -388 -271 -388c-181 0 -271 132 -271 388c0 257 90 391 271 391zM310 90c86 0 115 67 120 229h-239c4 -162 33 -229 119 -229zM310 651c-85 0 -114 -67 -119 -224h239c-5 157 -35 224 -120 224z" />
    <glyph glyph-name="iota" unicode="&#x3b9;" horiz-adv-x="277" 
d="M212 500v-500h-147v500h147z" />
    <glyph glyph-name="kappa" unicode="&#x3ba;" horiz-adv-x="557" 
d="M65 0v500h147v-194l51 36l108 158h169l-168 -221l183 -279h-176l-133 212l-34 -13v-199h-147z" />
    <glyph glyph-name="lambda" unicode="&#x3bb;" horiz-adv-x="577" 
d="M98 633l1 105s22 22 90 22c89 0 137 -67 198 -238l187 -522h-159l-103 352h-4l-140 -352h-165l243 497c-29 101 -48 147 -96 147c-31 0 -52 -11 -52 -11z" />
    <glyph glyph-name="uni03bc" unicode="&#x3bc;" horiz-adv-x="618" 
d="M553 500v-500h-131l-14 50c-11 -18 -52 -69 -155 -69c-19 0 -36 2 -52 5l3 -236h-147l7 466v284h148v-312c0 -47 26 -78 91 -78c70 0 100 38 103 42v348h147z" />
    <glyph glyph-name="nu" unicode="&#x3bd;" horiz-adv-x="554" 
d="M196 0l-189 500h163l105 -366h5l105 366h162l-188 -500h-163z" />
    <glyph glyph-name="xi" unicode="&#x3be;" horiz-adv-x="509" 
d="M424 456v-108h-71c-123 -3 -171 -34 -171 -120c0 -97 89 -117 208 -117c73 0 122 -37 122 -103c0 -95 -45 -186 -45 -186l-104 14s22 78 22 122c0 29 -12 42 -61 42c-115 0 -293 31 -293 219c0 105 53 163 144 192c-50 23 -97 69 -97 160c0 126 100 189 234 189
c116 0 163 -51 163 -51l-38 -92s-79 29 -114 29c-64 0 -101 -30 -101 -89c0 -84 100 -101 151 -101h51z" />
    <glyph glyph-name="omicron" unicode="&#x3bf;" horiz-adv-x="605" 
d="M574 250c0 -166 -104 -269 -272 -269c-176 0 -271 103 -271 269s95 268 271 268s272 -102 272 -268zM302 407c-88 0 -120 -62 -120 -156c0 -96 32 -160 120 -160s121 64 121 159c0 94 -33 157 -121 157z" />
    <glyph glyph-name="pi" unicode="&#x3c0;" horiz-adv-x="608" 
d="M543 500v-500h-147v382h-184v-382h-147v500h478z" />
    <glyph glyph-name="rho" unicode="&#x3c1;" horiz-adv-x="617" 
d="M58 -250v528c0 144 89 241 256 241c188 0 272 -106 272 -258c0 -164 -88 -279 -234 -279c-107 0 -144 61 -144 61h-3v-293h-147zM205 291v-143c3 -9 25 -57 97 -57c95 0 133 65 133 166s-36 150 -124 150c-74 0 -106 -54 -106 -116z" />
    <glyph glyph-name="sigma1" unicode="&#x3c2;" horiz-adv-x="515" 
d="M489 449l-45 -91s-90 49 -125 49c-92 0 -136 -47 -136 -158c0 -114 49 -138 179 -138c67 0 116 -37 116 -103c0 -95 -45 -186 -45 -186l-104 14s22 78 22 122c0 29 -12 42 -56 42c-177 0 -264 78 -264 247c0 162 91 271 268 271c134 0 190 -69 190 -69z" />
    <glyph glyph-name="sigma" unicode="&#x3c3;" horiz-adv-x="623" 
d="M566 222c0 -138 -96 -241 -264 -241c-176 0 -271 103 -271 269s95 268 271 268c127 0 240 -18 313 -18v-118c-38 0 -76 5 -114 13c38 -50 65 -111 65 -173zM302 407c-88 0 -120 -62 -120 -156c0 -96 32 -160 120 -160s121 64 121 159c0 119 -33 157 -121 157z" />
    <glyph glyph-name="tau" unicode="&#x3c4;" horiz-adv-x="424" 
d="M409 500v-118h-165v-206c0 -44 15 -73 57 -73c39 0 72 8 72 8v-102s-30 -28 -118 -28c-105 0 -158 48 -158 161v240h-78v98l77 20h313z" />
    <glyph glyph-name="upsilon" unicode="&#x3c5;" horiz-adv-x="606" 
d="M58 500h148v-313c0 -49 32 -85 97 -85s98 36 98 85v313h147v-325c0 -118 -76 -194 -245 -194c-170 0 -245 76 -245 194v325z" />
    <glyph glyph-name="phi" unicode="&#x3c6;" horiz-adv-x="743" 
d="M441 650v-132c169 -3 271 -103 271 -268c0 -166 -102 -266 -271 -269v-231h-139v231c-169 3 -271 102 -271 268s102 266 271 269v132h139zM167 249c0 -109 46 -158 135 -163v326c-89 -5 -135 -54 -135 -163zM576 250c0 109 -47 157 -135 162v-325c88 5 135 54 135 163z
" />
    <glyph glyph-name="chi" unicode="&#x3c7;" horiz-adv-x="570" 
d="M561 500l-176 -376l179 -374h-172l-105 307h-4l-104 -307h-173l180 374l-177 376h171l103 -298h4l103 298h171z" />
    <glyph glyph-name="psi" unicode="&#x3c8;" horiz-adv-x="770" 
d="M578 500h139v-315c0 -128 -112 -203 -262 -204v-231h-140v231c-151 1 -263 76 -263 204v315h140v-303c0 -66 49 -109 123 -110v563h140v-563c74 1 123 44 123 110v303z" />
    <glyph glyph-name="omega" unicode="&#x3c9;" horiz-adv-x="826" 
d="M483 373v-190c0 -37 12 -73 71 -73c55 0 86 34 86 137c0 149 -57 230 -57 230l124 38s73 -76 73 -264c0 -191 -71 -270 -217 -270c-75 0 -121 34 -150 76c-28 -42 -76 -76 -150 -76c-146 0 -217 79 -217 270c0 188 73 264 73 264l125 -38s-58 -81 -58 -230
c0 -103 31 -137 86 -137c59 0 71 36 71 73v190h140z" />
    <glyph glyph-name="iotadieresis" unicode="&#x3ca;" horiz-adv-x="277" 
d="M212 500v-500h-147v500h147zM182 712h126v-121h-126v121zM-32 712h126v-121h-126v121z" />
    <glyph glyph-name="upsilondieresis" unicode="&#x3cb;" horiz-adv-x="606" 
d="M58 500h148v-313c0 -49 32 -85 97 -85s98 36 98 85v313h147v-325c0 -118 -76 -194 -245 -194c-170 0 -245 76 -245 194v325zM347 712h126v-121h-126v121zM133 712h126v-121h-126v121z" />
    <glyph glyph-name="omicrontonos" unicode="&#x3cc;" horiz-adv-x="605" 
d="M574 250c0 -166 -104 -269 -272 -269c-176 0 -271 103 -271 269s95 268 271 268s272 -102 272 -268zM302 407c-88 0 -120 -62 -120 -156c0 -96 32 -160 120 -160s121 64 121 159c0 94 -33 157 -121 157zM316 782l95 -29l-86 -192l-73 20z" />
    <glyph glyph-name="upsilontonos" unicode="&#x3cd;" horiz-adv-x="606" 
d="M58 500h148v-313c0 -49 32 -85 97 -85s98 36 98 85v313h147v-325c0 -118 -76 -194 -245 -194c-170 0 -245 76 -245 194v325zM317 782l95 -29l-86 -192l-73 20z" />
    <glyph glyph-name="omegatonos" unicode="&#x3ce;" horiz-adv-x="826" 
d="M483 373v-190c0 -37 12 -73 71 -73c55 0 86 34 86 137c0 149 -57 230 -57 230l124 38s73 -76 73 -264c0 -191 -71 -270 -217 -270c-75 0 -121 34 -150 76c-28 -42 -76 -76 -150 -76c-146 0 -217 79 -217 270c0 188 73 264 73 264l125 -38s-58 -81 -58 -230
c0 -103 31 -137 86 -137c59 0 71 36 71 73v190h140zM427 782l95 -29l-86 -192l-73 20z" />
    <glyph glyph-name="uni0400" unicode="&#x400;" horiz-adv-x="605" 
d="M559 122v-122h-470v650h453v-122h-299v-142h265v-117h-265v-147h316zM146 846l139 15l99 -147l-105 -8z" />
    <glyph glyph-name="afii10023" unicode="&#x401;" horiz-adv-x="605" 
d="M559 122v-122h-470v650h453v-122h-299v-142h265v-117h-265v-147h316zM363 847h126v-121h-126v121zM149 847h126v-121h-126v121z" />
    <glyph glyph-name="afii10051" unicode="&#x402;" horiz-adv-x="766" 
d="M524 650v-118h-179v-172h2s56 55 179 55c144 0 195 -67 195 -176v-32c0 -171 -71 -226 -194 -226c-89 0 -116 33 -116 33l17 104s36 -23 75 -23c33 0 64 17 64 82v27c0 62 -26 80 -99 80c-68 0 -114 -29 -123 -35v-249h-155v532h-179v118h513z" />
    <glyph glyph-name="afii10052" unicode="&#x403;" horiz-adv-x="503" 
d="M507 528h-264v-528h-154v650h418v-122zM313 861l139 -15l-134 -140l-105 8z" />
    <glyph glyph-name="afii10053" unicode="&#x404;" horiz-adv-x="678" 
d="M523 385v-117h-319c17 -97 82 -158 187 -158c132 0 214 93 214 93l61 -79s-71 -143 -282 -143c-232 0 -345 138 -345 341s121 345 347 345c183 0 246 -102 246 -102l-50 -91s-135 65 -186 65c-115 0 -174 -60 -191 -154h318z" />
    <glyph glyph-name="afii10054" unicode="&#x405;" horiz-adv-x="591" 
d="M524 593l-48 -102s-115 61 -157 61c-67 0 -101 -28 -101 -76c0 -116 334 -78 334 -284c0 -134 -94 -211 -256 -211c-189 0 -257 105 -257 105l76 100s76 -80 189 -80c67 0 97 29 97 73c0 108 -334 64 -334 287c0 117 96 201 245 201c155 0 212 -74 212 -74z" />
    <glyph glyph-name="afii10055" unicode="&#x406;" horiz-adv-x="332" 
d="M243 650v-650h-154v650h154z" />
    <glyph glyph-name="afii10056" unicode="&#x407;" horiz-adv-x="332" 
d="M243 650v-650h-154v650h154zM210 847h126v-121h-126v121zM-4 847h126v-121h-126v121z" />
    <glyph glyph-name="afii10057" unicode="&#x408;" horiz-adv-x="469" 
d="M80 144c0 0 30 -42 82 -42c43 0 74 25 74 105v443h154v-443c0 -171 -71 -226 -212 -226c-131 0 -177 102 -177 102z" />
    <glyph glyph-name="afii10058" unicode="&#x409;" horiz-adv-x="1046" 
d="M496 0v528h-169c-2 -394 -84 -546 -221 -546c-55 0 -80 18 -80 18l8 125s11 -6 36 -6c90 0 118 112 118 531h462v-254h70c191 0 287 -56 287 -187c0 -130 -86 -209 -286 -209h-225zM713 292h-63v-178h64c100 0 145 27 145 91c0 65 -53 87 -146 87z" />
    <glyph glyph-name="afii10059" unicode="&#x40a;" horiz-adv-x="1067" 
d="M517 0v267h-274v-267h-154v650h154v-266h274v266h154v-254h70c191 0 287 -56 287 -187c0 -130 -86 -209 -286 -209h-225zM734 292h-63v-178h64c100 0 145 27 145 91c0 65 -53 87 -146 87z" />
    <glyph glyph-name="afii10060" unicode="&#x40b;" horiz-adv-x="800" 
d="M524 650v-118h-179v-172h2s56 55 179 55c144 0 195 -67 195 -176v-239h-154v204c0 62 -26 80 -99 80c-68 0 -114 -29 -123 -35v-249h-155v532h-179v118h513z" />
    <glyph glyph-name="afii10061" unicode="&#x40c;" horiz-adv-x="706" 
d="M89 0v650h154v-288l57 38l208 250h172l-260 -309l283 -341h-180l-216 256l-64 -36v-220h-154zM365 861l139 -15l-134 -140l-105 8z" />
    <glyph glyph-name="uni040D" unicode="&#x40d;" horiz-adv-x="768" 
d="M679 650v-650h-146v362l4 64h-2l-296 -408l-8 -18h-142v650h146v-368l-5 -58h3l297 408l8 18h141zM224 846l139 15l99 -147l-105 -8z" />
    <glyph glyph-name="afii10062" unicode="&#x40e;" horiz-adv-x="666" 
d="M363 300h3l136 350h164l-217 -475c-74 -160 -155 -193 -244 -193c-70 0 -94 18 -94 18v112s29 -8 73 -8c40 0 69 16 100 59l-284 487h172zM352 788c78 0 99 63 99 63l7 -2l88 -18s-17 -126 -194 -126c-175 0 -193 126 -193 126l89 18l6 2s21 -63 98 -63z" />
    <glyph glyph-name="afii10145" unicode="&#x40f;" horiz-adv-x="742" 
d="M243 650v-528h256v528h154v-650h-213l-11 -204h-115l-11 204h-214v650h154z" />
    <glyph glyph-name="afii10017" unicode="&#x410;" horiz-adv-x="717" 
d="M256 650h206l237 -650h-157l-50 133h-271l-47 -133h-155zM358 541h-1l-101 -306h201z" />
    <glyph glyph-name="afii10018" unicode="&#x411;" horiz-adv-x="639" 
d="M513 650v-122h-270v-132h70c191 0 287 -56 287 -187c0 -130 -86 -209 -286 -209h-225v650h424zM306 292h-63v-178h64c100 0 145 27 145 91c0 65 -53 87 -146 87z" />
    <glyph glyph-name="afii10019" unicode="&#x412;" horiz-adv-x="639" 
d="M89 0v650h237c178 0 240 -88 240 -177c0 -61 -37 -103 -80 -130c73 -26 114 -78 114 -148c0 -114 -77 -195 -267 -195h-244zM354 287h-129v-171h99c89 0 128 33 128 88c0 53 -35 83 -98 83zM225 376h121c35 0 78 21 78 80c0 53 -38 80 -105 80h-94v-160z" />
    <glyph glyph-name="afii10020" unicode="&#x413;" horiz-adv-x="503" 
d="M507 528h-264v-528h-154v650h418v-122z" />
    <glyph glyph-name="afii10021" unicode="&#x414;" horiz-adv-x="767" 
d="M180 650h460v-528h84l-15 -276h-116l-6 154h-418l-7 -154h-107l-15 276h66c48 102 74 233 74 528zM489 528h-176c-6 -206 -28 -319 -65 -406h241v406z" />
    <glyph glyph-name="afii10022" unicode="&#x415;" horiz-adv-x="605" 
d="M559 122v-122h-470v650h453v-122h-299v-142h265v-117h-265v-147h316z" />
    <glyph glyph-name="afii10024" unicode="&#x416;" horiz-adv-x="1026" 
d="M563 650v-247h45l200 247h179l-255 -294l277 -356h-180l-209 281h-57v-281h-145v281h-56l-189 -281h-179l254 329l-243 321h179l176 -248h58v248h145z" />
    <glyph glyph-name="afii10025" unicode="&#x417;" horiz-adv-x="583" 
d="M92 488l-53 90s70 89 240 89c169 0 247 -75 247 -185c0 -68 -42 -114 -90 -144c66 -26 109 -75 109 -151c0 -124 -102 -206 -287 -206c-213 0 -253 119 -253 119l79 86s53 -79 164 -79c85 0 136 29 136 87c0 57 -45 81 -115 81h-117v108h126c40 1 98 25 98 82
c0 50 -39 85 -119 85c-106 0 -165 -62 -165 -62z" />
    <glyph glyph-name="afii10026" unicode="&#x418;" horiz-adv-x="768" 
d="M679 650v-650h-146v362l4 64h-2l-296 -408l-8 -18h-142v650h146v-368l-5 -58h3l297 408l8 18h141z" />
    <glyph glyph-name="afii10027" unicode="&#x419;" horiz-adv-x="768" 
d="M679 650v-650h-146v362l4 64h-2l-296 -408l-8 -18h-142v650h146v-368l-5 -58h3l297 408l8 18h141zM397 788c78 0 99 63 99 63l7 -2l88 -18s-17 -126 -194 -126c-175 0 -193 126 -193 126l89 18l6 2s21 -63 98 -63z" />
    <glyph glyph-name="afii10028" unicode="&#x41a;" horiz-adv-x="706" 
d="M89 0v650h154v-288l57 38l208 250h172l-260 -309l283 -341h-180l-216 256l-64 -36v-220h-154z" />
    <glyph glyph-name="afii10029" unicode="&#x41b;" horiz-adv-x="739" 
d="M188 650h462v-650h-154v528h-169c-2 -394 -84 -546 -221 -546c-55 0 -80 18 -80 18l8 125s11 -6 36 -6c90 0 118 112 118 531z" />
    <glyph glyph-name="afii10030" unicode="&#x41c;" horiz-adv-x="1010" 
d="M921 650v-650h-148v445h-4l-190 -445h-149l-190 445h-3v-445h-148v650h200l213 -505h5l213 505h201z" />
    <glyph glyph-name="afii10031" unicode="&#x41d;" horiz-adv-x="760" 
d="M671 650v-650h-154v267h-274v-267h-154v650h154v-266h274v266h154z" />
    <glyph glyph-name="afii10032" unicode="&#x41e;" horiz-adv-x="769" 
d="M730 324c0 -204 -124 -343 -347 -343s-344 139 -344 343s121 343 344 343s347 -139 347 -343zM573 324c0 126 -68 215 -190 215s-187 -89 -187 -215s63 -214 187 -214c125 0 190 88 190 214z" />
    <glyph glyph-name="afii10033" unicode="&#x41f;" horiz-adv-x="742" 
d="M653 650v-650h-154v528h-256v-528h-154v650h564z" />
    <glyph glyph-name="afii10034" unicode="&#x420;" horiz-adv-x="602" 
d="M89 0v650h225c167 0 265 -71 265 -220c0 -166 -139 -230 -261 -230h-86v-200h-143zM287 534h-55v-222h55c74 0 134 25 134 112c0 81 -57 110 -134 110z" />
    <glyph glyph-name="afii10035" unicode="&#x421;" horiz-adv-x="672" 
d="M632 565l-58 -98s-127 72 -178 72c-139 0 -200 -87 -200 -217c0 -128 72 -212 195 -212c132 0 214 93 214 93l61 -79s-71 -143 -282 -143c-232 0 -345 138 -345 341s121 345 347 345c183 0 246 -102 246 -102z" />
    <glyph glyph-name="afii10036" unicode="&#x422;" horiz-adv-x="535" 
d="M524 650v-122h-179v-528h-155v528h-179v122h513z" />
    <glyph glyph-name="afii10037" unicode="&#x423;" horiz-adv-x="666" 
d="M363 300h3l136 350h164l-217 -475c-74 -160 -155 -193 -244 -193c-70 0 -94 18 -94 18v112s29 -8 73 -8c40 0 69 16 100 59l-284 487h172z" />
    <glyph glyph-name="afii10038" unicode="&#x424;" horiz-adv-x="864" 
d="M501 650v-44c192 -3 324 -85 324 -277c0 -193 -132 -281 -324 -284v-45h-138v45c-193 3 -324 90 -324 283c0 192 131 275 324 278v44h138zM682 329c0 108 -58 167 -181 170v-347c123 3 181 69 181 177zM183 328c0 -108 57 -170 180 -173v346c-123 -3 -180 -65 -180 -173z
" />
    <glyph glyph-name="afii10039" unicode="&#x425;" horiz-adv-x="708" 
d="M6 0l254 325l-249 325h176l167 -226l167 226h176l-249 -325l254 -325h-183l-165 223l-164 -223h-184z" />
    <glyph glyph-name="afii10040" unicode="&#x426;" horiz-adv-x="781" 
d="M243 650v-528h256v528h154v-528h84l-15 -276h-115l-6 154h-512v650h154z" />
    <glyph glyph-name="afii10041" unicode="&#x427;" horiz-adv-x="687" 
d="M598 650v-650h-154v238h-1s-54 -45 -177 -45c-146 0 -198 86 -198 195v262h154v-234c0 -67 31 -93 101 -93c62 0 109 20 121 25v302h154z" />
    <glyph glyph-name="afii10042" unicode="&#x428;" horiz-adv-x="1013" 
d="M584 650v-528h186v528h154v-650h-835v650h154v-528h186v528h155z" />
    <glyph glyph-name="afii10043" unicode="&#x429;" horiz-adv-x="1052" 
d="M924 650v-528h84l-15 -276h-115l-7 154h-782v650h154v-528h186v528h155v-528h186v528h154z" />
    <glyph glyph-name="afii10044" unicode="&#x42a;" horiz-adv-x="741" 
d="M191 0v528h-180v122h334v-254h70c191 0 287 -56 287 -187c0 -130 -86 -209 -286 -209h-225zM408 292h-63v-178h64c100 0 145 27 145 91c0 65 -53 87 -146 87z" />
    <glyph glyph-name="afii10045" unicode="&#x42b;" horiz-adv-x="954" 
d="M89 0v650h154v-254h70c191 0 287 -56 287 -187c0 -130 -86 -209 -286 -209h-225zM306 292h-63v-178h64c100 0 145 27 145 91c0 65 -53 87 -146 87zM866 650v-650h-154v650h154z" />
    <glyph glyph-name="afii10046" unicode="&#x42c;" horiz-adv-x="639" 
d="M89 0v650h154v-254h70c191 0 287 -56 287 -187c0 -130 -86 -209 -286 -209h-225zM306 292h-63v-178h64c100 0 145 27 145 91c0 65 -53 87 -146 87z" />
    <glyph glyph-name="afii10047" unicode="&#x42d;" horiz-adv-x="654" 
d="M86 489l-50 91s68 87 243 87c235 0 336 -142 336 -345s-114 -341 -338 -341c-211 0 -270 118 -270 118l69 86s63 -74 187 -74c105 0 171 50 187 156h-335v117h336c-12 104 -59 159 -194 159c-114 0 -171 -54 -171 -54z" />
    <glyph glyph-name="afii10048" unicode="&#x42e;" horiz-adv-x="1073" 
d="M1034 324c0 -204 -124 -343 -347 -343c-202 0 -313 113 -333 286h-111v-267h-154v650h154v-266h111c21 170 132 283 333 283c223 0 347 -139 347 -343zM877 324c0 126 -68 215 -190 215s-187 -89 -187 -215s63 -214 187 -214c125 0 190 88 190 214z" />
    <glyph glyph-name="afii10049" unicode="&#x42f;" horiz-adv-x="656" 
d="M567 650v-650h-143v232h-101l-131 -232h-151l148 247c-75 26 -133 85 -133 182c0 135 102 221 240 221h271zM202 437c0 -59 44 -96 106 -96h116v192h-118c-58 0 -104 -37 -104 -96z" />
    <glyph glyph-name="afii10065" unicode="&#x430;" horiz-adv-x="560" 
d="M379 0l-21 62c-10 -24 -42 -81 -145 -81c-115 0 -184 59 -184 145c0 141 205 184 326 192v2c0 64 -36 86 -97 86c-76 0 -110 -48 -110 -48l-83 68s45 92 208 92c146 0 228 -56 228 -195v-323h-122zM257 86c84 0 98 66 98 66v79c-104 -9 -182 -29 -182 -82
c0 -42 31 -63 84 -63z" />
    <glyph glyph-name="afii10066" unicode="&#x431;" horiz-adv-x="617" 
d="M404 612c-195 -17 -262 -82 -262 -208c0 -6 1 -13 1 -20h8c13 51 62 134 193 134c154 0 242 -102 242 -268s-104 -269 -272 -269c-190 0 -274 109 -274 305c0 206 30 422 315 456l164 19l13 -138zM314 407c-87 0 -120 -59 -120 -156c0 -103 33 -160 120 -160
c88 0 121 56 121 159c0 102 -33 157 -121 157z" />
    <glyph glyph-name="afii10067" unicode="&#x432;" horiz-adv-x="565" 
d="M288 500c166 0 218 -55 218 -128c0 -75 -62 -107 -110 -120v-2c41 0 135 -20 135 -107c0 -93 -67 -143 -244 -143h-222v500h223zM292 215h-88v-112h83c78 0 96 20 96 59c0 34 -23 53 -91 53zM204 291h103c8 1 55 9 55 54c0 33 -17 52 -80 52h-78v-106z" />
    <glyph glyph-name="afii10068" unicode="&#x433;" horiz-adv-x="407" 
d="M402 382h-190v-382h-147v500h337v-118z" />
    <glyph glyph-name="afii10069" unicode="&#x434;" horiz-adv-x="655" 
d="M634 114l-16 -247h-116l-7 133h-358l-14 -133h-101l-8 247h70c49 107 60 217 60 386h407v-386h83zM264 386c-5 -104 -18 -186 -52 -272h202v272h-150z" />
    <glyph glyph-name="afii10070" unicode="&#x435;" horiz-adv-x="547" 
d="M434 144l83 -52s-53 -111 -220 -111c-160 0 -266 81 -266 260c0 177 103 277 258 277c149 0 229 -93 229 -238c0 -53 -13 -80 -13 -80h-337c2 -70 50 -110 137 -110c84 0 129 54 129 54zM289 413c-79 0 -117 -48 -121 -118h231v7c0 63 -34 111 -110 111z" />
    <glyph glyph-name="afii10072" unicode="&#x436;" horiz-adv-x="813" 
d="M478 500v-195h50l103 195h169l-155 -241l155 -259h-169l-105 210h-48v-210h-143v210h-51l-103 -210h-167l153 259l-150 241h167l99 -195h52v195h143z" />
    <glyph glyph-name="afii10073" unicode="&#x437;" horiz-adv-x="496" 
d="M113 366l-73 63s37 89 199 89c127 0 202 -57 202 -143c0 -54 -31 -88 -68 -110c37 -13 89 -53 89 -119c0 -108 -87 -165 -236 -165c-174 0 -211 94 -211 94l70 69s40 -57 131 -57c71 0 98 24 98 65c0 36 -29 55 -85 55h-86v97h90c21 0 65 10 65 56c0 36 -28 53 -86 53
c-72 0 -99 -47 -99 -47z" />
    <glyph glyph-name="afii10074" unicode="&#x438;" horiz-adv-x="629" 
d="M65 0v500h147v-296l211 254l12 42h130v-500h-148v281l-213 -252l-10 -29h-129z" />
    <glyph glyph-name="afii10075" unicode="&#x439;" horiz-adv-x="629" 
d="M65 0v500h147v-296l211 254l12 42h130v-500h-148v281l-213 -252l-10 -29h-129zM326 653c78 0 99 63 99 63l7 -2l88 -18s-17 -126 -194 -126c-175 0 -193 126 -193 126l89 18l6 2s21 -63 98 -63z" />
    <glyph glyph-name="afii10076" unicode="&#x43a;" horiz-adv-x="557" 
d="M65 0v500h147v-194l51 36l108 158h169l-168 -221l183 -279h-176l-133 212l-34 -13v-199h-147z" />
    <glyph glyph-name="afii10077" unicode="&#x43b;" horiz-adv-x="588" 
d="M523 500v-500h-148v382h-127c0 -245 -38 -400 -187 -400c-13 0 -27 2 -42 4v115c5 -1 10 -1 15 -1c67 0 87 104 87 400h402z" />
    <glyph glyph-name="afii10078" unicode="&#x43c;" horiz-adv-x="786" 
d="M721 500v-500h-131v235l6 128h-4l-128 -363h-143l-129 361h-3l6 -127v-234h-130v500h182l145 -412h2l141 412h186z" />
    <glyph glyph-name="afii10079" unicode="&#x43d;" horiz-adv-x="616" 
d="M65 0v500h147v-188h193v188h147v-500h-147v201h-193v-201h-147z" />
    <glyph glyph-name="afii10080" unicode="&#x43e;" horiz-adv-x="605" 
d="M574 250c0 -166 -104 -269 -272 -269c-176 0 -271 103 -271 269s95 268 271 268s272 -102 272 -268zM302 407c-88 0 -120 -62 -120 -156c0 -96 32 -160 120 -160s121 64 121 159c0 94 -33 157 -121 157z" />
    <glyph glyph-name="afii10081" unicode="&#x43f;" horiz-adv-x="608" 
d="M543 500v-500h-147v382h-184v-382h-147v500h478z" />
    <glyph glyph-name="afii10082" unicode="&#x440;" horiz-adv-x="623" 
d="M65 -250v750h130l14 -57c12 21 54 75 157 75c140 0 226 -106 226 -258c0 -163 -88 -279 -234 -279c-107 0 -143 61 -143 61h-4v-292h-146zM314 403c-81 0 -101 -64 -103 -71v-184c4 -9 26 -53 97 -53c95 0 133 53 133 162c0 108 -39 146 -127 146z" />
    <glyph glyph-name="afii10083" unicode="&#x441;" horiz-adv-x="515" 
d="M431 152l76 -54s-39 -117 -212 -117c-177 0 -264 97 -264 266c0 162 91 271 268 271c134 0 190 -69 190 -69l-45 -91s-90 49 -125 49c-92 0 -136 -47 -136 -158c0 -114 51 -158 126 -158c71 0 122 61 122 61z" />
    <glyph glyph-name="afii10084" unicode="&#x442;" horiz-adv-x="445" 
d="M434 382h-138v-382h-147v382h-138v118h423v-118z" />
    <glyph glyph-name="afii10085" unicode="&#x443;" horiz-adv-x="567" 
d="M47 -122c0 0 29 -16 60 -16c50 0 83 41 121 142l-221 496h162l131 -352h4l94 352h162l-195 -523c-64 -171 -138 -246 -238 -246c-65 0 -105 27 -105 27z" />
    <glyph glyph-name="afii10086" unicode="&#x444;" horiz-adv-x="743" 
d="M441 650v-132c169 -3 271 -103 271 -268c0 -166 -102 -266 -271 -269v-231h-139v231c-169 3 -271 102 -271 268s102 266 271 269v132h139zM167 249c0 -109 46 -158 135 -163v326c-89 -5 -135 -54 -135 -163zM576 250c0 109 -47 157 -135 162v-325c88 5 135 54 135 163z
" />
    <glyph glyph-name="afii10087" unicode="&#x445;" horiz-adv-x="570" 
d="M561 500l-182 -249l185 -251h-172l-105 182h-4l-104 -182h-173l184 251l-181 249h171l103 -173h4l103 173h171z" />
    <glyph glyph-name="afii10088" unicode="&#x446;" horiz-adv-x="648" 
d="M212 500v-382h184v382h147v-382h74l-15 -251h-117l-7 133h-413v500h147z" />
    <glyph glyph-name="afii10089" unicode="&#x447;" horiz-adv-x="566" 
d="M354 276v224h147v-500h-147v189h-1s-38 -29 -137 -29c-100 0 -174 39 -174 142v198h150v-177c0 -37 26 -65 75 -65c54 0 87 18 87 18z" />
    <glyph glyph-name="afii10090" unicode="&#x448;" horiz-adv-x="844" 
d="M779 500v-500h-714v500h140v-382h146v382h142v-382h146v382h140z" />
    <glyph glyph-name="afii10091" unicode="&#x449;" horiz-adv-x="883" 
d="M852 118l-15 -251h-116l-8 133h-648v500h140v-382h146v382h142v-382h146v382h140v-382h73z" />
    <glyph glyph-name="afii10092" unicode="&#x44a;" horiz-adv-x="634" 
d="M289 500v-167h71c154 0 245 -42 245 -159c0 -120 -81 -174 -245 -174h-218v382h-138v118h285zM357 239h-68v-135h69c65 0 97 17 97 70c0 51 -42 65 -98 65z" />
    <glyph glyph-name="afii10093" unicode="&#x44b;" horiz-adv-x="820" 
d="M755 500v-500h-146v500h146zM212 500v-167h71c154 0 245 -42 245 -159c0 -120 -81 -174 -245 -174h-218v500h147zM280 239h-68v-135h69c65 0 97 17 97 70c0 51 -42 65 -98 65z" />
    <glyph glyph-name="afii10094" unicode="&#x44c;" horiz-adv-x="556" 
d="M212 500v-167h71c154 0 245 -42 245 -159c0 -120 -81 -174 -245 -174h-218v500h147zM280 239h-68v-135h69c65 0 97 17 97 70c0 51 -42 65 -98 65z" />
    <glyph glyph-name="afii10095" unicode="&#x44d;" horiz-adv-x="526" 
d="M70 364l-40 89s58 65 201 65c160 0 263 -103 263 -259c0 -189 -119 -278 -283 -278c-148 0 -196 87 -196 87l53 74s50 -50 143 -50c89 0 136 33 148 111h-240v102h238c-16 75 -66 102 -145 102c-83 0 -142 -43 -142 -43z" />
    <glyph glyph-name="afii10096" unicode="&#x44e;" horiz-adv-x="824" 
d="M529 518c177 0 264 -101 264 -268c0 -168 -87 -269 -264 -269c-142 0 -225 80 -241 220h-76v-201h-147v500h147v-188h78c19 130 99 206 239 206zM533 408c-89 0 -115 -65 -115 -157c0 -93 26 -160 115 -160c90 0 116 67 116 159s-26 158 -116 158z" />
    <glyph glyph-name="afii10097" unicode="&#x44f;" horiz-adv-x="566" 
d="M501 500v-500h-147v183h-74l-88 -183h-154l108 199c-67 23 -101 71 -101 139c0 107 73 162 226 162h230zM187 334c0 -48 34 -72 93 -72h4h70v140h-68c-69 0 -99 -19 -99 -68z" />
    <glyph glyph-name="uni0450" unicode="&#x450;" horiz-adv-x="547" 
d="M434 144l83 -52s-53 -111 -220 -111c-160 0 -266 81 -266 260c0 177 103 277 258 277c149 0 229 -93 229 -238c0 -53 -13 -80 -13 -80h-337c2 -70 50 -110 137 -110c84 0 129 54 129 54zM289 413c-79 0 -117 -48 -121 -118h231v7c0 63 -34 111 -110 111zM123 711l139 15
l99 -147l-105 -8z" />
    <glyph glyph-name="afii10071" unicode="&#x451;" horiz-adv-x="547" 
d="M434 144l83 -52s-53 -111 -220 -111c-160 0 -266 81 -266 260c0 177 103 277 258 277c149 0 229 -93 229 -238c0 -53 -13 -80 -13 -80h-337c2 -70 50 -110 137 -110c84 0 129 54 129 54zM289 413c-79 0 -117 -48 -121 -118h231v7c0 63 -34 111 -110 111zM318 712h126
v-121h-126v121zM104 712h126v-121h-126v121z" />
    <glyph glyph-name="afii10099" unicode="&#x452;" 
d="M404 662v-104h-193v-160h6s39 54 148 54c120 0 188 -61 188 -179v-308c0 -150 -90 -221 -186 -221c-36 0 -74 10 -107 30l40 120c13 -6 28 -10 43 -10c33 0 63 20 63 81v280c0 47 -26 78 -91 78c-71 0 -101 -39 -104 -43v-280h-146v558h-58v84l58 16v88l146 4v-88h193z
" />
    <glyph glyph-name="afii10100" unicode="&#x453;" horiz-adv-x="407" 
d="M402 382h-190v-382h-147v500h337v-118zM252 726l139 -15l-134 -140l-105 8z" />
    <glyph glyph-name="afii10101" unicode="&#x454;" horiz-adv-x="523" 
d="M439 147l68 -64s-47 -102 -212 -102c-177 0 -264 99 -264 268c0 155 91 269 268 269c111 0 183 -54 183 -54l-38 -94s-90 34 -125 34c-77 0 -126 -26 -140 -103h220v-101h-220c14 -82 67 -106 135 -106c77 0 125 53 125 53z" />
    <glyph glyph-name="afii10102" unicode="&#x455;" horiz-adv-x="505" 
d="M20 102l80 62s61 -80 152 -80c50 0 81 23 81 51c0 84 -273 50 -273 226c0 100 84 157 208 157c123 0 180 -55 180 -55l-31 -87s-118 43 -148 43c-40 0 -70 -15 -70 -44c0 -81 276 -56 276 -227c0 -95 -71 -167 -221 -167c-197 0 -234 121 -234 121z" />
    <glyph glyph-name="afii10103" unicode="&#x456;" horiz-adv-x="277" 
d="M212 500v-500h-147v500h147zM73 712h130v-121h-130v121z" />
    <glyph glyph-name="afii10104" unicode="&#x457;" horiz-adv-x="277" 
d="M212 500v-500h-147v500h147zM182 712h126v-121h-126v121zM-32 712h126v-121h-126v121z" />
    <glyph glyph-name="afii10105" unicode="&#x458;" horiz-adv-x="286" 
d="M75 -36v536h146v-536c0 -171 -96 -233 -189 -233c-76 0 -104 27 -104 27l40 120s20 -11 47 -11c34 0 60 32 60 97zM84 712h130v-121h-130v121z" />
    <glyph glyph-name="afii10106" unicode="&#x459;" horiz-adv-x="868" 
d="M523 500v-167h71c154 0 245 -42 245 -159c0 -120 -81 -174 -245 -174h-219v382h-127c0 -245 -38 -400 -187 -400c-13 0 -27 2 -42 4v115c5 -1 10 -1 15 -1c67 0 87 104 87 400h402zM591 239h-68v-135h69c65 0 97 17 97 70c0 51 -42 65 -98 65z" />
    <glyph glyph-name="afii10107" unicode="&#x45a;" horiz-adv-x="896" 
d="M552 500v-167h71c154 0 245 -42 245 -159c0 -120 -81 -174 -245 -174h-218v201h-193v-201h-147v500h147v-188h193v188h147zM620 239h-68v-135h69c65 0 97 17 97 70c0 51 -42 65 -98 65z" />
    <glyph glyph-name="afii10108" unicode="&#x45b;" 
d="M404 662v-104h-193v-160h6s39 54 148 54c120 0 188 -61 188 -179v-273h-147v245c0 47 -26 78 -91 78c-71 0 -101 -39 -104 -43v-280h-146v558h-58v84l58 16v88l146 4v-88h193z" />
    <glyph glyph-name="afii10109" unicode="&#x45c;" horiz-adv-x="557" 
d="M65 0v500h147v-194l51 36l108 158h169l-168 -221l183 -279h-176l-133 212l-34 -13v-199h-147zM330 726l139 -15l-134 -140l-105 8z" />
    <glyph glyph-name="uni045D" unicode="&#x45d;" horiz-adv-x="629" 
d="M65 0v500h147v-296l211 254l12 42h130v-500h-148v281l-213 -252l-10 -29h-129zM149 711l139 15l99 -147l-105 -8z" />
    <glyph glyph-name="afii10110" unicode="&#x45e;" horiz-adv-x="567" 
d="M47 -122c0 0 29 -16 60 -16c50 0 83 41 121 142l-221 496h162l131 -352h4l94 352h162l-195 -523c-64 -171 -138 -246 -238 -246c-65 0 -105 27 -105 27zM286 653c78 0 99 63 99 63l7 -2l88 -18s-17 -126 -194 -126c-175 0 -193 126 -193 126l89 18l6 2s21 -63 98 -63z
" />
    <glyph glyph-name="afii10193" unicode="&#x45f;" horiz-adv-x="637" 
d="M573 500v-500h-188l-8 -133h-116l-8 133h-188v500h147v-382h213v382h148z" />
    <glyph glyph-name="afii10146" unicode="&#x462;" horiz-adv-x="691" 
d="M524 650v-122h-229v-132h70c191 0 286 -56 286 -187c0 -130 -85 -209 -285 -209h-226v528h-129v122h129v40h154v-40h230zM358 292h-63v-178h64c100 0 145 27 145 91c0 65 -54 87 -146 87z" />
    <glyph glyph-name="afii10194" unicode="&#x463;" horiz-adv-x="611" 
d="M267 600v-100h167v-103l-166 -5v-10h-1v-49h71c154 0 245 -42 245 -159c0 -120 -81 -174 -245 -174h-218v382h-116v118h116v100h147zM335 239h-68v-135h69c65 0 97 17 97 70c0 51 -42 65 -98 65z" />
    <glyph glyph-name="afii10050" unicode="&#x490;" horiz-adv-x="480" 
d="M373 750h104l8 -222h-242v-528h-154v650h277z" />
    <glyph glyph-name="afii10098" unicode="&#x491;" horiz-adv-x="399" 
d="M289 624h100l7 -242h-184v-382h-147v500h209z" />
    <glyph glyph-name="uni1E9E" unicode="&#x1e9e;" horiz-adv-x="763" 
d="M408 281l-68 73l109 166h-83c-98 -2 -133 -44 -133 -129v-391h-154v414c0 140 78 236 294 236h244v-84l-121 -165c124 0 228 -68 228 -194c0 -149 -111 -226 -257 -226c-136 0 -184 68 -184 68l34 104s70 -43 140 -43c76 0 117 37 117 100c0 54 -35 90 -104 90
c-44 0 -62 -19 -62 -19z" />
    <glyph glyph-name="uni2002" unicode="&#x2002;" horiz-adv-x="500" 
 />
    <glyph glyph-name="uni2003" unicode="&#x2003;" horiz-adv-x="1000" 
 />
    <glyph glyph-name="uni2004" unicode="&#x2004;" horiz-adv-x="333" 
 />
    <glyph glyph-name="uni2005" unicode="&#x2005;" horiz-adv-x="250" 
 />
    <glyph glyph-name="uni2009" unicode="&#x2009;" horiz-adv-x="200" 
 />
    <glyph glyph-name="uni200A" unicode="&#x200a;" horiz-adv-x="40" 
 />
    <glyph glyph-name="uni2011" unicode="&#x2011;" horiz-adv-x="378" 
d="M345 332v-115h-313v115h313z" />
    <glyph glyph-name="endash" unicode="&#x2013;" horiz-adv-x="600" 
d="M568 332v-115h-536v115h536z" />
    <glyph glyph-name="emdash" unicode="&#x2014;" horiz-adv-x="781" 
d="M749 332v-115h-717v115h717z" />
    <glyph glyph-name="afii00208" unicode="&#x2015;" horiz-adv-x="781" 
d="M749 332v-115h-717v115h717z" />
    <glyph glyph-name="quoteleft" unicode="&#x2018;" horiz-adv-x="198" 
d="M117 563h54v-123h-141c-6 28 -9 57 -9 84c0 110 48 205 119 236l65 -53c-46 -32 -88 -78 -88 -144z" />
    <glyph glyph-name="quoteright" unicode="&#x2019;" horiz-adv-x="198" 
d="M79 627h-55v123h142c6 -28 9 -56 9 -83c0 -111 -48 -207 -119 -238l-65 53c46 33 88 78 88 145z" />
    <glyph glyph-name="quotesinglbase" unicode="&#x201a;" horiz-adv-x="198" 
d="M64 26h-40v123h142v-60c1 -13 2 -26 2 -39c0 -94 -35 -187 -112 -221l-65 53c46 32 73 77 73 144z" />
    <glyph glyph-name="quotedblleft" unicode="&#x201c;" horiz-adv-x="413" 
d="M117 563h54v-123h-141c-6 28 -9 57 -9 84c0 110 48 205 119 236l65 -53c-46 -32 -88 -78 -88 -144zM332 563h54v-123h-141c-6 28 -9 57 -9 84c0 110 48 205 119 236l65 -53c-46 -32 -88 -78 -88 -144z" />
    <glyph glyph-name="quotedblright" unicode="&#x201d;" horiz-adv-x="413" 
d="M79 627h-55v123h142c6 -28 9 -56 9 -83c0 -111 -48 -207 -119 -238l-65 53c46 33 88 78 88 145zM294 627h-55v123h142c6 -28 9 -56 9 -83c0 -111 -48 -207 -119 -238l-65 53c46 33 88 78 88 145z" />
    <glyph glyph-name="quotedblbase" unicode="&#x201e;" horiz-adv-x="413" 
d="M64 26h-40v123h142v-60c1 -13 2 -26 2 -39c0 -94 -35 -187 -112 -221l-65 53c46 32 73 77 73 144zM279 26h-40v123h142v-60c1 -13 2 -26 2 -39c0 -94 -35 -187 -112 -221l-65 53c46 32 73 77 73 144z" />
    <glyph glyph-name="dagger" unicode="&#x2020;" horiz-adv-x="566" 
d="M511 462v-115h-154l-15 -597h-115l-15 597h-158v115h170v188h121v-188h166z" />
    <glyph glyph-name="daggerdbl" unicode="&#x2021;" horiz-adv-x="566" 
d="M511 34v-115h-166v-169h-124v169h-167v115h170l16 166l-19 166h-167v115h167v169h124v-169h166v-115h-167l-19 -166l17 -166h169z" />
    <glyph glyph-name="bullet" unicode="&#x2022;" horiz-adv-x="426" 
d="M100 431h209v-202h-209v202z" />
    <glyph glyph-name="ellipsis" unicode="&#x2026;" horiz-adv-x="922" 
d="M98 129h135v-129h-135v129zM392 129h135v-129h-135v129zM687 129h135v-129h-135v129z" />
    <glyph glyph-name="perthousand" unicode="&#x2030;" horiz-adv-x="1454" 
d="M710 615l-319 -627l-115 20l319 627zM445 466c0 -120 -72 -204 -203 -204c-136 0 -203 84 -203 204c0 119 74 201 203 201c124 0 203 -82 203 -201zM325 466c0 53 -25 94 -83 94c-59 0 -82 -41 -82 -94c0 -52 23 -95 82 -95c58 0 83 43 83 95zM962 185
c0 -120 -72 -204 -203 -204c-136 0 -203 84 -203 204c0 119 74 201 203 201c124 0 203 -82 203 -201zM842 185c0 53 -25 94 -83 94c-59 0 -82 -41 -82 -94c0 -52 23 -95 82 -95c58 0 83 43 83 95zM1415 185c0 -120 -72 -204 -203 -204c-136 0 -203 84 -203 204
c0 119 74 201 203 201c124 0 203 -82 203 -201zM1295 185c0 53 -25 94 -83 94c-59 0 -82 -41 -82 -94c0 -52 23 -95 82 -95c58 0 83 43 83 95z" />
    <glyph glyph-name="guilsinglleft" unicode="&#x2039;" horiz-adv-x="401" 
d="M338 366l-117 -117l116 -118l-63 -72l-184 191l185 186z" />
    <glyph glyph-name="guilsinglright" unicode="&#x203a;" horiz-adv-x="401" 
d="M63 364l63 72l184 -191l-184 -186l-65 69l118 117z" />
    <glyph glyph-name="fraction" unicode="&#x2044;" horiz-adv-x="515" 
d="M544 555l-392 -605l-94 51l393 605z" />
    <glyph glyph-name="zerosuperior" unicode="&#x2070;" horiz-adv-x="586" 
d="M293 705c163 0 244 -104 244 -249c0 -144 -81 -246 -244 -246s-244 102 -244 246c0 145 81 249 244 249zM293 612c-68 0 -94 -62 -94 -156s26 -154 94 -154s95 60 95 154s-27 156 -95 156z" />
    <glyph glyph-name="foursuperior" unicode="&#x2074;" horiz-adv-x="491" 
d="M135 692l127 -7c-16 -100 -45 -203 -90 -277h105v67l29 141h104v-208h53v-72l-53 -15v-91h-133v90h-233l-6 67c37 63 82 204 97 305z" />
    <glyph glyph-name="fivesuperior" unicode="&#x2075;" horiz-adv-x="469" 
d="M144 419l-62 22l32 244h274v-101h-185l-9 -65c7 0 14 1 21 1c138 0 215 -53 215 -146c0 -110 -87 -164 -226 -164c-162 0 -189 110 -189 110l77 47s25 -65 104 -65c68 0 92 37 92 74c0 30 -27 60 -91 60c-35 0 -48 -11 -53 -17z" />
    <glyph glyph-name="sixsuperior" unicode="&#x2076;" horiz-adv-x="520" 
d="M426 664l-25 -86s-88 25 -109 25c-67 0 -116 -29 -123 -110c27 16 66 30 127 30c98 0 185 -39 185 -144c0 -106 -81 -169 -211 -169c-131 0 -221 70 -221 206c0 19 2 56 4 67c15 153 116 222 233 222c104 0 140 -41 140 -41zM269 444c-30 0 -53 -7 -68 -16
c-13 -10 -16 -31 -16 -50c0 -53 28 -85 85 -85c54 0 76 34 76 80c0 41 -24 71 -77 71z" />
    <glyph glyph-name="sevensuperior" unicode="&#x2077;" horiz-adv-x="420" 
d="M406 685v-75c-75 -101 -147 -247 -181 -380h-151c34 125 99 246 170 350h-230v105h392z" />
    <glyph glyph-name="eightsuperior" unicode="&#x2078;" horiz-adv-x="525" 
d="M469 567c0 -53 -42 -85 -89 -104c51 -15 106 -47 106 -113c0 -96 -71 -140 -224 -140c-152 0 -223 45 -223 140c0 57 52 90 107 109c-45 16 -90 48 -90 109c0 81 73 137 206 137c134 0 207 -56 207 -138zM348 359c0 61 -77 67 -109 67c-29 -8 -62 -26 -62 -67
c0 -43 32 -64 85 -64c55 0 86 21 86 64zM183 559c0 -49 46 -63 80 -67c29 3 78 15 78 67c0 40 -27 60 -79 60c-51 0 -79 -20 -79 -60z" />
    <glyph glyph-name="ninesuperior" unicode="&#x2079;" horiz-adv-x="523" 
d="M74 258l48 79s38 -25 109 -25c65 0 113 31 122 106c-19 -15 -56 -31 -127 -31c-97 0 -187 46 -187 146c0 109 94 172 223 172c124 0 211 -63 211 -199c0 -19 -2 -64 -3 -74c-15 -153 -117 -222 -241 -222c-126 0 -155 48 -155 48zM254 466c29 0 49 7 64 15l-2 2
c16 6 21 31 21 54c0 53 -25 84 -82 84c-54 0 -81 -33 -81 -82c0 -44 26 -73 80 -73z" />
    <glyph glyph-name="zerosub" unicode="&#x2080;" horiz-adv-x="586" 
d="M293 275c163 0 244 -104 244 -249c0 -144 -81 -246 -244 -246s-244 102 -244 246c0 145 81 249 244 249zM293 182c-68 0 -94 -62 -94 -156s26 -154 94 -154s95 60 95 154s-27 156 -95 156z" />
    <glyph glyph-name="onesub" unicode="&#x2081;" horiz-adv-x="407" 
d="M163 255h148v-455h-148v293c-29 -16 -65 -27 -106 -30l-12 98c60 8 118 53 118 94z" />
    <glyph glyph-name="twosub" unicode="&#x2082;" horiz-adv-x="475" 
d="M435 -105v-95h-400v77s240 138 240 228c0 39 -20 67 -76 67c-67 0 -85 -52 -85 -52l-91 30s31 125 200 125c141 0 204 -71 204 -155c0 -89 -92 -168 -180 -225h188z" />
    <glyph glyph-name="threesub" unicode="&#x2083;" horiz-adv-x="472" 
d="M174 -8l-57 56l118 114h-178v93h344v-59l-131 -118c110 -11 163 -62 163 -139c0 -104 -85 -159 -227 -159c-174 0 -194 112 -194 112l78 47s28 -67 111 -67c63 0 90 33 90 69c0 32 -28 56 -78 56c-29 0 -36 -4 -39 -5z" />
    <glyph glyph-name="foursub" unicode="&#x2084;" horiz-adv-x="491" 
d="M135 262l127 -7c-16 -100 -45 -203 -90 -277h105v67l29 141h104v-208h53v-72l-53 -15v-91h-133v90h-233l-6 67c37 63 82 204 97 305z" />
    <glyph glyph-name="fivesub" unicode="&#x2085;" horiz-adv-x="469" 
d="M144 -11l-62 22l32 244h274v-101h-185l-9 -65c7 0 14 1 21 1c138 0 215 -53 215 -146c0 -110 -87 -164 -226 -164c-162 0 -189 110 -189 110l77 47s25 -65 104 -65c68 0 92 37 92 74c0 30 -27 60 -91 60c-35 0 -48 -11 -53 -17z" />
    <glyph glyph-name="sixsub" unicode="&#x2086;" horiz-adv-x="520" 
d="M426 234l-25 -86s-88 25 -109 25c-67 0 -116 -29 -123 -110c27 16 66 30 127 30c98 0 185 -39 185 -144c0 -106 -81 -169 -211 -169c-131 0 -221 63 -221 198c0 20 2 64 4 75c15 153 116 222 233 222c104 0 140 -41 140 -41zM269 14c-30 0 -53 -7 -68 -15
c-13 -10 -16 -32 -16 -51c0 -53 28 -85 85 -85c54 0 76 34 76 80c0 41 -24 71 -77 71z" />
    <glyph glyph-name="sevensub" unicode="&#x2087;" horiz-adv-x="420" 
d="M406 255v-75c-75 -101 -147 -247 -181 -380h-151c34 125 99 246 170 350h-230v105h392z" />
    <glyph glyph-name="eightsub" unicode="&#x2088;" horiz-adv-x="525" 
d="M469 137c0 -53 -42 -85 -89 -104c51 -15 106 -46 106 -113c0 -96 -71 -140 -224 -140c-152 0 -223 45 -223 140c0 57 52 90 107 109c-45 16 -90 48 -90 109c0 81 73 137 206 137c134 0 207 -56 207 -138zM348 -71c0 62 -78 68 -109 68c-30 -9 -62 -27 -62 -68
c0 -43 32 -64 85 -64c55 0 86 21 86 64zM183 129c0 -49 46 -63 80 -67c29 3 78 15 78 67c0 40 -27 60 -79 60c-51 0 -79 -20 -79 -60z" />
    <glyph glyph-name="ninesub" unicode="&#x2089;" horiz-adv-x="523" 
d="M74 -172l48 79s38 -25 109 -25c65 0 113 31 122 106c-19 -15 -56 -31 -127 -31c-97 0 -187 46 -187 146c0 109 94 172 223 172c124 0 211 -63 211 -199c0 -19 -2 -64 -3 -74c-15 -153 -117 -222 -241 -222c-126 0 -155 48 -155 48zM254 36c29 0 49 7 64 15l-2 2
c16 6 21 31 21 54c0 53 -25 84 -82 84c-54 0 -81 -33 -81 -82c0 -44 26 -73 80 -73z" />
    <glyph glyph-name="Euro" unicode="&#x20ac;" horiz-adv-x="659" 
d="M528 285v-80h-263c24 -79 79 -109 175 -109s139 53 139 53l70 -60s-67 -108 -248 -108c-174 0 -263 89 -290 235l-67 12v57h59c-1 12 -1 24 -1 37c0 16 1 32 2 47l-60 12v56h70c31 139 127 230 319 230c145 0 196 -82 196 -82l-47 -78s-87 45 -140 45
c-101 0 -155 -35 -178 -115h264v-80h-275c-1 -11 -1 -23 -1 -35c0 -13 0 -26 1 -37h275z" />
    <glyph glyph-name="uni20B4" unicode="&#x20b4;" horiz-adv-x="571" 
d="M64 365v80h275c5 12 8 25 8 38c0 41 -22 66 -99 66c-78 0 -115 -35 -115 -35l-36 81s44 72 187 72c138 0 196 -74 196 -152c0 -31 -9 -57 -24 -81l58 -13v-56h-121c-29 -25 -60 -49 -87 -73h208v-79h-268c-5 -14 -8 -28 -8 -43c0 -43 22 -70 90 -70c84 0 132 46 132 46
l47 -75s-46 -90 -190 -90c-142 0 -213 49 -213 160c0 30 10 57 26 82l-66 13v56h127c28 25 58 49 84 73h-211z" />
    <glyph glyph-name="afii61352" unicode="&#x2116;" horiz-adv-x="1252" 
d="M691 650v-650h-163l-308 451h-3l5 -58v-393h-133v650h161l309 -456h2l-3 45v411h133zM1211 495c0 -117 -79 -188 -221 -188c-148 0 -221 71 -221 188c0 116 73 188 221 188s221 -72 221 -188zM990 595c-62 0 -85 -34 -85 -99c0 -67 23 -106 85 -106s85 38 85 105
c0 66 -23 100 -85 100zM1144 197v-115h-313v115h313z" />
    <glyph glyph-name="trademark" unicode="&#x2122;" horiz-adv-x="922" 
d="M857 750l10 -350h-86l-7 192l-90 -192h-76l-87 207l-4 -207h-89l29 350h96l96 -257l119 257h89zM416 750v-84l-140 -1v-265h-91v265h-128v85h359z" />
    <glyph glyph-name="onethird" unicode="&#x2153;" horiz-adv-x="972" 
d="M163 685h148v-455h-148v293c-29 -16 -65 -27 -106 -30l-12 98c60 8 118 53 118 94zM724 555l-392 -605l-94 51l393 605zM674 -8l-57 56l118 114h-178v93h344v-59l-131 -118c110 -11 163 -62 163 -139c0 -104 -85 -159 -227 -159c-174 0 -194 112 -194 112l78 47
s28 -67 111 -67c63 0 90 33 90 69c0 32 -28 56 -78 56c-29 0 -36 -4 -39 -5z" />
    <glyph glyph-name="twothirds" unicode="&#x2154;" horiz-adv-x="1044" 
d="M435 325v-95h-400v77s240 138 240 228c0 39 -20 67 -76 67c-67 0 -85 -52 -85 -52l-91 30s31 125 200 125c141 0 204 -71 204 -155c0 -89 -92 -168 -180 -225h188zM796 555l-392 -605l-94 51l393 605zM746 -8l-57 56l118 114h-178v93h344v-59l-131 -118
c110 -11 163 -62 163 -139c0 -104 -85 -159 -227 -159c-174 0 -194 112 -194 112l78 47s28 -67 111 -67c63 0 90 33 90 69c0 32 -28 56 -78 56c-29 0 -36 -4 -39 -5z" />
    <glyph glyph-name="oneeighth" unicode="&#x215b;" horiz-adv-x="1025" 
d="M163 685h148v-455h-148v293c-29 -16 -65 -27 -106 -30l-12 98c60 8 118 53 118 94zM724 555l-392 -605l-94 51l393 605zM969 137c0 -53 -42 -85 -89 -104c51 -15 106 -46 106 -113c0 -96 -71 -140 -224 -140c-152 0 -223 45 -223 140c0 57 52 90 107 109
c-45 16 -90 48 -90 109c0 81 73 137 206 137c134 0 207 -56 207 -138zM848 -71c0 62 -78 68 -109 68c-30 -9 -62 -27 -62 -68c0 -43 32 -64 85 -64c55 0 86 21 86 64zM683 129c0 -49 46 -63 80 -67c29 3 78 15 78 67c0 40 -27 60 -79 60c-51 0 -79 -20 -79 -60z" />
    <glyph glyph-name="threeeighths" unicode="&#x215c;" horiz-adv-x="1097" 
d="M180 422l-57 56l118 114h-178v93h344v-59l-131 -118c110 -11 163 -62 163 -139c0 -104 -85 -159 -227 -159c-174 0 -194 112 -194 112l78 47s28 -67 111 -67c63 0 90 33 90 69c0 32 -28 56 -78 56c-29 0 -36 -4 -39 -5zM796 555l-392 -605l-94 51l393 605zM1041 137
c0 -53 -42 -85 -89 -104c51 -15 106 -46 106 -113c0 -96 -71 -140 -224 -140c-152 0 -223 45 -223 140c0 57 52 90 107 109c-45 16 -90 48 -90 109c0 81 73 137 206 137c134 0 207 -56 207 -138zM920 -71c0 62 -78 68 -109 68c-30 -9 -62 -27 -62 -68c0 -43 32 -64 85 -64
c55 0 86 21 86 64zM755 129c0 -49 46 -63 80 -67c29 3 78 15 78 67c0 40 -27 60 -79 60c-51 0 -79 -20 -79 -60z" />
    <glyph glyph-name="fiveeighths" unicode="&#x215d;" horiz-adv-x="1084" 
d="M144 419l-62 22l32 244h274v-101h-185l-9 -65c7 0 14 1 21 1c138 0 215 -53 215 -146c0 -110 -87 -164 -226 -164c-162 0 -189 110 -189 110l77 47s25 -65 104 -65c68 0 92 37 92 74c0 30 -27 60 -91 60c-35 0 -48 -11 -53 -17zM784 555l-392 -605l-94 51l393 605z
M1028 137c0 -53 -42 -85 -89 -104c51 -15 106 -46 106 -113c0 -96 -71 -140 -224 -140c-152 0 -223 45 -223 140c0 57 52 90 107 109c-45 16 -90 48 -90 109c0 81 73 137 206 137c134 0 207 -56 207 -138zM907 -71c0 62 -78 68 -109 68c-30 -9 -62 -27 -62 -68
c0 -43 32 -64 85 -64c55 0 86 21 86 64zM742 129c0 -49 46 -63 80 -67c29 3 78 15 78 67c0 40 -27 60 -79 60c-51 0 -79 -20 -79 -60z" />
    <glyph glyph-name="seveneighths" unicode="&#x215e;" horiz-adv-x="1007" 
d="M406 685v-75c-75 -101 -147 -247 -181 -380h-151c34 125 99 246 170 350h-230v105h392zM706 555l-392 -605l-94 51l393 605zM951 137c0 -53 -42 -85 -89 -104c51 -15 106 -46 106 -113c0 -96 -71 -140 -224 -140c-152 0 -223 45 -223 140c0 57 52 90 107 109
c-45 16 -90 48 -90 109c0 81 73 137 206 137c134 0 207 -56 207 -138zM830 -71c0 62 -78 68 -109 68c-30 -9 -62 -27 -62 -68c0 -43 32 -64 85 -64c55 0 86 21 86 64zM665 129c0 -49 46 -63 80 -67c29 3 78 15 78 67c0 40 -27 60 -79 60c-51 0 -79 -20 -79 -60z" />
    <glyph glyph-name="arrowup" unicode="&#x2191;" horiz-adv-x="748" 
d="M426 -38h-103v431l-139 -139l-84 67l274 258l274 -258l-84 -67l-138 138v-430z" />
    <glyph glyph-name="arrowdown" unicode="&#x2193;" horiz-adv-x="764" 
d="M113 220l84 67l139 -140v432h103v-432l139 140l84 -67l-275 -258z" />
    <glyph glyph-name="arrowupleft" unicode="&#x2196;" horiz-adv-x="645" 
d="M497 463l-15 -95l-179 13l285 -291l-83 -76l-285 292l14 -185l-94 -15l-25 382z" />
    <glyph glyph-name="arrowupright" unicode="&#x2197;" horiz-adv-x="645" 
d="M140 14l-83 76l284 291l-177 -13l-16 95l382 25l-25 -382l-94 15l14 186z" />
    <glyph glyph-name="arrowdownright" unicode="&#x2198;" horiz-adv-x="645" 
d="M70 412l82 76l285 -292l-14 186l94 15l26 -383l-383 26l16 95l177 -14z" />
    <glyph glyph-name="arrowdownleft" unicode="&#x2199;" horiz-adv-x="645" 
d="M128 397l94 -15l-15 -187l286 293l82 -76l-284 -291l178 14l16 -95l-383 -26z" />
    <glyph glyph-name="minus" unicode="&#x2212;" horiz-adv-x="600" 
d="M568 332v-115h-536v115h536z" />
    <glyph glyph-name="st" unicode="&#xfb06;" horiz-adv-x="846" 
d="M20 102l80 62s61 -80 152 -80c50 0 81 23 81 51c0 84 -273 50 -273 226c0 100 84 157 208 157h9c-7 20 -11 43 -11 69c0 73 51 163 178 163h236v-250h133v-118h-133v-206c0 -43 18 -73 60 -73c36 0 69 6 69 6v-109s-30 -19 -116 -19c-105 0 -160 41 -160 168v510h-85
c-61 0 -87 -34 -87 -92c0 -28 9 -50 21 -68c44 -16 66 -36 66 -36l-31 -87s-118 43 -148 43c-40 0 -70 -15 -70 -44c0 -81 276 -56 276 -227c0 -95 -71 -167 -221 -167c-197 0 -234 121 -234 121z" />
    <glyph glyph-name="halfcaron" horiz-adv-x="409" 
d="M219 785l100 1c0 -80 -22 -183 -48 -244l-90 12c18 58 26 151 26 231h12z" />
    <glyph glyph-name="commaaccent" unicode="&#xf6c3;" horiz-adv-x="271" 
d="M44 -52h128c7 -33 11 -65 11 -94c0 -96 -38 -167 -106 -197l-58 46c43 31 76 74 79 134h-54v111z" />
    <glyph glyph-name="zero.onum" horiz-adv-x="680" 
d="M340 518c201 0 291 -114 291 -270s-90 -267 -291 -267c-202 0 -291 111 -291 267s89 270 291 270zM340 400c-100 0 -141 -69 -141 -152s37 -149 141 -149c103 0 141 66 141 149s-38 152 -141 152z" />
    <glyph glyph-name="one.onum" horiz-adv-x="455" 
d="M213 500h146v-500h-146v329c-39 -27 -91 -46 -153 -51l-15 108c75 11 168 55 168 114z" />
    <glyph glyph-name="two.onum" horiz-adv-x="559" 
d="M520 125v-125h-491v109s286 126 286 223c0 40 -24 61 -82 61c-75 0 -116 -65 -116 -65l-93 75s41 115 225 115c170 0 227 -87 227 -160c0 -93 -93 -174 -188 -233h232z" />
    <glyph glyph-name="three.onum" horiz-adv-x="563" 
d="M489 500v-84l-169 -173c111 -10 204 -78 204 -194c0 -148 -123 -218 -276 -218c-199 0 -241 133 -241 133l73 71s55 -83 163 -83c92 0 131 37 131 100c0 54 -40 90 -119 90c-25 0 -41 -9 -44 -11l-69 73l157 174h-237v122h427z" />
    <glyph glyph-name="four.onum" horiz-adv-x="601" 
d="M215 510l138 -10c-18 -143 -89 -283 -156 -386h164v101l19 187h128v-288h76v-92l-76 -21v-151h-147v150h-322l-8 99c72 90 167 266 184 411z" />
    <glyph glyph-name="five.onum" horiz-adv-x="560" 
d="M478 500v-122h-238l-15 -125c12 2 24 3 38 3c154 0 258 -67 258 -201c0 -155 -116 -224 -268 -224c-200 0 -241 126 -241 126l72 78s63 -83 164 -83c84 0 123 43 123 106c0 54 -43 97 -122 97c-51 0 -77 -14 -85 -23l-1 -1l-76 10l38 359h353z" />
    <glyph glyph-name="six.onum" 
d="M501 609l-50 -94s-91 36 -117 36c-85 0 -139 -59 -146 -182c29 31 73 60 143 60c139 0 242 -67 242 -217c0 -141 -96 -231 -258 -231c-163 0 -266 90 -266 285c0 28 3 81 5 95c30 217 126 306 272 306c130 0 175 -58 175 -58zM313 327c-62 0 -96 -30 -108 -50
c-4 -14 -6 -33 -6 -55c0 -86 36 -132 116 -132c78 0 107 59 107 124c0 60 -32 113 -109 113z" />
    <glyph glyph-name="seven.onum" horiz-adv-x="518" 
d="M504 500v-106c-94 -145 -185 -354 -227 -544h-169c48 199 135 368 254 521h-348v129h490z" />
    <glyph glyph-name="eight.onum" horiz-adv-x="618" 
d="M563 482c0 -76 -52 -122 -111 -150c62 -21 126 -67 126 -161c0 -136 -105 -190 -270 -190c-164 0 -269 55 -269 191c0 78 58 127 121 157c-54 24 -106 69 -106 154c0 116 105 184 254 184c150 0 255 -69 255 -185zM425 179c0 74 -73 94 -122 99c-41 -6 -111 -27 -111 -99
c0 -62 47 -98 116 -98c70 0 117 36 117 98zM200 475c0 -71 65 -93 111 -100c39 6 106 26 106 100c0 58 -42 92 -109 92s-108 -35 -108 -92z" />
    <glyph glyph-name="nine.onum" 
d="M75 -90l74 93s45 -55 129 -55c81 0 134 54 145 159c-26 -20 -70 -42 -142 -42c-139 0 -242 61 -242 212c0 141 102 240 264 240c163 0 260 -90 260 -284c0 -28 -2 -86 -4 -100c-19 -213 -128 -302 -281 -302c-150 0 -203 79 -203 79zM299 166c58 0 91 24 105 39
c5 17 8 47 8 72c0 86 -29 131 -109 131c-78 0 -114 -61 -114 -126c0 -60 33 -116 110 -116z" />
    <glyph glyph-name="dollar.onum" horiz-adv-x="505" 
d="M20 102l80 62s61 -80 152 -80c50 0 81 23 81 51c0 84 -273 50 -273 226c0 80 54 133 139 150l2 120h113l7 -117c86 -13 127 -51 127 -51l-31 -87s-118 43 -148 43c-40 0 -70 -15 -70 -44c0 -81 276 -56 276 -227c0 -79 -50 -142 -153 -161v-106h-114l-7 104
c-151 18 -181 117 -181 117z" />
    <glyph glyph-name="cent.onum" horiz-adv-x="515" 
d="M431 153l76 -54s-31 -89 -152 -112v-113h-114l-6 113c-137 20 -204 112 -204 261c0 140 68 241 202 265v111h115l5 -109c95 -15 136 -65 136 -65l-45 -91s-90 49 -125 49c-92 0 -136 -47 -136 -158c0 -114 51 -158 126 -158c71 0 122 61 122 61z" />
    <glyph glyph-name="sterling.onum" horiz-adv-x="577" 
d="M495 285v-88h-213c-4 -34 -13 -65 -25 -88h299v-109h-512v109h82c17 22 20 47 20 79v18l-102 14v65h98v26c0 120 57 207 216 207c127 0 178 -54 178 -54l-34 -105s-88 34 -117 34c-64 0 -96 -31 -96 -85v-23h206z" />
    <glyph glyph-name="yen.onum" horiz-adv-x="566" 
d="M280 296h3l130 204h155l-181 -282h114v-97h-143v-121h-149v121h-164v97h135l-181 282h154z" />
    <glyph glyph-name="Euro.onum" horiz-adv-x="587" 
d="M481 144l76 -54s-39 -109 -212 -109c-164 0 -251 82 -263 228l-52 20v65h53c17 136 106 224 266 224c134 0 183 -61 183 -61l-38 -92s-90 42 -125 42c-85 0 -130 -35 -141 -113h293v-88h-293c12 -82 59 -115 131 -115c71 0 122 53 122 53z" />
    <glyph glyph-name="uni20B4.onum" horiz-adv-x="515" 
d="M461 272v-65h-198c-16 -5 -55 -20 -55 -57c0 -36 27 -57 83 -57c79 0 114 60 114 60l69 -59s-38 -113 -209 -113c-133 0 -191 59 -191 136c0 42 20 74 44 97l-71 16v65h220c19 9 43 27 43 59c0 31 -24 53 -82 53c-62 0 -121 -42 -121 -42l-37 96s62 57 188 57
c125 0 186 -61 186 -135c0 -42 -19 -74 -43 -98z" />
    <glyph glyph-name="afii61352.onum" horiz-adv-x="1192" 
d="M619 500v-500h-162l-236 348h-3l5 -45v-303h-134v500h161l236 -350h1l-3 34v316h135zM1151 392c0 -117 -79 -188 -221 -188c-148 0 -221 71 -221 188c0 116 73 188 221 188s221 -72 221 -188zM930 492c-62 0 -85 -34 -85 -99c0 -67 23 -106 85 -106s85 38 85 105
c0 66 -23 100 -85 100zM1084 112v-115h-313v115h313z" />
    <glyph glyph-name="onefifth" horiz-adv-x="969" 
d="M163 685h148v-455h-148v293c-29 -16 -65 -27 -106 -30l-12 98c60 8 118 53 118 94zM724 555l-392 -605l-94 51l393 605zM644 -11l-62 22l32 244h274v-101h-185l-9 -65c7 0 14 1 21 1c138 0 215 -53 215 -146c0 -110 -87 -164 -226 -164c-162 0 -189 110 -189 110l77 47
s25 -65 104 -65c68 0 92 37 92 74c0 30 -27 60 -91 60c-35 0 -48 -11 -53 -17z" />
    <glyph glyph-name="twofifths" horiz-adv-x="1041" 
d="M435 325v-95h-400v77s240 138 240 228c0 39 -20 67 -76 67c-67 0 -85 -52 -85 -52l-91 30s31 125 200 125c141 0 204 -71 204 -155c0 -89 -92 -168 -180 -225h188zM796 555l-392 -605l-94 51l393 605zM716 -11l-62 22l32 244h274v-101h-185l-9 -65c7 0 14 1 21 1
c138 0 215 -53 215 -146c0 -110 -87 -164 -226 -164c-162 0 -189 110 -189 110l77 47s25 -65 104 -65c68 0 92 37 92 74c0 30 -27 60 -91 60c-35 0 -48 -11 -53 -17z" />
    <glyph glyph-name="threefifths" horiz-adv-x="1041" 
d="M180 422l-57 56l118 114h-178v93h344v-59l-131 -118c110 -11 163 -62 163 -139c0 -104 -85 -159 -227 -159c-174 0 -194 112 -194 112l78 47s28 -67 111 -67c63 0 90 33 90 69c0 32 -28 56 -78 56c-29 0 -36 -4 -39 -5zM796 555l-392 -605l-94 51l393 605zM716 -11
l-62 22l32 244h274v-101h-185l-9 -65c7 0 14 1 21 1c138 0 215 -53 215 -146c0 -110 -87 -164 -226 -164c-162 0 -189 110 -189 110l77 47s25 -65 104 -65c68 0 92 37 92 74c0 30 -27 60 -91 60c-35 0 -48 -11 -53 -17z" />
    <glyph glyph-name="fourfifths" horiz-adv-x="1041" 
d="M135 692l127 -7c-16 -100 -45 -203 -90 -277h105v67l29 141h104v-208h53v-72l-53 -15v-91h-133v90h-233l-6 67c37 63 82 204 97 305zM796 555l-392 -605l-94 51l393 605zM716 -11l-62 22l32 244h274v-101h-185l-9 -65c7 0 14 1 21 1c138 0 215 -53 215 -146
c0 -110 -87 -164 -226 -164c-162 0 -189 110 -189 110l77 47s25 -65 104 -65c68 0 92 37 92 74c0 30 -27 60 -91 60c-35 0 -48 -11 -53 -17z" />
    <glyph glyph-name="ct" horiz-adv-x="875" 
d="M431 152l76 -54s-39 -117 -212 -117c-177 0 -264 97 -264 266c0 162 91 271 268 271h8c-8 19 -12 42 -12 69c0 73 51 163 178 163h236v-250h133v-118h-133v-206c0 -43 18 -73 60 -73c36 0 69 6 69 6v-109s-30 -19 -116 -19c-105 0 -160 41 -160 168v510h-85
c-61 0 -87 -34 -87 -92c0 -33 13 -56 29 -72c48 -20 70 -46 70 -46l-45 -91s-90 49 -125 49c-92 0 -136 -47 -136 -158c0 -114 51 -158 126 -158c71 0 122 61 122 61z" />
    <glyph glyph-name="a.alt" horiz-adv-x="623" 
d="M559 500v-500h-130l-15 56c-11 -22 -48 -75 -149 -75c-140 0 -234 106 -234 258c0 163 88 279 245 279c78 0 122 -40 139 -60l13 42h131zM309 91c85 0 103 76 103 76v179c-1 3 -19 61 -97 61c-95 0 -133 -56 -133 -164s39 -152 127 -152z" />
    <glyph glyph-name="aring.alt" horiz-adv-x="623" 
d="M559 500v-500h-130l-15 56c-11 -22 -48 -75 -149 -75c-140 0 -234 106 -234 258c0 163 88 279 245 279c78 0 122 -40 139 -60l13 42h131zM309 91c85 0 103 76 103 76v179c-1 3 -19 61 -97 61c-95 0 -133 -56 -133 -164s39 -152 127 -152zM449 698
c0 -69 -48 -118 -119 -118c-74 0 -119 49 -119 118c0 68 50 117 119 117c67 0 119 -49 119 -117zM381 698c0 31 -23 52 -51 52s-51 -21 -51 -52s21 -53 51 -53s51 22 51 53z" />
    <glyph glyph-name="agrave.alt" horiz-adv-x="623" 
d="M559 500v-500h-130l-15 56c-11 -22 -48 -75 -149 -75c-140 0 -234 106 -234 258c0 163 88 279 245 279c78 0 122 -40 139 -60l13 42h131zM309 91c85 0 103 76 103 76v179c-1 3 -19 61 -97 61c-95 0 -133 -56 -133 -164s39 -152 127 -152zM157 711l139 15l99 -147l-105 -8
z" />
    <glyph glyph-name="adieresis.alt" horiz-adv-x="623" 
d="M559 500v-500h-130l-15 56c-11 -22 -48 -75 -149 -75c-140 0 -234 106 -234 258c0 163 88 279 245 279c78 0 122 -40 139 -60l13 42h131zM309 91c85 0 103 76 103 76v179c-1 3 -19 61 -97 61c-95 0 -133 -56 -133 -164s39 -152 127 -152zM373 712h126v-121h-126v121z
M159 712h126v-121h-126v121z" />
    <glyph glyph-name="aogonek.alt" horiz-adv-x="623" 
d="M559 500v-500h-3s-98 -27 -98 -114c0 -47 37 -58 95 -58v-78c-106 0 -201 26 -201 133c0 53 37 91 77 117l-15 56c-11 -22 -48 -75 -149 -75c-140 0 -234 106 -234 258c0 163 88 279 245 279c78 0 122 -40 139 -60l13 42h131zM309 91c85 0 103 76 103 76v179
c-1 3 -19 61 -97 61c-95 0 -133 -56 -133 -164s39 -152 127 -152z" />
    <glyph glyph-name="abreve.alt" horiz-adv-x="623" 
d="M559 500v-500h-130l-15 56c-11 -22 -48 -75 -149 -75c-140 0 -234 106 -234 258c0 163 88 279 245 279c78 0 122 -40 139 -60l13 42h131zM309 91c85 0 103 76 103 76v179c-1 3 -19 61 -97 61c-95 0 -133 -56 -133 -164s39 -152 127 -152zM330 653c78 0 99 63 99 63l7 -2
l88 -18s-17 -126 -194 -126c-175 0 -193 126 -193 126l89 18l6 2s21 -63 98 -63z" />
    <glyph glyph-name="aacute.alt" horiz-adv-x="623" 
d="M559 500v-500h-130l-15 56c-11 -22 -48 -75 -149 -75c-140 0 -234 106 -234 258c0 163 88 279 245 279c78 0 122 -40 139 -60l13 42h131zM309 91c85 0 103 76 103 76v179c-1 3 -19 61 -97 61c-95 0 -133 -56 -133 -164s39 -152 127 -152zM362 726l139 -15l-134 -140
l-105 8z" />
    <glyph glyph-name="amacron.alt" horiz-adv-x="623" 
d="M559 500v-500h-130l-15 56c-11 -22 -48 -75 -149 -75c-140 0 -234 106 -234 258c0 163 88 279 245 279c78 0 122 -40 139 -60l13 42h131zM309 91c85 0 103 76 103 76v179c-1 3 -19 61 -97 61c-95 0 -133 -56 -133 -164s39 -152 127 -152zM449 692v-78h-248v78h248z" />
    <glyph glyph-name="acircumflex.alt" horiz-adv-x="623" 
d="M559 500v-500h-130l-15 56c-11 -22 -48 -75 -149 -75c-140 0 -234 106 -234 258c0 163 88 279 245 279c78 0 122 -40 139 -60l13 42h131zM309 91c85 0 103 76 103 76v179c-1 3 -19 61 -97 61c-95 0 -133 -56 -133 -164s39 -152 127 -152zM368 753l134 -85l-49 -90
l-124 81l-124 -81l-49 90l134 85h78z" />
    <glyph glyph-name="atilde.alt" horiz-adv-x="623" 
d="M559 500v-500h-130l-15 56c-11 -22 -48 -75 -149 -75c-140 0 -234 106 -234 258c0 163 88 279 245 279c78 0 122 -40 139 -60l13 42h131zM309 91c85 0 103 76 103 76v179c-1 3 -19 61 -97 61c-95 0 -133 -56 -133 -164s39 -152 127 -152zM508 718l32 -72
s-23 -63 -113 -63c-75 0 -120 51 -186 51c-46 0 -85 -38 -85 -38l-32 81s35 70 125 70c84 0 127 -54 187 -54c47 0 72 25 72 25z" />
    <glyph glyph-name="g.alt" horiz-adv-x="623" 
d="M559 500v-526c0 -182 -137 -243 -288 -243c-207 0 -246 115 -246 115l74 75s56 -75 173 -75c97 0 140 43 140 147v49h-3s-37 -61 -144 -61c-146 0 -234 106 -234 269c0 152 94 268 234 268c100 0 138 -52 149 -75l15 57h130zM315 91c71 0 93 46 97 57v184
c-1 4 -20 75 -103 75c-88 0 -127 -52 -127 -153c0 -108 38 -163 133 -163z" />
    <glyph glyph-name="gcommaaccent.alt" horiz-adv-x="623" 
d="M559 500v-526c0 -182 -137 -243 -288 -243c-207 0 -246 115 -246 115l74 75s56 -75 173 -75c97 0 140 43 140 147v49h-3s-37 -61 -144 -61c-146 0 -234 106 -234 269c0 152 94 268 234 268c100 0 138 -52 149 -75l15 57h130zM315 91c71 0 93 46 97 57v184
c-1 4 -20 75 -103 75c-88 0 -127 -52 -127 -153c0 -108 38 -163 133 -163zM350 567h-128c-7 33 -11 65 -11 94c0 96 38 167 106 197l58 -46c-43 -31 -76 -74 -79 -134h54v-111z" />
    <glyph glyph-name="gbreve.alt" horiz-adv-x="623" 
d="M559 500v-526c0 -182 -137 -243 -288 -243c-207 0 -246 115 -246 115l74 75s56 -75 173 -75c97 0 140 43 140 147v49h-3s-37 -61 -144 -61c-146 0 -234 106 -234 269c0 152 94 268 234 268c100 0 138 -52 149 -75l15 57h130zM315 91c71 0 93 46 97 57v184
c-1 4 -20 75 -103 75c-88 0 -127 -52 -127 -153c0 -108 38 -163 133 -163zM330 653c78 0 99 63 99 63l7 -2l88 -18s-17 -126 -194 -126c-175 0 -193 126 -193 126l89 18l6 2s21 -63 98 -63z" />
    <glyph glyph-name="y.alt" 
d="M400 -7v54c-13 -20 -55 -66 -153 -66c-120 0 -189 61 -189 179v340h148v-312c0 -47 26 -78 91 -78c74 0 103 43 103 43v347h147v-526c0 -182 -137 -243 -287 -243c-207 0 -246 115 -246 115l74 75s55 -75 172 -75c98 0 140 43 140 147z" />
    <glyph glyph-name="yacute.alt" 
d="M400 -7v54c-13 -20 -55 -66 -153 -66c-120 0 -189 61 -189 179v340h148v-312c0 -47 26 -78 91 -78c74 0 103 43 103 43v347h147v-526c0 -182 -137 -243 -287 -243c-207 0 -246 115 -246 115l74 75s55 -75 172 -75c98 0 140 43 140 147zM344 726l139 -15l-134 -140l-105 8
z" />
    <glyph glyph-name="ydieresis.alt" 
d="M400 -7v54c-13 -20 -55 -66 -153 -66c-120 0 -189 61 -189 179v340h148v-312c0 -47 26 -78 91 -78c74 0 103 43 103 43v347h147v-526c0 -182 -137 -243 -287 -243c-207 0 -246 115 -246 115l74 75s55 -75 172 -75c98 0 140 43 140 147zM354 712h126v-121h-126v121z
M140 712h126v-121h-126v121z" />
    <glyph glyph-name="afii10065.alt" horiz-adv-x="623" 
d="M559 500v-500h-130l-15 56c-11 -22 -48 -75 -149 -75c-140 0 -234 106 -234 258c0 163 88 279 245 279c78 0 122 -40 139 -60l13 42h131zM309 91c85 0 103 76 103 76v179c-1 3 -19 61 -97 61c-95 0 -133 -56 -133 -164s39 -152 127 -152z" />
    <glyph glyph-name="afii10066.alt" horiz-adv-x="605" 
d="M574 250c0 -166 -104 -269 -272 -269c-176 0 -271 103 -271 269c0 102 36 181 105 225c-40 27 -70 69 -70 134c0 86 81 151 208 151c66 0 89 -17 146 -17c48 0 78 17 78 17l40 -92s-31 -39 -88 -39c-69 0 -94 16 -146 16c-53 0 -95 -18 -95 -64c0 -39 30 -58 67 -64
c9 1 17 1 26 1c176 0 272 -102 272 -268zM302 407c-88 0 -120 -62 -120 -156c0 -96 32 -160 120 -160s121 64 121 159c0 94 -33 157 -121 157z" />
    <glyph glyph-name="afii10069.alt" horiz-adv-x="623" 
d="M559 500v-526c0 -182 -137 -243 -288 -243c-207 0 -246 115 -246 115l74 75s56 -75 173 -75c97 0 140 43 140 147v49h-3s-37 -61 -144 -61c-146 0 -234 106 -234 269c0 152 94 268 234 268c100 0 138 -52 149 -75l15 57h130zM315 91c71 0 93 46 97 57v184
c-1 4 -20 75 -103 75c-88 0 -127 -52 -127 -153c0 -108 38 -163 133 -163z" />
    <glyph glyph-name="afii10085.alt" 
d="M400 -7v54c-13 -20 -55 -66 -153 -66c-120 0 -189 61 -189 179v340h148v-312c0 -47 26 -78 91 -78c74 0 103 43 103 43v347h147v-526c0 -182 -137 -243 -287 -243c-207 0 -246 115 -246 115l74 75s55 -75 172 -75c98 0 140 43 140 147z" />
    <glyph glyph-name="afii10110.alt" 
d="M400 -7v54c-13 -20 -55 -66 -153 -66c-120 0 -189 61 -189 179v340h148v-312c0 -47 26 -78 91 -78c74 0 103 43 103 43v347h147v-526c0 -182 -137 -243 -287 -243c-207 0 -246 115 -246 115l74 75s55 -75 172 -75c98 0 140 43 140 147zM311 653c78 0 99 63 99 63l7 -2
l88 -18s-17 -126 -194 -126c-175 0 -193 126 -193 126l89 18l6 2s21 -63 98 -63z" />
    <glyph glyph-name="Epsilon.alt" horiz-adv-x="678" 
d="M523 385v-117h-319c17 -97 82 -158 187 -158c132 0 214 93 214 93l61 -79s-71 -143 -282 -143c-232 0 -345 138 -345 341s121 345 347 345c183 0 246 -102 246 -102l-50 -91s-135 65 -186 65c-115 0 -174 -60 -191 -154h318z" />
    <glyph glyph-name="Epsilontonos.alt" horiz-adv-x="726" 
d="M64 782l95 -29l-86 -192l-73 20zM570 385v-117h-319c17 -97 82 -158 187 -158c132 0 214 93 214 93l61 -79s-71 -143 -282 -143c-232 0 -345 138 -345 341s121 345 347 345c183 0 246 -102 246 -102l-50 -91s-135 65 -186 65c-115 0 -174 -60 -191 -154h318z" />
    <glyph glyph-name="epsilon.alt" horiz-adv-x="523" 
d="M439 147l68 -64s-47 -102 -212 -102c-177 0 -264 99 -264 268c0 155 91 269 268 269c111 0 183 -54 183 -54l-38 -94s-90 34 -125 34c-77 0 -126 -26 -140 -103h220v-101h-220c14 -82 67 -106 135 -106c77 0 125 53 125 53z" />
    <glyph glyph-name="epsilontonos.alt" horiz-adv-x="523" 
d="M439 147l68 -64s-47 -102 -212 -102c-177 0 -264 99 -264 268c0 155 91 269 268 269c111 0 183 -54 183 -54l-38 -94s-90 34 -125 34c-77 0 -126 -26 -140 -103h220v-101h-220c14 -82 67 -106 135 -106c77 0 125 53 125 53zM325 782l95 -29l-86 -192l-73 20z" />
    <glyph glyph-name="apple" unicode="&#xf8ff;" horiz-adv-x="2015" 
d="M101 265l-6 57c82 3 171 239 222 371c-65 -4 -128 -37 -128 -93c0 -15 5 -32 15 -50l-54 -22c-11 21 -16 42 -16 62c0 87 94 157 196 157c117 0 142 -52 152 -89l44 -174c6 -20 12 -30 19 -30c9 0 29 5 29 5v-42s-52 -14 -82 -14c-23 0 -32 14 -42 52l-5 18h-151
c-50 -109 -116 -207 -193 -208zM1401 74l-4 58c56 0 84 23 84 55c0 26 -23 38 -46 38c-48 0 -72 -54 -72 -111c0 -74 45 -121 111 -121c23 0 49 6 77 19l25 -41c-37 -27 -80 -40 -121 -40c-89 0 -168 62 -168 178c0 94 64 163 156 163c42 0 103 -24 103 -76s-44 -72 -83 -72
v-2c39 -4 76 -7 110 -7c172 0 277 57 277 176l64 -20c0 -144 -129 -218 -321 -218c-59 0 -123 7 -192 21zM1058 -125l-77 -3c0 105 3 211 3 317c0 5 0 13 -1 13c-6 3 -28 5 -28 5l2 42s74 4 88 4c13 -1 17 -11 17 -28v-30c1 9 19 63 88 63c67 0 107 -55 107 -127
c0 -77 -53 -143 -168 -143c-11 0 -21 1 -30 2c-1 -39 -1 -77 -1 -115zM1192 403c-39 0 -52 17 -53 59h-1s-13 -64 -86 -64c-68 0 -108 50 -108 123c0 77 54 147 168 147c17 0 32 -2 45 -4c12 47 30 86 59 120l61 -40c-62 -76 -63 -160 -63 -258v-9c0 -19 3 -27 12 -27
c6 0 20 4 20 4v-36s-26 -15 -54 -15zM282 165l-59 3c0 76 60 161 215 161c20 0 42 -2 66 -5c27 -3 52 -4 73 -4c93 0 129 25 140 60l55 -8c-10 -47 -51 -112 -190 -112c-11 0 -23 0 -36 1v-179c0 -25 2 -30 5 -30c6 0 27 2 27 2v-51s-64 -10 -91 -10c-13 0 -22 20 -22 89
v186h-10c-122 0 -173 -36 -173 -103zM585 -126l9 61c16 -3 31 -4 44 -4c69 0 107 35 130 70c-10 31 -54 159 -85 159c-23 0 -84 -19 -84 -19l-8 44s53 40 131 40c43 0 74 -95 91 -167c30 63 54 193 56 203l74 -12c-2 -11 -48 -174 -103 -262c-44 -70 -109 -118 -200 -118
c-17 0 -36 1 -55 5zM701 410l-76 -4c0 64 2 129 2 192c0 10 -1 14 -4 15c-6 4 -40 6 -57 15l10 48c20 -8 68 -8 98 -13c26 -5 29 -24 29 -56v-16h1s18 76 92 76c59 0 81 -36 81 -99c0 -24 -2 -56 -2 -91c0 -19 3 -27 12 -27c6 0 19 4 19 4v-36s-26 -15 -53 -15
c-42 0 -53 19 -53 65c0 6 2 97 2 97c0 20 -10 37 -36 37c-36 0 -58 -37 -63 -46c-1 -49 -2 -97 -2 -146zM1587 259l8 57c14 -6 27 -9 41 -9c50 0 94 40 94 134c0 66 2 93 2 157c0 10 -1 14 -3 15c-7 2 -27 4 -27 4l2 42s54 4 76 4c26 0 28 -24 28 -56c0 -66 -3 -90 -3 -156
c0 -142 -65 -205 -149 -205c-22 0 -45 5 -69 13zM1386 410l-77 -4c0 64 3 129 3 192c0 6 -1 13 -2 14c-7 3 -29 5 -29 5l2 42s64 4 78 4c13 -8 16 -22 16 -50v-49c3 32 24 104 76 104c17 0 30 -8 30 -8v-70s-30 3 -45 3c-26 0 -45 -47 -51 -75c0 -36 -1 -75 -1 -108z
M1620 607c0 -43 -3 -85 -3 -130c0 -19 3 -27 12 -27c6 0 19 4 19 4v-36s-25 -15 -53 -15c-42 0 -53 19 -53 65c0 44 3 87 3 130c0 10 -1 14 -3 15c-7 2 -28 4 -28 4l1 42s55 4 77 4c26 0 28 -24 28 -56zM1062 159c-1 -38 -2 -76 -2 -114c14 -5 27 -7 41 -7c54 0 77 37 77 81
c0 45 -22 75 -60 75c-35 0 -52 -29 -56 -35zM1139 498v1c0 41 3 77 7 110c-14 5 -29 8 -44 8c-54 0 -79 -39 -79 -83c0 -45 22 -72 60 -72c37 0 54 33 56 36zM408 633c-6 21 -11 40 -32 51c-15 -45 -35 -103 -60 -162h118zM1732 746c0 23 19 42 41 42s42 -19 42 -42
c0 -24 -20 -42 -42 -42s-41 18 -41 42zM1544 746c0 23 19 42 41 42s41 -19 41 -42c0 -24 -19 -42 -41 -42s-41 18 -41 42z" />
    <glyph glyph-name="ampersand.alt" horiz-adv-x="678" 
d="M436 423h148c6 -38 9 -77 9 -115c0 -10 -1 -19 -1 -29h4c15 -1 29 -1 43 -1l-12 -124c-18 0 -37 1 -56 3c-34 -103 -112 -176 -259 -176c-195 0 -273 89 -273 199c0 80 55 129 117 156c-45 46 -72 98 -72 154c0 92 73 177 216 177c153 0 191 -67 191 -67l-46 -90
s-85 40 -119 40c-66 0 -100 -33 -100 -79c0 -85 106 -141 223 -170c0 39 -5 80 -13 122zM432 185c-68 19 -134 48 -190 83c-29 -13 -53 -39 -53 -79c0 -50 39 -90 129 -90c58 0 95 33 114 86z" />
    <glyph glyph-name="a.01" horiz-adv-x="577" 
d="M476 -15c-74 0 -111 36 -111 89h-3c-2 -7 -24 -93 -149 -93c-115 0 -184 59 -184 152c0 148 205 178 326 185v2c0 64 -36 86 -97 86c-76 0 -110 -48 -110 -48l-83 68s45 92 208 92c146 0 228 -56 228 -195v-179c0 -42 9 -54 32 -54c16 0 27 3 27 3v-80s-27 -28 -84 -28z
M257 86c84 0 98 66 98 66v79c-104 -9 -182 -29 -182 -82c0 -42 26 -63 84 -63z" />
    <glyph glyph-name="atilde.01" horiz-adv-x="577" 
d="M476 -15c-74 0 -111 36 -111 89h-3c-2 -7 -24 -93 -149 -93c-115 0 -184 59 -184 152c0 148 205 178 326 185v2c0 64 -36 86 -97 86c-76 0 -110 -48 -110 -48l-83 68s45 92 208 92c146 0 228 -56 228 -195v-179c0 -42 9 -54 32 -54c16 0 27 3 27 3v-80s-27 -28 -84 -28z
M257 86c84 0 98 66 98 66v79c-104 -9 -182 -29 -182 -82c0 -42 26 -63 84 -63zM476 718l32 -72s-23 -63 -113 -63c-75 0 -120 51 -186 51c-46 0 -85 -38 -85 -38l-32 81s35 70 125 70c84 0 127 -54 187 -54c47 0 72 25 72 25z" />
    <glyph glyph-name="acircumflex.01" horiz-adv-x="577" 
d="M476 -15c-74 0 -111 36 -111 89h-3c-2 -7 -24 -93 -149 -93c-115 0 -184 59 -184 152c0 148 205 178 326 185v2c0 64 -36 86 -97 86c-76 0 -110 -48 -110 -48l-83 68s45 92 208 92c146 0 228 -56 228 -195v-179c0 -42 9 -54 32 -54c16 0 27 3 27 3v-80s-27 -28 -84 -28z
M257 86c84 0 98 66 98 66v79c-104 -9 -182 -29 -182 -82c0 -42 26 -63 84 -63zM336 753l134 -85l-49 -90l-124 81l-124 -81l-49 90l134 85h78z" />
    <glyph glyph-name="adieresis.01" horiz-adv-x="577" 
d="M476 -15c-74 0 -111 36 -111 89h-3c-2 -7 -24 -93 -149 -93c-115 0 -184 59 -184 152c0 148 205 178 326 185v2c0 64 -36 86 -97 86c-76 0 -110 -48 -110 -48l-83 68s45 92 208 92c146 0 228 -56 228 -195v-179c0 -42 9 -54 32 -54c16 0 27 3 27 3v-80s-27 -28 -84 -28z
M257 86c84 0 98 66 98 66v79c-104 -9 -182 -29 -182 -82c0 -42 26 -63 84 -63zM340 712h126v-121h-126v121zM126 712h126v-121h-126v121z" />
    <glyph glyph-name="aogonek.01" horiz-adv-x="577" 
d="M560 13c0 0 -17 -16 -47 -24c-29 -14 -71 -44 -71 -103c0 -47 37 -58 95 -58v-78c-106 0 -201 26 -201 133c0 51 35 89 73 116c-29 14 -44 41 -44 75h-3c-2 -7 -24 -93 -149 -93c-115 0 -184 59 -184 152c0 148 205 178 326 185v2c0 64 -36 86 -97 86
c-76 0 -110 -48 -110 -48l-83 68s45 92 208 92c146 0 228 -56 228 -195v-179c0 -42 9 -54 32 -54c16 0 27 3 27 3v-80zM257 86c84 0 98 66 98 66v79c-104 -9 -182 -29 -182 -82c0 -42 26 -63 84 -63z" />
    <glyph glyph-name="abreve.01" horiz-adv-x="577" 
d="M476 -15c-74 0 -111 36 -111 89h-3c-2 -7 -24 -93 -149 -93c-115 0 -184 59 -184 152c0 148 205 178 326 185v2c0 64 -36 86 -97 86c-76 0 -110 -48 -110 -48l-83 68s45 92 208 92c146 0 228 -56 228 -195v-179c0 -42 9 -54 32 -54c16 0 27 3 27 3v-80s-27 -28 -84 -28z
M257 86c84 0 98 66 98 66v79c-104 -9 -182 -29 -182 -82c0 -42 26 -63 84 -63zM297 653c78 0 99 63 99 63l7 -2l88 -18s-17 -126 -194 -126c-175 0 -193 126 -193 126l89 18l6 2s21 -63 98 -63z" />
    <glyph glyph-name="aacute.01" horiz-adv-x="577" 
d="M476 -15c-74 0 -111 36 -111 89h-3c-2 -7 -24 -93 -149 -93c-115 0 -184 59 -184 152c0 148 205 178 326 185v2c0 64 -36 86 -97 86c-76 0 -110 -48 -110 -48l-83 68s45 92 208 92c146 0 228 -56 228 -195v-179c0 -42 9 -54 32 -54c16 0 27 3 27 3v-80s-27 -28 -84 -28z
M257 86c84 0 98 66 98 66v79c-104 -9 -182 -29 -182 -82c0 -42 26 -63 84 -63zM329 726l139 -15l-134 -140l-105 8z" />
    <glyph glyph-name="amacron.01" horiz-adv-x="577" 
d="M476 -15c-74 0 -111 36 -111 89h-3c-2 -7 -24 -93 -149 -93c-115 0 -184 59 -184 152c0 148 205 178 326 185v2c0 64 -36 86 -97 86c-76 0 -110 -48 -110 -48l-83 68s45 92 208 92c146 0 228 -56 228 -195v-179c0 -42 9 -54 32 -54c16 0 27 3 27 3v-80s-27 -28 -84 -28z
M257 86c84 0 98 66 98 66v79c-104 -9 -182 -29 -182 -82c0 -42 26 -63 84 -63zM421 692v-78h-248v78h248z" />
    <glyph glyph-name="aring.01" horiz-adv-x="577" 
d="M476 -15c-74 0 -111 36 -111 89h-3c-2 -7 -24 -93 -149 -93c-115 0 -184 59 -184 152c0 148 205 178 326 185v2c0 64 -36 86 -97 86c-76 0 -110 -48 -110 -48l-83 68s45 92 208 92c146 0 228 -56 228 -195v-179c0 -42 9 -54 32 -54c16 0 27 3 27 3v-80s-27 -28 -84 -28z
M257 86c84 0 98 66 98 66v79c-104 -9 -182 -29 -182 -82c0 -42 26 -63 84 -63zM416 698c0 -69 -48 -118 -119 -118c-74 0 -119 49 -119 118c0 68 50 117 119 117c67 0 119 -49 119 -117zM348 698c0 31 -23 52 -51 52s-51 -21 -51 -52s21 -53 51 -53s51 22 51 53z" />
    <glyph glyph-name="agrave.01" horiz-adv-x="577" 
d="M476 -15c-74 0 -111 36 -111 89h-3c-2 -7 -24 -93 -149 -93c-115 0 -184 59 -184 152c0 148 205 178 326 185v2c0 64 -36 86 -97 86c-76 0 -110 -48 -110 -48l-83 68s45 92 208 92c146 0 228 -56 228 -195v-179c0 -42 9 -54 32 -54c16 0 27 3 27 3v-80s-27 -28 -84 -28z
M257 86c84 0 98 66 98 66v79c-104 -9 -182 -29 -182 -82c0 -42 26 -63 84 -63zM124 711l139 15l99 -147l-105 -8z" />
    <glyph glyph-name="l.01" horiz-adv-x="294" 
d="M65 70v680h147v-611c0 -42 8 -49 32 -49c15 0 27 3 27 3v-80s-35 -28 -92 -28c-59 0 -114 17 -114 85z" />
    <glyph glyph-name="lacute.01" horiz-adv-x="294" 
d="M65 70v680h147v-611c0 -42 8 -49 32 -49c15 0 27 3 27 3v-80s-35 -28 -92 -28c-59 0 -114 17 -114 85zM189 951l139 -15l-134 -140l-105 8z" />
    <glyph glyph-name="lcommaaccent.01" horiz-adv-x="294" 
d="M65 70v680h147v-611c0 -42 8 -49 32 -49c15 0 27 3 27 3v-80s-35 -28 -92 -28c-59 0 -114 17 -114 85zM117 -52h128c7 -33 11 -65 11 -94c0 -96 -38 -167 -106 -197l-58 46c43 31 76 74 79 134h-54v111z" />
    <glyph glyph-name="lcaron.01" horiz-adv-x="347" 
d="M65 70v680h147v-611c0 -42 8 -49 32 -49c15 0 27 3 27 3v-80s-35 -28 -92 -28c-59 0 -114 17 -114 85zM296 785l100 1c0 -80 -22 -183 -48 -244l-90 12c18 58 26 151 26 231h12z" />
    <glyph glyph-name="lslash.01" horiz-adv-x="364" 
d="M104 70v222l-65 -43l-40 63l105 69v369h147v-273l79 52l40 -62l-119 -79v-249c0 -42 8 -49 32 -49c15 0 27 3 27 3v-80s-35 -28 -92 -28c-59 0 -114 17 -114 85z" />
    <glyph glyph-name="fl.01" horiz-adv-x="681" 
d="M392 500v-118h-152v-382h-147v382h-57v98l57 19v72c0 113 43 189 178 189c97 0 127 -42 127 -42l-29 -87s-52 14 -74 14c-35 0 -55 -25 -55 -89v-56h152zM452 70v680h147v-611c0 -42 8 -49 32 -49c15 0 27 3 27 3v-80s-35 -28 -92 -28c-59 0 -114 17 -114 85z" />
    <glyph glyph-name="p.01" horiz-adv-x="641" 
d="M82 -250v618c0 35 -11 45 -35 45c-15 0 -41 -4 -41 -4v81s37 27 108 27c51 0 98 -35 110 -80c7 16 47 81 160 81c140 0 226 -106 226 -258c0 -163 -88 -279 -234 -279c-108 0 -144 61 -144 61h-3v-292h-147zM332 403c-74 0 -98 -54 -103 -68v-187c3 -9 25 -53 96 -53
c96 0 134 53 134 162c0 108 -39 146 -127 146z" />
    <glyph glyph-name="r.01" horiz-adv-x="422" 
d="M418 493l-29 -118s-46 14 -67 14c-64 0 -93 -62 -93 -62v-327h-147v374c-1 30 -13 39 -35 39c-15 0 -41 -4 -41 -4v81s37 27 108 27c49 0 95 -33 109 -75c13 29 44 76 113 76c64 0 82 -25 82 -25z" />
    <glyph glyph-name="racute.01" horiz-adv-x="422" 
d="M418 493l-29 -118s-46 14 -67 14c-64 0 -93 -62 -93 -62v-327h-147v374c-1 30 -13 39 -35 39c-15 0 -41 -4 -41 -4v81s37 27 108 27c49 0 95 -33 109 -75c13 29 44 76 113 76c64 0 82 -25 82 -25zM267 726l139 -15l-134 -140l-105 8z" />
    <glyph glyph-name="rcommaaccent.01" horiz-adv-x="422" 
d="M418 493l-29 -118s-46 14 -67 14c-64 0 -93 -62 -93 -62v-327h-147v374c-1 30 -13 39 -35 39c-15 0 -41 -4 -41 -4v81s37 27 108 27c49 0 95 -33 109 -75c13 29 44 76 113 76c64 0 82 -25 82 -25zM95 -52h128c7 -33 11 -65 11 -94c0 -96 -38 -167 -106 -197l-58 46
c43 31 76 74 79 134h-54v111z" />
    <glyph glyph-name="rcaron.01" horiz-adv-x="422" 
d="M418 493l-29 -118s-46 14 -67 14c-64 0 -93 -62 -93 -62v-327h-147v374c-1 30 -13 39 -35 39c-15 0 -41 -4 -41 -4v81s37 27 108 27c49 0 95 -33 109 -75c13 29 44 76 113 76c64 0 82 -25 82 -25zM196 572l-133 85l48 90l124 -82l125 82l48 -90l-134 -85h-78z" />
    <glyph glyph-name="dotlessi.01" horiz-adv-x="294" 
d="M65 70v430h147v-361c0 -42 8 -49 32 -49c15 0 27 3 27 3v-80s-35 -28 -92 -28c-59 0 -114 17 -114 85z" />
    <glyph glyph-name="alpha.01" horiz-adv-x="641" 
d="M559 500v-373c1 -32 10 -37 32 -37c15 0 27 3 27 3v-80s-35 -28 -92 -28c-56 0 -99 21 -104 82h-3s-27 -86 -154 -86c-140 0 -234 106 -234 258c0 163 88 279 234 279c107 0 143 -61 143 -61h4v11l16 32h131zM309 96c85 0 103 71 103 71v182c-1 3 -19 55 -97 55
c-95 0 -133 -61 -133 -161c0 -101 39 -147 127 -147z" />
    <glyph glyph-name="alphatonos.01" horiz-adv-x="623" 
d="M559 500v-373c1 -32 10 -37 32 -37c15 0 27 3 27 3v-80s-35 -28 -92 -28c-56 0 -99 21 -104 82h-3s-27 -86 -154 -86c-140 0 -234 106 -234 258c0 163 88 279 234 279c107 0 143 -61 143 -61h4v11l16 32h131zM309 96c85 0 103 71 103 71v182c-1 3 -19 55 -97 55
c-95 0 -133 -61 -133 -161c0 -101 39 -147 127 -147zM325 782l95 -29l-86 -192l-73 20z" />
    <glyph glyph-name="iotatonos.01" horiz-adv-x="294" 
d="M65 70v430h147v-361c0 -42 8 -49 32 -49c15 0 27 3 27 3v-80s-35 -28 -92 -28c-59 0 -114 17 -114 85zM153 782l95 -29l-86 -192l-73 20z" />
    <glyph glyph-name="iota.01" horiz-adv-x="294" 
d="M65 70v430h147v-361c0 -42 8 -49 32 -49c15 0 27 3 27 3v-80s-35 -28 -92 -28c-59 0 -114 17 -114 85z" />
    <glyph glyph-name="iotadieresis.01" horiz-adv-x="294" 
d="M65 70v430h147v-361c0 -42 8 -49 32 -49c15 0 27 3 27 3v-80s-35 -28 -92 -28c-59 0 -114 17 -114 85zM183 712h126v-121h-126v121zM-31 712h126v-121h-126v121z" />
    <glyph glyph-name="iotadieresistonos.01" horiz-adv-x="294" 
d="M240 712h126v-121h-126v121zM-64 712h126v-121h-126v121zM65 70v430h147v-361c0 -42 8 -49 32 -49c15 0 27 3 27 3v-80s-35 -28 -92 -28c-59 0 -114 17 -114 85zM145 782l95 -29l-86 -192l-73 20z" />
    <glyph glyph-name="pi.01" horiz-adv-x="626" 
d="M396 70v312h-184v-382h-147v500h478v-361c0 -42 9 -49 32 -49c16 0 27 3 27 3v-80s-27 -28 -84 -28c-66 0 -122 32 -122 85z" />
    <glyph glyph-name="mu.01" horiz-adv-x="636" 
d="M65 283v217h147v-312c0 -47 26 -78 91 -78c70 0 100 38 103 42v348h147v-370c1 -34 10 -40 32 -40c16 0 27 3 27 3v-80s-35 -28 -91 -28c-58 0 -103 24 -113 65c-11 -18 -52 -69 -155 -69c-19 0 -36 2 -52 5l3 -236h-147z" />
    <glyph glyph-name="afii10065.01" horiz-adv-x="577" 
d="M476 -15c-74 0 -111 36 -111 89h-3c-2 -7 -24 -93 -149 -93c-115 0 -184 59 -184 152c0 148 205 178 326 185v2c0 64 -36 86 -97 86c-76 0 -110 -48 -110 -48l-83 68s45 92 208 92c146 0 228 -56 228 -195v-179c0 -42 9 -54 32 -54c16 0 27 3 27 3v-80s-27 -28 -84 -28z
M257 86c84 0 98 66 98 66v79c-104 -9 -182 -29 -182 -82c0 -42 26 -63 84 -63z" />
    <glyph glyph-name="afii10103.01" horiz-adv-x="294" 
d="M65 70v430h147v-361c0 -42 8 -49 32 -49c15 0 27 3 27 3v-80s-35 -28 -92 -28c-59 0 -114 17 -114 85zM75 712h130v-121h-130v121z" />
    <glyph glyph-name="afii10104.01" horiz-adv-x="294" 
d="M65 70v430h147v-361c0 -42 8 -49 32 -49c15 0 27 3 27 3v-80s-35 -28 -92 -28c-59 0 -114 17 -114 85zM183 712h126v-121h-126v121zM-31 712h126v-121h-126v121z" />
    <glyph glyph-name="afii10078.01" horiz-adv-x="803" 
d="M590 77v158l6 128h-4l-128 -363h-143l-129 361h-3l6 -127v-234h-130v500h182l145 -412h2l141 412h186v-375c1 -26 10 -35 32 -35c15 0 27 3 27 3v-80s-35 -28 -92 -28c-66 0 -98 23 -98 92z" />
    <glyph glyph-name="afii10079.01" horiz-adv-x="634" 
d="M65 0v500h147v-188h193v188h147v-361c0 -42 8 -49 32 -49c15 0 27 3 27 3v-80s-35 -28 -92 -28c-67 0 -114 32 -114 85v131h-193v-201h-147z" />
    <glyph glyph-name="afii10081.01" horiz-adv-x="626" 
d="M396 70v312h-184v-382h-147v500h478v-361c0 -42 9 -49 32 -49c16 0 27 3 27 3v-80s-27 -28 -84 -28c-66 0 -122 32 -122 85z" />
    <glyph glyph-name="afii10082.01" horiz-adv-x="641" 
d="M82 -250v618c0 35 -11 45 -35 45c-15 0 -41 -4 -41 -4v81s37 27 108 27c51 0 98 -35 110 -80c7 16 47 81 160 81c140 0 226 -106 226 -258c0 -163 -88 -279 -234 -279c-108 0 -144 61 -144 61h-3v-292h-147zM332 403c-74 0 -98 -54 -103 -68v-187c3 -9 25 -53 96 -53
c96 0 134 53 134 162c0 108 -39 146 -127 146z" />
    <glyph glyph-name="afii10084.01" horiz-adv-x="438" 
d="M132 70v312h-128v118h423v-118h-148v-243c0 -42 8 -49 32 -49c15 0 27 3 27 3v-80s-35 -28 -92 -28c-59 0 -114 17 -114 85z" />
    <glyph glyph-name="afii10097.01" horiz-adv-x="583" 
d="M501 500v-361c0 -42 8 -49 32 -49c15 0 27 3 27 3v-80s-35 -28 -92 -28c-66 0 -114 32 -114 85v113h-74l-88 -183h-154l108 199c-67 23 -101 71 -101 139c0 107 73 162 226 162h230zM187 334c0 -48 34 -72 93 -72h4h70v140h-68c-69 0 -99 -19 -99 -68z" />
    <glyph glyph-name="quoteright_afii10104.01" horiz-adv-x="415" 
d="M106 627h-54v123h141c5 -22 7 -44 7 -65c0 -118 -69 -223 -144 -256l-65 53c46 33 115 78 115 145zM303 712h126v-121h-126v121zM186 70v430h147v-361c0 -42 8 -49 32 -49c15 0 27 3 27 3v-80s-35 -28 -92 -28c-59 0 -114 17 -114 85z" />
    <glyph glyph-name="afii10104_afii10104.01" horiz-adv-x="590" 
d="M-32 712h126v-121h-126v121zM478 712h126v-121h-126v121zM311 712h125v-121h-125v121zM138 712h125v-121h-125v121zM65 70v430h147v-361c0 -42 8 -49 32 -49c15 0 27 3 27 3v-80s-35 -28 -92 -28c-59 0 -114 17 -114 85zM361 70v430h147v-361c0 -42 8 -49 32 -49
c15 0 27 3 27 3v-80s-35 -28 -92 -28c-59 0 -114 17 -114 85z" />
    <glyph glyph-name="afii10103_afii10104.01" horiz-adv-x="590" 
d="M478 712h126v-121h-126v121zM289 712h126v-121h-126v121zM65 70v430h147v-361c0 -42 8 -49 32 -49c15 0 27 3 27 3v-80s-35 -28 -92 -28c-59 0 -114 17 -114 85zM75 712h130v-121h-130v121zM361 70v430h147v-361c0 -42 8 -49 32 -49c15 0 27 3 27 3v-80s-35 -28 -92 -28
c-59 0 -114 17 -114 85z" />
    <glyph glyph-name="afii10086.hist" horiz-adv-x="412" 
d="M392 277v-118h-152v-409h-147v409h-57v99l57 10v114h-57v98l57 11v80c0 113 43 189 178 189c97 0 127 -42 127 -42l-29 -87s-52 14 -74 14c-35 0 -55 -25 -55 -89v-56h152v-118h-152v-105h152z" />
    <glyph glyph-name="afii10097.hist" horiz-adv-x="641" 
d="M576 500v-500h-130l-15 58c-11 -20 -53 -77 -159 -77c-147 0 -241 106 -241 258c0 163 95 279 252 279c82 0 131 -44 149 -62l13 44h131zM316 84c86 0 114 68 114 68v48h-254c11 -84 58 -116 140 -116zM323 415c-84 0 -130 -38 -144 -114h251v60s-28 54 -107 54z" />
    <glyph glyph-name="a.subscript" horiz-adv-x="474" 
d="M309 0l-24 45c-6 -16 -31 -58 -116 -58c-91 0 -140 41 -140 106c0 103 158 125 254 129v9c0 30 -22 45 -70 45c-61 0 -103 -33 -103 -33l-44 63s36 57 166 57c117 0 183 -39 183 -137v-226h-106zM219 68c54 0 63 29 64 41v45c-78 -5 -124 -15 -124 -50
c0 -25 21 -36 60 -36z" />
    <glyph glyph-name="e.subscript" horiz-adv-x="458" 
d="M390 101l30 -65s-49 -49 -180 -49c-124 0 -209 61 -209 182c0 123 93 194 210 194c112 0 188 -66 188 -167c0 -36 -11 -56 -11 -56h-262c2 -49 38 -69 102 -69c86 0 132 30 132 30zM241 281c-49 0 -81 -26 -85 -74h162v4c0 47 -30 70 -77 70z" />
    <glyph glyph-name="o.subscript" horiz-adv-x="504" 
d="M473 175c0 -117 -79 -188 -221 -188c-148 0 -221 71 -221 188c0 116 73 188 221 188s221 -72 221 -188zM252 275c-62 0 -85 -34 -85 -99c0 -67 23 -106 85 -106s85 38 85 105c0 66 -23 100 -85 100z" />
    <glyph glyph-name="a.sc" horiz-adv-x="640" 
d="M217 500h207l188 -500h-166l-28 95h-199l-27 -95h-163zM321 409h-3l-71 -221h143z" />
    <glyph glyph-name="b.sc" horiz-adv-x="579" 
d="M89 0v500h217c152 0 207 -67 207 -136c0 -47 -32 -79 -69 -100c62 -20 96 -60 96 -114c0 -87 -58 -150 -227 -150h-224zM308 221h-80v-126h70c67 0 94 22 94 64c0 41 -30 62 -84 62zM228 289h73c31 0 67 14 67 59c0 41 -33 57 -90 57h-50v-116z" />
    <glyph glyph-name="c.sc" horiz-adv-x="572" 
d="M537 435l-49 -83s-105 55 -148 55c-112 0 -166 -62 -166 -163c0 -98 57 -153 169 -153c98 0 171 73 171 73l45 -69s-48 -114 -228 -114c-193 0 -292 107 -292 263c0 157 106 274 293 274c149 0 205 -83 205 -83z" />
    <glyph glyph-name="d.sc" horiz-adv-x="646" 
d="M300 500c199 0 307 -86 307 -252c0 -162 -102 -248 -305 -248h-213v500h211zM300 386h-63v-272h65c95 0 170 32 170 134c0 103 -75 138 -172 138z" />
    <glyph glyph-name="e.sc" horiz-adv-x="518" 
d="M472 109v-109h-383v500h367v-109h-220v-90h193v-99h-193v-93h236z" />
    <glyph glyph-name="f.sc" horiz-adv-x="496" 
d="M447 270v-99h-210v-171h-148v500h393v-109h-245v-121h210z" />
    <glyph glyph-name="g.sc" horiz-adv-x="637" 
d="M569 296v-296h-101l-12 34c-30 -29 -76 -53 -146 -53c-178 0 -271 106 -271 267c0 159 105 270 307 270c139 0 195 -60 195 -60l-44 -91s-105 40 -146 40c-119 0 -177 -59 -177 -159c0 -107 61 -157 164 -157c82 0 106 38 111 47v52h-97v106h217z" />
    <glyph glyph-name="h.sc" horiz-adv-x="677" 
d="M588 500v-500h-148v200h-203v-200h-148v500h148v-201h203v201h148z" />
    <glyph glyph-name="i.sc" horiz-adv-x="326" 
d="M237 500v-500h-148v500h148z" />
    <glyph glyph-name="j.sc" horiz-adv-x="428" 
d="M201 167v333h148v-341c0 -132 -76 -178 -182 -178c-140 0 -166 83 -166 83l66 67s27 -33 70 -33c38 0 64 18 64 69z" />
    <glyph glyph-name="k.sc" horiz-adv-x="633" 
d="M89 0v500h148v-220l48 28l163 192h162l-209 -238l228 -262h-170l-168 194l-54 -25v-169h-148z" />
    <glyph glyph-name="l.sc" horiz-adv-x="474" 
d="M463 109v-109h-374v500h148v-391h226z" />
    <glyph glyph-name="m.sc" horiz-adv-x="866" 
d="M777 500v-500h-135v343h-4l-135 -343h-142l-135 343h-4v-343h-133v500h187l154 -388h4l155 388h188z" />
    <glyph glyph-name="n.sc" horiz-adv-x="708" 
d="M619 500v-500h-162l-236 348h-3l5 -45v-303h-134v500h161l236 -350h1l-3 34v316h135z" />
    <glyph glyph-name="o.sc" horiz-adv-x="639" 
d="M600 250c0 -158 -90 -269 -280 -269s-281 111 -281 269c0 157 91 268 281 268s280 -111 280 -268zM465 250c0 96 -40 158 -145 158s-146 -62 -146 -158c0 -97 40 -159 146 -159s145 62 145 159z" />
    <glyph glyph-name="p.sc" horiz-adv-x="547" 
d="M89 0v500h200c159 0 234 -61 234 -175c0 -126 -92 -182 -231 -182h-55v-143h-148zM279 405h-42v-170h42c56 0 108 19 108 85c0 64 -50 85 -108 85z" />
    <glyph glyph-name="q.sc" horiz-adv-x="639" 
d="M600 250c0 -99 -35 -179 -108 -225l113 -70l-94 -76l-122 108c-21 -4 -44 -6 -69 -6c-190 0 -281 111 -281 269c0 157 91 268 281 268s280 -111 280 -268zM465 250c0 96 -40 158 -145 158s-146 -62 -146 -158c0 -97 40 -159 146 -159s145 62 145 159z" />
    <glyph glyph-name="r.sc" horiz-adv-x="573" 
d="M295 500c168 0 228 -72 228 -167c0 -65 -29 -117 -104 -143l124 -190h-165l-106 172h-44v-172h-139v500h206zM276 405h-48v-148h48c66 0 107 25 107 76c0 46 -39 72 -107 72z" />
    <glyph glyph-name="s.sc" horiz-adv-x="517" 
d="M454 457l-40 -93s-100 46 -135 46c-57 0 -78 -14 -78 -43c0 -72 278 -61 278 -219c0 -103 -80 -167 -226 -167c-147 0 -214 85 -214 85l65 92s60 -63 153 -63c66 0 86 22 86 50c0 65 -279 42 -279 214c0 91 82 159 210 159c132 0 180 -61 180 -61z" />
    <glyph glyph-name="t.sc" horiz-adv-x="461" 
d="M449 500v-109h-144v-391h-149v391h-145v109h438z" />
    <glyph glyph-name="u.sc" horiz-adv-x="667" 
d="M334 -19c-184 0 -255 92 -255 200v319h148v-287c0 -68 34 -104 107 -104s107 36 107 104v287h148v-319c0 -108 -69 -200 -255 -200z" />
    <glyph glyph-name="v.sc" horiz-adv-x="617" 
d="M397 0h-177l-203 500h164l127 -392h2l134 392h155z" />
    <glyph glyph-name="w.sc" horiz-adv-x="897" 
d="M728 500h151l-152 -500h-166l-111 366h-1l-114 -366h-165l-153 500h151l90 -376h2l110 376h158l109 -375h3z" />
    <glyph glyph-name="x.sc" horiz-adv-x="629" 
d="M16 0l210 250l-205 250h173l120 -158l121 158h173l-205 -250l210 -250h-180l-119 157l-119 -157h-179z" />
    <glyph glyph-name="y.sc" horiz-adv-x="566" 
d="M280 296h3l130 204h155l-210 -327v-173h-149v173l-210 327h154z" />
    <glyph glyph-name="z.sc" horiz-adv-x="565" 
d="M519 500v-87l-291 -304h291v-109h-474v86l292 305h-292v109h474z" />
    <glyph glyph-name="agrave.sc" horiz-adv-x="640" 
d="M217 500h207l188 -500h-166l-28 95h-199l-27 -95h-163zM321 409h-3l-71 -221h143zM146 689l139 15l99 -147l-105 -8z" />
    <glyph glyph-name="aacute.sc" horiz-adv-x="640" 
d="M217 500h207l188 -500h-166l-28 95h-199l-27 -95h-163zM321 409h-3l-71 -221h143zM351 704l139 -15l-134 -140l-105 8z" />
    <glyph glyph-name="acircumflex.sc" horiz-adv-x="640" 
d="M217 500h207l188 -500h-166l-28 95h-199l-27 -95h-163zM321 409h-3l-71 -221h143zM358 731l134 -85l-49 -90l-124 81l-124 -81l-49 90l134 85h78z" />
    <glyph glyph-name="atilde.sc" horiz-adv-x="640" 
d="M217 500h207l188 -500h-166l-28 95h-199l-27 -95h-163zM321 409h-3l-71 -221h143zM498 696l32 -72s-23 -63 -113 -63c-75 0 -120 51 -186 51c-46 0 -85 -38 -85 -38l-32 81s35 70 125 70c84 0 127 -54 187 -54c47 0 72 25 72 25z" />
    <glyph glyph-name="adieresis.sc" horiz-adv-x="640" 
d="M217 500h207l188 -500h-166l-28 95h-199l-27 -95h-163zM321 409h-3l-71 -221h143zM362 690h126v-121h-126v121zM148 690h126v-121h-126v121z" />
    <glyph glyph-name="aring.sc" horiz-adv-x="640" 
d="M217 500h207l188 -500h-166l-28 95h-199l-27 -95h-163zM321 409h-3l-71 -221h143zM438 678c0 -69 -48 -118 -119 -118c-74 0 -119 49 -119 118c0 68 50 117 119 117c67 0 119 -49 119 -117zM370 678c0 31 -23 52 -51 52s-51 -21 -51 -52s21 -53 51 -53s51 22 51 53z" />
    <glyph glyph-name="ae.sc" horiz-adv-x="819" 
d="M773 109v-109h-383v89h-203l-52 -89h-156l330 500h448v-109h-220v-90h193v-99h-193v-93h236zM244 184h146v246z" />
    <glyph glyph-name="ccedilla.sc" horiz-adv-x="572" 
d="M537 435l-49 -83s-105 55 -148 55c-112 0 -166 -62 -166 -163c0 -98 57 -153 169 -153c98 0 171 73 171 73l45 -69s-43 -100 -196 -112l-5 -44c0 -8 94 -8 94 -85c0 -63 -39 -105 -126 -105c-96 0 -119 50 -119 50l36 41s22 -28 62 -28c35 0 55 12 55 41
c0 43 -82 38 -82 53l9 77c-164 15 -248 117 -248 261c0 157 106 274 293 274c149 0 205 -83 205 -83z" />
    <glyph glyph-name="egrave.sc" horiz-adv-x="518" 
d="M472 109v-109h-383v500h367v-109h-220v-90h193v-99h-193v-93h236zM99 689l139 15l99 -147l-105 -8z" />
    <glyph glyph-name="eacute.sc" horiz-adv-x="518" 
d="M472 109v-109h-383v500h367v-109h-220v-90h193v-99h-193v-93h236zM305 704l139 -15l-134 -140l-105 8z" />
    <glyph glyph-name="ecircumflex.sc" horiz-adv-x="518" 
d="M472 109v-109h-383v500h367v-109h-220v-90h193v-99h-193v-93h236zM312 731l134 -85l-49 -90l-124 81l-124 -81l-49 90l134 85h78z" />
    <glyph glyph-name="edieresis.sc" horiz-adv-x="518" 
d="M472 109v-109h-383v500h367v-109h-220v-90h193v-99h-193v-93h236zM316 690h126v-121h-126v121zM102 690h126v-121h-126v121z" />
    <glyph glyph-name="igrave.sc" horiz-adv-x="326" 
d="M237 500v-500h-148v500h148zM-8 689l139 15l99 -147l-105 -8z" />
    <glyph glyph-name="iacute.sc" horiz-adv-x="326" 
d="M237 500v-500h-148v500h148zM198 704l139 -15l-134 -140l-105 8z" />
    <glyph glyph-name="icircumflex.sc" horiz-adv-x="326" 
d="M237 500v-500h-148v500h148zM205 731l134 -85l-49 -90l-124 81l-124 -81l-49 90l134 85h78z" />
    <glyph glyph-name="idieresis.sc" horiz-adv-x="326" 
d="M237 500v-500h-148v500h148zM209 690h126v-121h-126v121zM-5 690h126v-121h-126v121z" />
    <glyph glyph-name="eth.sc" horiz-adv-x="646" 
d="M300 500c199 0 307 -86 307 -252c0 -162 -102 -248 -305 -248h-213v190h-71v117h71v193h211zM300 386h-63v-79h95v-117h-95v-76h65c95 0 170 32 170 134c0 103 -75 138 -172 138z" />
    <glyph glyph-name="ntilde.sc" horiz-adv-x="708" 
d="M619 500v-500h-162l-236 348h-3l5 -45v-303h-134v500h161l236 -350h1l-3 34v316h135zM553 696l32 -72s-23 -63 -113 -63c-75 0 -120 51 -186 51c-46 0 -85 -38 -85 -38l-32 81s35 70 125 70c84 0 127 -54 187 -54c47 0 72 25 72 25z" />
    <glyph glyph-name="ograve.sc" horiz-adv-x="639" 
d="M600 250c0 -158 -90 -269 -280 -269s-281 111 -281 269c0 157 91 268 281 268s280 -111 280 -268zM465 250c0 96 -40 158 -145 158s-146 -62 -146 -158c0 -97 40 -159 146 -159s145 62 145 159zM146 689l139 15l99 -147l-105 -8z" />
    <glyph glyph-name="oacute.sc" horiz-adv-x="639" 
d="M600 250c0 -158 -90 -269 -280 -269s-281 111 -281 269c0 157 91 268 281 268s280 -111 280 -268zM465 250c0 96 -40 158 -145 158s-146 -62 -146 -158c0 -97 40 -159 146 -159s145 62 145 159zM351 704l139 -15l-134 -140l-105 8z" />
    <glyph glyph-name="ocircumflex.sc" horiz-adv-x="639" 
d="M600 250c0 -158 -90 -269 -280 -269s-281 111 -281 269c0 157 91 268 281 268s280 -111 280 -268zM465 250c0 96 -40 158 -145 158s-146 -62 -146 -158c0 -97 40 -159 146 -159s145 62 145 159zM358 731l134 -85l-49 -90l-124 81l-124 -81l-49 90l134 85h78z" />
    <glyph glyph-name="otilde.sc" horiz-adv-x="639" 
d="M600 250c0 -158 -90 -269 -280 -269s-281 111 -281 269c0 157 91 268 281 268s280 -111 280 -268zM465 250c0 96 -40 158 -145 158s-146 -62 -146 -158c0 -97 40 -159 146 -159s145 62 145 159zM498 696l32 -72s-23 -63 -113 -63c-75 0 -120 51 -186 51
c-46 0 -85 -38 -85 -38l-32 81s35 70 125 70c84 0 127 -54 187 -54c47 0 72 25 72 25z" />
    <glyph glyph-name="odieresis.sc" horiz-adv-x="639" 
d="M600 250c0 -158 -90 -269 -280 -269s-281 111 -281 269c0 157 91 268 281 268s280 -111 280 -268zM465 250c0 96 -40 158 -145 158s-146 -62 -146 -158c0 -97 40 -159 146 -159s145 62 145 159zM363 690h126v-121h-126v121zM149 690h126v-121h-126v121z" />
    <glyph glyph-name="oslash.sc" horiz-adv-x="639" 
d="M600 250c0 -158 -90 -269 -280 -269c-33 0 -62 4 -89 10l-37 -73l-57 8l41 82c-94 42 -139 130 -139 242c0 157 91 268 281 268c41 0 77 -6 109 -15l29 57l57 -9l-35 -69c81 -45 120 -129 120 -232zM174 250c0 -63 16 -112 57 -138l146 288c-17 5 -36 8 -57 8
c-105 0 -146 -62 -146 -158zM465 250c0 53 -12 95 -41 123l-141 -279c11 -2 24 -3 37 -3c106 0 145 62 145 159z" />
    <glyph glyph-name="ugrave.sc" horiz-adv-x="667" 
d="M334 -19c-184 0 -255 92 -255 200v319h148v-287c0 -68 34 -104 107 -104s107 36 107 104v287h148v-319c0 -108 -69 -200 -255 -200zM160 689l139 15l99 -147l-105 -8z" />
    <glyph glyph-name="uacute.sc" horiz-adv-x="667" 
d="M334 -19c-184 0 -255 92 -255 200v319h148v-287c0 -68 34 -104 107 -104s107 36 107 104v287h148v-319c0 -108 -69 -200 -255 -200zM365 704l139 -15l-134 -140l-105 8z" />
    <glyph glyph-name="ucircumflex.sc" horiz-adv-x="667" 
d="M334 -19c-184 0 -255 92 -255 200v319h148v-287c0 -68 34 -104 107 -104s107 36 107 104v287h148v-319c0 -108 -69 -200 -255 -200zM372 731l134 -85l-49 -90l-124 81l-124 -81l-49 90l134 85h78z" />
    <glyph glyph-name="udieresis.sc" horiz-adv-x="667" 
d="M334 -19c-184 0 -255 92 -255 200v319h148v-287c0 -68 34 -104 107 -104s107 36 107 104v287h148v-319c0 -108 -69 -200 -255 -200zM377 690h126v-121h-126v121zM163 690h126v-121h-126v121z" />
    <glyph glyph-name="yacute.sc" horiz-adv-x="566" 
d="M280 296h3l130 204h155l-210 -327v-173h-149v173l-210 327h154zM327 704l139 -15l-134 -140l-105 8z" />
    <glyph glyph-name="thorn.sc" horiz-adv-x="554" 
d="M227 500v-75h62c159 0 234 -54 234 -175c0 -134 -112 -182 -231 -182h-65v-68h-138v500h138zM279 330h-52v-170h52c56 0 108 19 108 85c0 63 -50 85 -108 85z" />
    <glyph glyph-name="ydieresis.sc" horiz-adv-x="566" 
d="M280 296h3l130 204h155l-210 -327v-173h-149v173l-210 327h154zM338 690h126v-121h-126v121zM124 690h126v-121h-126v121z" />
    <glyph glyph-name="amacron.sc" horiz-adv-x="640" 
d="M217 500h207l188 -500h-166l-28 95h-199l-27 -95h-163zM321 409h-3l-71 -221h143zM443 670v-78h-248v78h248z" />
    <glyph glyph-name="abreve.sc" horiz-adv-x="640" 
d="M217 500h207l188 -500h-166l-28 95h-199l-27 -95h-163zM321 409h-3l-71 -221h143zM319 631c78 0 99 63 99 63l7 -2l88 -18s-17 -126 -194 -126c-175 0 -193 126 -193 126l89 18l6 2s21 -63 98 -63z" />
    <glyph glyph-name="aogonek.sc" horiz-adv-x="640" 
d="M217 500h207l188 -500h-2c-5 -1 -97 -29 -97 -114c0 -47 37 -58 95 -58v-78c-106 0 -201 26 -201 133c0 52 37 91 76 117h-37l-28 95h-199l-27 -95h-163zM321 409h-3l-71 -221h143z" />
    <glyph glyph-name="cacute.sc" horiz-adv-x="572" 
d="M537 435l-49 -83s-105 55 -148 55c-112 0 -166 -62 -166 -163c0 -98 57 -153 169 -153c98 0 171 73 171 73l45 -69s-48 -114 -228 -114c-193 0 -292 107 -292 263c0 157 106 274 293 274c149 0 205 -83 205 -83zM361 704l139 -15l-134 -140l-105 8z" />
    <glyph glyph-name="ccaron.sc" horiz-adv-x="572" 
d="M537 435l-49 -83s-105 55 -148 55c-112 0 -166 -62 -166 -163c0 -98 57 -153 169 -153c98 0 171 73 171 73l45 -69s-48 -114 -228 -114c-193 0 -292 107 -292 263c0 157 106 274 293 274c149 0 205 -83 205 -83zM289 550l-133 85l48 90l124 -82l125 82l48 -90l-134 -85
h-78z" />
    <glyph glyph-name="dcaron.sc" horiz-adv-x="646" 
d="M300 500c199 0 307 -86 307 -252c0 -162 -102 -248 -305 -248h-213v500h211zM300 386h-63v-272h65c95 0 170 32 170 134c0 103 -75 138 -172 138zM250 550l-133 85l48 90l124 -82l125 82l48 -90l-134 -85h-78z" />
    <glyph glyph-name="dcroat.sc" horiz-adv-x="649" 
d="M303 500c199 0 307 -86 307 -252c0 -162 -102 -248 -305 -248h-213v190h-74v117h74v193h211zM303 386h-63v-79h92v-117h-92v-76h65c95 0 170 32 170 134c0 103 -75 138 -172 138z" />
    <glyph glyph-name="emacron.sc" horiz-adv-x="518" 
d="M472 109v-109h-383v500h367v-109h-220v-90h193v-99h-193v-93h236zM397 670v-78h-248v78h248z" />
    <glyph glyph-name="edotaccent.sc" horiz-adv-x="518" 
d="M472 109v-109h-383v500h367v-109h-220v-90h193v-99h-193v-93h236zM208 690h130v-121h-130v121z" />
    <glyph glyph-name="eogonek.sc" horiz-adv-x="504" 
d="M472 109v-109h-1s-98 -27 -98 -114c0 -47 37 -58 95 -58v-78c-106 0 -201 26 -201 133c0 52 37 91 76 117h-254v500h367v-109h-220v-90h193v-99h-193v-93h236z" />
    <glyph glyph-name="ecaron.sc" horiz-adv-x="524" 
d="M478 109v-109h-383v500h367v-109h-220v-90h193v-99h-193v-93h236zM240 550l-133 85l48 90l124 -82l125 82l48 -90l-134 -85h-78z" />
    <glyph glyph-name="gbreve.sc" horiz-adv-x="637" 
d="M569 296v-296h-101l-12 34c-30 -29 -76 -53 -146 -53c-178 0 -271 106 -271 267c0 159 105 270 307 270c139 0 195 -60 195 -60l-44 -91s-105 40 -146 40c-119 0 -177 -59 -177 -159c0 -107 61 -157 164 -157c82 0 106 38 111 47v52h-97v106h217zM335 631
c78 0 99 63 99 63l7 -2l88 -18s-17 -126 -194 -126c-175 0 -193 126 -193 126l89 18l6 2s21 -63 98 -63z" />
    <glyph glyph-name="gcommaaccent.sc" horiz-adv-x="637" 
d="M569 296v-296h-101l-12 34c-30 -29 -76 -53 -146 -53c-178 0 -271 106 -271 267c0 159 105 270 307 270c139 0 195 -60 195 -60l-44 -91s-105 40 -146 40c-119 0 -177 -59 -177 -159c0 -107 61 -157 164 -157c82 0 106 38 111 47v52h-97v106h217zM277 -52h128
c7 -33 11 -65 11 -94c0 -96 -38 -167 -106 -197l-58 46c43 31 76 74 79 134h-54v111z" />
    <glyph glyph-name="imacron.sc" horiz-adv-x="332" 
d="M235 500v-500h-148v500h148zM288 670v-78h-248v78h248z" />
    <glyph glyph-name="iogonek.sc" horiz-adv-x="332" 
d="M243 500v-500h-1s-98 -27 -98 -114c0 -47 37 -58 95 -58v-78c-106 0 -201 26 -201 133c0 52 37 91 76 117h-19v500h148z" />
    <glyph glyph-name="dotlessi.sc" horiz-adv-x="326" 
d="M237 500v-500h-148v500h148zM101 690h130v-121h-130v121z" />
    <glyph glyph-name="kcommaaccent.sc" horiz-adv-x="633" 
d="M89 0v500h148v-220l48 28l163 192h162l-209 -238l228 -262h-170l-168 194l-54 -25v-169h-148zM261 -52h128c7 -33 11 -65 11 -94c0 -96 -38 -167 -106 -197l-58 46c43 31 76 74 79 134h-54v111z" />
    <glyph glyph-name="lacute.sc" horiz-adv-x="483" 
d="M473 109v-109h-374v500h148v-391h226zM199 704l139 -15l-134 -140l-105 8z" />
    <glyph glyph-name="lcommaaccent.sc" horiz-adv-x="474" 
d="M463 109v-109h-374v500h148v-391h226zM195 -52h128c7 -33 11 -65 11 -94c0 -96 -38 -167 -106 -197l-58 46c43 31 76 74 79 134h-54v111z" />
    <glyph glyph-name="lcaron.sc" horiz-adv-x="496" 
d="M485 109v-109h-374v500h148v-391h226zM140 550l-133 85l48 90l124 -82l125 82l48 -90l-134 -85h-78z" />
    <glyph glyph-name="lslash.sc" horiz-adv-x="491" 
d="M478 109v-109h-374v166l-64 -36l-34 49l98 55v266h148v-182l69 40l33 -48l-102 -59v-142h226z" />
    <glyph glyph-name="nacute.sc" horiz-adv-x="708" 
d="M619 500v-500h-162l-236 348h-3l5 -45v-303h-134v500h161l236 -350h1l-3 34v316h135zM407 704l139 -15l-134 -140l-105 8z" />
    <glyph glyph-name="ncommaaccent.sc" horiz-adv-x="708" 
d="M619 500v-500h-162l-236 348h-3l5 -45v-303h-134v500h161l236 -350h1l-3 34v316h135zM312 -52h128c7 -33 11 -65 11 -94c0 -96 -38 -167 -106 -197l-58 46c43 31 76 74 79 134h-54v111z" />
    <glyph glyph-name="ncaron.sc" horiz-adv-x="708" 
d="M619 500v-500h-162l-236 348h-3l5 -45v-303h-134v500h161l236 -350h1l-3 34v316h135zM335 550l-133 85l48 90l124 -82l125 82l48 -90l-134 -85h-78z" />
    <glyph glyph-name="omacron.sc" horiz-adv-x="639" 
d="M600 250c0 -158 -90 -269 -280 -269s-281 111 -281 269c0 157 91 268 281 268s280 -111 280 -268zM465 250c0 96 -40 158 -145 158s-146 -62 -146 -158c0 -97 40 -159 146 -159s145 62 145 159zM443 670v-78h-248v78h248z" />
    <glyph glyph-name="ohungarumlaut.sc" horiz-adv-x="639" 
d="M600 250c0 -158 -90 -269 -280 -269s-281 111 -281 269c0 157 91 268 281 268s280 -111 280 -268zM465 250c0 96 -40 158 -145 158s-146 -62 -146 -158c0 -97 40 -159 146 -159s145 62 145 159zM342 720l-66 -161l-107 10l84 186zM522 720l-66 -161l-107 10l83 186z" />
    <glyph glyph-name="oe.sc" horiz-adv-x="883" 
d="M848 109v-109h-383v9c-40 -18 -88 -28 -145 -28c-190 0 -281 111 -281 269c0 157 91 268 281 268c57 0 105 -10 145 -29v11h367v-109h-220v-90h193v-99h-193v-93h236zM465 250c0 96 -40 158 -145 158s-146 -62 -146 -158c0 -97 40 -159 146 -159s145 62 145 159z" />
    <glyph glyph-name="racute.sc" horiz-adv-x="573" 
d="M295 500c168 0 228 -72 228 -167c0 -65 -29 -117 -104 -143l124 -190h-165l-106 172h-44v-172h-139v500h206zM276 405h-48v-148h48c66 0 107 25 107 76c0 46 -39 72 -107 72zM306 704l139 -15l-134 -140l-105 8z" />
    <glyph glyph-name="rcommaaccent.sc" horiz-adv-x="573" 
d="M295 500c168 0 228 -72 228 -167c0 -65 -29 -117 -104 -143l124 -190h-165l-106 172h-44v-172h-139v500h206zM276 405h-48v-148h48c66 0 107 25 107 76c0 46 -39 72 -107 72zM249 -52h128c7 -33 11 -65 11 -94c0 -96 -38 -167 -106 -197l-58 46c43 31 76 74 79 134h-54
v111z" />
    <glyph glyph-name="rcaron.sc" horiz-adv-x="573" 
d="M295 500c168 0 228 -72 228 -167c0 -65 -29 -117 -104 -143l124 -190h-165l-106 172h-44v-172h-139v500h206zM276 405h-48v-148h48c66 0 107 25 107 76c0 46 -39 72 -107 72zM235 550l-133 85l48 90l124 -82l125 82l48 -90l-134 -85h-78z" />
    <glyph glyph-name="sacute.sc" horiz-adv-x="517" 
d="M454 457l-40 -93s-100 46 -135 46c-57 0 -78 -14 -78 -43c0 -72 278 -61 278 -219c0 -103 -80 -167 -226 -167c-147 0 -214 85 -214 85l65 92s60 -63 153 -63c66 0 86 22 86 50c0 65 -279 42 -279 214c0 91 82 159 210 159c132 0 180 -61 180 -61zM306 704l139 -15
l-134 -140l-105 8z" />
    <glyph glyph-name="scedilla.sc" horiz-adv-x="517" 
d="M454 457l-40 -93s-100 46 -135 46c-57 0 -78 -14 -78 -43c0 -72 278 -61 278 -219c0 -94 -66 -155 -188 -165l-5 -44c0 -8 94 -8 94 -85c0 -63 -39 -105 -126 -105c-96 0 -119 50 -119 50l36 41s22 -28 62 -28c35 0 55 12 55 41c0 43 -82 38 -82 53l9 77
c-121 13 -176 83 -176 83l65 92s60 -63 153 -63c66 0 86 22 86 50c0 65 -279 42 -279 214c0 91 82 159 210 159c132 0 180 -61 180 -61z" />
    <glyph glyph-name="scaron.sc" horiz-adv-x="517" 
d="M454 457l-40 -93s-100 46 -135 46c-57 0 -78 -14 -78 -43c0 -72 278 -61 278 -219c0 -103 -80 -167 -226 -167c-147 0 -214 85 -214 85l65 92s60 -63 153 -63c66 0 86 22 86 50c0 65 -279 42 -279 214c0 91 82 159 210 159c132 0 180 -61 180 -61zM235 550l-133 85l48 90
l124 -82l125 82l48 -90l-134 -85h-78z" />
    <glyph glyph-name="tcommaaccent.sc" horiz-adv-x="461" 
d="M449 500v-109h-144v-391h-149v391h-145v109h438zM185 -52h128c7 -33 11 -65 11 -94c0 -96 -38 -167 -106 -197l-58 46c43 31 76 74 79 134h-54v111z" />
    <glyph glyph-name="tcaron.sc" horiz-adv-x="461" 
d="M449 500v-109h-144v-391h-149v391h-145v109h438zM190 550l-133 85l48 90l124 -82l125 82l48 -90l-134 -85h-78z" />
    <glyph glyph-name="umacron.sc" horiz-adv-x="667" 
d="M334 -19c-184 0 -255 92 -255 200v319h148v-287c0 -68 34 -104 107 -104s107 36 107 104v287h148v-319c0 -108 -69 -200 -255 -200zM457 670v-78h-248v78h248z" />
    <glyph glyph-name="uring.sc" horiz-adv-x="667" 
d="M334 -19c-184 0 -255 92 -255 200v319h148v-287c0 -68 34 -104 107 -104s107 36 107 104v287h148v-319c0 -108 -69 -200 -255 -200zM452 678c0 -69 -48 -118 -119 -118c-74 0 -119 49 -119 118c0 68 50 117 119 117c67 0 119 -49 119 -117zM384 678c0 31 -23 52 -51 52
s-51 -21 -51 -52s21 -53 51 -53s51 22 51 53z" />
    <glyph glyph-name="uhungarumlaut.sc" horiz-adv-x="667" 
d="M334 -19c-184 0 -255 92 -255 200v319h148v-287c0 -68 34 -104 107 -104s107 36 107 104v287h148v-319c0 -108 -69 -200 -255 -200zM356 720l-66 -161l-107 10l84 186zM536 720l-66 -161l-107 10l83 186z" />
    <glyph glyph-name="uogonek.sc" horiz-adv-x="667" 
d="M589 181c0 -93 -52 -175 -185 -195c-29 -15 -65 -45 -65 -100c0 -47 37 -58 95 -58v-78c-106 0 -201 26 -201 133c0 42 23 75 53 100c-149 15 -207 100 -207 198v319h148v-287c0 -68 34 -104 107 -104s107 36 107 104v287h148v-319z" />
    <glyph glyph-name="zacute.sc" horiz-adv-x="565" 
d="M519 500v-87l-291 -304h291v-109h-474v86l292 305h-292v109h474zM320 704l139 -15l-134 -140l-105 8z" />
    <glyph glyph-name="zdotaccent.sc" horiz-adv-x="565" 
d="M519 500v-87l-291 -304h291v-109h-474v86l292 305h-292v109h474zM223 690h130v-121h-130v121z" />
    <glyph glyph-name="zcaron.sc" horiz-adv-x="565" 
d="M519 500v-87l-291 -304h291v-109h-474v86l292 305h-292v109h474zM249 550l-133 85l48 90l124 -82l125 82l48 -90l-134 -85h-78z" />
    <glyph glyph-name="germandbls.sc" horiz-adv-x="688" 
d="M400 206l-92 51l82 140h-53c-88 -2 -113 -42 -113 -110v-287h-145v296c0 127 70 204 264 204h197v-68l-76 -122c121 -3 195 -63 195 -161c0 -118 -83 -168 -218 -168c-128 0 -164 50 -164 50l39 85s40 -30 95 -30c65 0 98 27 98 70c0 35 -24 58 -68 58
c-27 0 -41 -8 -41 -8z" />
    <glyph glyph-name="germandbls.sc.01" horiz-adv-x="1014" 
d="M454 457l-40 -93s-100 46 -135 46c-57 0 -78 -14 -78 -43c0 -72 278 -61 278 -219c0 -103 -80 -167 -226 -167c-147 0 -214 85 -214 85l65 92s60 -63 153 -63c66 0 86 22 86 50c0 65 -279 42 -279 214c0 91 82 159 210 159c132 0 180 -61 180 -61zM951 457l-40 -93
s-100 46 -135 46c-57 0 -78 -14 -78 -43c0 -72 278 -61 278 -219c0 -103 -80 -167 -226 -167c-147 0 -214 85 -214 85l65 92s60 -63 153 -63c66 0 86 22 86 50c0 65 -279 42 -279 214c0 91 82 159 210 159c132 0 180 -61 180 -61z" />
    <glyph glyph-name="alpha.sc" horiz-adv-x="640" 
d="M217 500h207l188 -500h-166l-28 95h-199l-27 -95h-163zM321 409h-3l-71 -221h143z" />
    <glyph glyph-name="beta.sc" horiz-adv-x="579" 
d="M89 0v500h217c152 0 207 -67 207 -136c0 -47 -32 -79 -69 -100c62 -20 96 -60 96 -114c0 -87 -58 -150 -227 -150h-224zM308 221h-80v-126h70c67 0 94 22 94 64c0 41 -30 62 -84 62zM228 289h73c31 0 67 14 67 59c0 41 -33 57 -90 57h-50v-116z" />
    <glyph glyph-name="gamma.sc" horiz-adv-x="444" 
d="M447 391h-210v-391h-148v500h358v-109z" />
    <glyph glyph-name="delta.sc" horiz-adv-x="644" 
d="M218 500h206l175 -391v-109h-555v109zM321 409h-2l-130 -300h262z" />
    <glyph glyph-name="epsilon.sc" horiz-adv-x="518" 
d="M472 109v-109h-383v500h367v-109h-220v-90h193v-99h-193v-93h236z" />
    <glyph glyph-name="zeta.sc" horiz-adv-x="565" 
d="M519 500v-87l-291 -304h291v-109h-474v86l292 305h-292v109h474z" />
    <glyph glyph-name="eta.sc" horiz-adv-x="677" 
d="M588 500v-500h-148v200h-203v-200h-148v500h148v-201h203v201h148z" />
    <glyph glyph-name="theta.sc" horiz-adv-x="639" 
d="M413 302v-102h-186v102h186zM600 250c0 -158 -90 -269 -280 -269s-281 111 -281 269c0 157 91 268 281 268s280 -111 280 -268zM465 250c0 96 -40 158 -145 158s-146 -62 -146 -158c0 -97 40 -159 146 -159s145 62 145 159z" />
    <glyph glyph-name="iota.sc" horiz-adv-x="326" 
d="M237 500v-500h-148v500h148z" />
    <glyph glyph-name="kappa.sc" horiz-adv-x="633" 
d="M89 0v500h148v-220l48 28l163 192h162l-209 -238l228 -262h-170l-168 194l-54 -25v-169h-148z" />
    <glyph glyph-name="lambda.sc" horiz-adv-x="625" 
d="M209 500h207l180 -500h-151l-132 409h-2l-133 -409h-148z" />
    <glyph glyph-name="mu.sc" horiz-adv-x="866" 
d="M777 500v-500h-135v343h-4l-135 -343h-142l-135 343h-4v-343h-133v500h187l154 -388h4l155 388h188z" />
    <glyph glyph-name="nu.sc" horiz-adv-x="708" 
d="M619 500v-500h-162l-236 348h-3l5 -45v-303h-134v500h161l236 -350h1l-3 34v316h135z" />
    <glyph glyph-name="xi.sc" horiz-adv-x="565" 
d="M519 109v-109h-474v109h474zM519 500v-109h-474v109h474zM418 299v-98h-273v98h273z" />
    <glyph glyph-name="omicron.sc" horiz-adv-x="639" 
d="M600 250c0 -158 -90 -269 -280 -269s-281 111 -281 269c0 157 91 268 281 268s280 -111 280 -268zM465 250c0 96 -40 158 -145 158s-146 -62 -146 -158c0 -97 40 -159 146 -159s145 62 145 159z" />
    <glyph glyph-name="pi.sc" horiz-adv-x="676" 
d="M587 500v-500h-147v391h-203v-391h-148v500h498z" />
    <glyph glyph-name="rho.sc" horiz-adv-x="547" 
d="M89 0v500h200c159 0 234 -61 234 -175c0 -126 -92 -182 -231 -182h-55v-143h-148zM279 405h-42v-170h42c56 0 108 19 108 85c0 64 -50 85 -108 85z" />
    <glyph glyph-name="sigma1.sc" horiz-adv-x="517" 
d="M491 109v-109h-446v86l140 167l-120 160v87h408v-109h-234l106 -139l-119 -143h265z" />
    <glyph glyph-name="tau.sc" horiz-adv-x="461" 
d="M449 500v-109h-144v-391h-149v391h-145v109h438z" />
    <glyph glyph-name="upsilon.sc" horiz-adv-x="566" 
d="M280 296h3l130 204h155l-210 -327v-173h-149v173l-210 327h154z" />
    <glyph glyph-name="phi.sc" horiz-adv-x="753" 
d="M448 515v-36c164 -5 266 -80 266 -228c0 -151 -102 -223 -266 -229v-37h-140v37c-166 5 -269 78 -269 228s103 225 269 230v35h140zM170 250c0 -86 46 -120 138 -123v247c-92 -4 -138 -38 -138 -124zM583 251c0 85 -45 117 -135 121v-247c90 5 135 41 135 126z" />
    <glyph glyph-name="chi.sc" horiz-adv-x="609" 
d="M6 0l210 250l-205 250h173l120 -158l121 158h173l-205 -250l210 -250h-180l-119 157l-119 -157h-179z" />
    <glyph glyph-name="psi.sc" horiz-adv-x="747" 
d="M444 500v-274c84 5 113 50 113 122v152h140v-171c0 -112 -67 -212 -253 -218v-111h-141v111c-185 7 -253 107 -253 218v171h140v-152c0 -71 31 -115 113 -121v273h141z" />
    <glyph glyph-name="omega.sc" horiz-adv-x="639" 
d="M66 0v92h55c-45 38 -82 94 -82 177c0 138 91 249 281 249c189 0 280 -111 280 -249c0 -83 -38 -139 -83 -177h56v-92h-219v104s111 30 111 149c0 92 -47 154 -145 154s-146 -62 -146 -154c0 -119 111 -149 111 -149v-104h-219z" />
    <glyph glyph-name="iotadieresistonos.sc" horiz-adv-x="326" 
d="M370 708v-113h-118v113h118zM73 708v-113h-118v113h118zM237 500v-500h-148v500h148zM160 782l95 -29l-86 -192l-73 20z" />
    <glyph glyph-name="alphatonos.sc" horiz-adv-x="640" 
d="M217 500h207l188 -500h-166l-28 95h-199l-27 -95h-163zM321 409h-3l-71 -221h143zM342 782l95 -29l-86 -192l-73 20z" />
    <glyph glyph-name="epsilontonos.sc" horiz-adv-x="518" 
d="M472 109v-109h-383v500h367v-109h-220v-90h193v-99h-193v-93h236zM277 782l95 -29l-86 -192l-73 20z" />
    <glyph glyph-name="etatonos.sc" horiz-adv-x="677" 
d="M588 500v-500h-148v200h-203v-200h-148v500h148v-201h203v201h148zM362 782l95 -29l-86 -192l-73 20z" />
    <glyph glyph-name="iotatonos.sc" horiz-adv-x="326" 
d="M237 500v-500h-148v500h148zM187 782l95 -29l-86 -192l-73 20z" />
    <glyph glyph-name="sigma.sc" horiz-adv-x="514" 
d="M491 109v-109h-446v86l140 167l-120 160v87h408v-109h-234l106 -139l-119 -143h265z" />
    <glyph glyph-name="iotadieresis.sc" horiz-adv-x="326" 
d="M237 500v-500h-148v500h148zM207 712h126v-121h-126v121zM-7 712h126v-121h-126v121z" />
    <glyph glyph-name="upsilondieresis.sc" horiz-adv-x="566" 
d="M280 296h3l130 204h155l-210 -327v-173h-149v173l-210 327h154zM327 712h126v-121h-126v121zM113 712h126v-121h-126v121z" />
    <glyph glyph-name="omicrontonos.sc" horiz-adv-x="639" 
d="M600 250c0 -158 -90 -269 -280 -269s-281 111 -281 269c0 157 91 268 281 268s280 -111 280 -268zM465 250c0 96 -40 158 -145 158s-146 -62 -146 -158c0 -97 40 -159 146 -159s145 62 145 159zM333 782l95 -29l-86 -192l-73 20z" />
    <glyph glyph-name="upsilontonos.sc" horiz-adv-x="566" 
d="M280 296h3l130 204h155l-210 -327v-173h-149v173l-210 327h154zM305 782l95 -29l-86 -192l-73 20z" />
    <glyph glyph-name="omegatonos.sc" horiz-adv-x="639" 
d="M66 0v92h55c-45 38 -82 94 -82 177c0 138 91 249 281 249c189 0 280 -111 280 -249c0 -83 -38 -139 -83 -177h56v-92h-219v104s111 30 111 149c0 92 -47 154 -145 154s-146 -62 -146 -154c0 -119 111 -149 111 -149v-104h-219zM333 782l95 -29l-86 -192l-73 20z" />
    <glyph glyph-name="upsilondieresistonos.sc" horiz-adv-x="566" 
d="M380 712h126v-121h-126v121zM68 712h126v-121h-126v121zM280 296h3l130 204h155l-210 -327v-173h-149v173l-210 327h154zM287 782l95 -29l-86 -192l-73 20z" />
    <glyph glyph-name="uni0450.sc" horiz-adv-x="518" 
d="M472 109v-109h-383v500h367v-109h-220v-90h193v-99h-193v-93h236zM99 689l139 15l99 -147l-105 -8z" />
    <glyph glyph-name="afii10071.sc" horiz-adv-x="518" 
d="M472 109v-109h-383v500h367v-109h-220v-90h193v-99h-193v-93h236zM316 690h126v-121h-126v121zM102 690h126v-121h-126v121z" />
    <glyph glyph-name="afii10099.sc" horiz-adv-x="715" 
d="M492 500v-109h-169v-106h1s49 35 153 35c109 0 167 -52 167 -136v-25c0 -132 -61 -178 -167 -178c-75 0 -107 29 -107 29l18 89s22 -16 53 -16c27 0 57 13 57 55v15c0 38 -23 53 -78 53c-54 0 -88 -20 -97 -26v-180h-147v391h-170v109h486z" />
    <glyph glyph-name="afii10100.sc" horiz-adv-x="444" 
d="M447 391h-210v-391h-148v500h358v-109zM285 704l139 -15l-134 -140l-105 8z" />
    <glyph glyph-name="afii10101.sc" horiz-adv-x="579" 
d="M529 450l-34 -91s-121 49 -158 49c-100 0 -142 -37 -155 -102h258v-109h-258c15 -66 64 -101 161 -101c113 0 163 68 163 68l53 -69s-48 -114 -236 -114c-192 0 -284 110 -284 266c0 157 104 271 298 271c141 0 192 -68 192 -68z" />
    <glyph glyph-name="afii10102.sc" horiz-adv-x="517" 
d="M454 457l-40 -93s-100 46 -135 46c-57 0 -78 -14 -78 -43c0 -72 278 -61 278 -219c0 -103 -80 -167 -226 -167c-147 0 -214 85 -214 85l65 92s60 -63 153 -63c66 0 86 22 86 50c0 65 -279 42 -279 214c0 91 82 159 210 159c132 0 180 -61 180 -61z" />
    <glyph glyph-name="afii10103.sc" horiz-adv-x="326" 
d="M237 500v-500h-148v500h148z" />
    <glyph glyph-name="afii10104.sc" horiz-adv-x="326" 
d="M237 500v-500h-148v500h148zM214 690h126v-121h-126v121zM0 690h126v-121h-126v121z" />
    <glyph glyph-name="afii10105.sc" horiz-adv-x="428" 
d="M201 167v333h148v-341c0 -132 -76 -178 -182 -178c-140 0 -166 83 -166 83l66 67s27 -33 70 -33c38 0 64 18 64 69z" />
    <glyph glyph-name="afii10106.sc" horiz-adv-x="909" 
d="M149 500h417v-160h61c153 0 242 -58 242 -167c0 -115 -79 -173 -241 -173h-210v391h-137c-1 -303 -71 -410 -188 -410c-53 0 -67 19 -67 19l5 112s9 -6 34 -6c66 0 84 87 84 394zM619 241h-53v-138h54c77 0 101 25 101 71c0 43 -26 67 -102 67z" />
    <glyph glyph-name="afii10107.sc" horiz-adv-x="931" 
d="M440 0v200h-203v-200h-148v500h148v-201h203v201h148v-160h61c153 0 242 -58 242 -167c0 -115 -79 -173 -241 -173h-210zM641 241h-53v-138h54c77 0 101 25 101 71c0 43 -26 67 -102 67z" />
    <glyph glyph-name="afii10108.sc" horiz-adv-x="715" 
d="M492 500v-109h-169v-106h1s49 35 153 35c124 0 167 -52 167 -136v-184h-146v142c0 47 -23 61 -78 61c-54 0 -88 -20 -97 -26v-177h-147v391h-170v109h486z" />
    <glyph glyph-name="afii10109.sc" horiz-adv-x="633" 
d="M89 0v500h148v-220l48 28l163 192h162l-209 -238l228 -262h-170l-168 194l-54 -25v-169h-148zM356 704l139 -15l-134 -140l-105 8z" />
    <glyph glyph-name="uni045D.sc" horiz-adv-x="683" 
d="M594 500v-500h-141v264l10 48h-2l-229 -291l-5 -21h-138v500h141v-268l-6 -45h1l227 292l7 21h135zM178 689l139 15l99 -147l-105 -8z" />
    <glyph glyph-name="afii10110.sc" horiz-adv-x="589" 
d="M25 500h163l128 -244h4l103 244h156l-178 -366c-61 -125 -119 -153 -215 -153c-62 0 -78 19 -78 19v108s28 -13 67 -13c30 0 51 5 71 27zM310 631c78 0 99 63 99 63l7 -2l88 -18s-17 -126 -194 -126c-175 0 -193 126 -193 126l89 18l6 2s21 -63 98 -63z" />
    <glyph glyph-name="afii10193.sc" horiz-adv-x="675" 
d="M237 500v-391h203v391h147v-500h-181l-9 -157h-113l-11 157h-184v500h148z" />
    <glyph glyph-name="afii10065.sc" horiz-adv-x="640" 
d="M217 500h207l188 -500h-166l-28 95h-199l-27 -95h-163zM321 409h-3l-71 -221h143z" />
    <glyph glyph-name="afii10066.sc" horiz-adv-x="579" 
d="M467 500v-109h-231v-81h62c153 0 242 -36 242 -144c0 -116 -79 -166 -241 -166h-210v500h378zM290 226h-54v-123h55c70 0 101 18 101 64c0 43 -33 59 -102 59z" />
    <glyph glyph-name="afii10067.sc" horiz-adv-x="579" 
d="M89 0v500h217c152 0 207 -67 207 -136c0 -47 -32 -79 -69 -100c62 -20 96 -60 96 -114c0 -87 -58 -150 -227 -150h-224zM308 221h-80v-126h70c67 0 94 22 94 64c0 41 -30 62 -84 62zM228 289h73c31 0 67 14 67 59c0 41 -33 57 -90 57h-50v-116z" />
    <glyph glyph-name="afii10068.sc" horiz-adv-x="444" 
d="M447 391h-210v-391h-148v500h358v-109z" />
    <glyph glyph-name="afii10069.sc" horiz-adv-x="702" 
d="M160 500h423v-391h73l-14 -228h-113l-6 119h-344l-5 -119h-107l-12 228h62c32 77 43 179 43 391zM438 391h-149c-3 -138 -16 -219 -39 -282h188v282z" />
    <glyph glyph-name="afii10070.sc" horiz-adv-x="518" 
d="M472 109v-109h-383v500h367v-109h-220v-90h193v-99h-193v-93h236z" />
    <glyph glyph-name="afii10072.sc" horiz-adv-x="878" 
d="M499 500v-188h31l154 188h168l-204 -225l223 -275h-170l-161 216h-41v-216h-139v215h-40l-143 -215h-170l203 252l-193 248h168l134 -189h41v189h139z" />
    <glyph glyph-name="afii10073.sc" horiz-adv-x="499" 
d="M80 368l-47 77s55 73 199 73c145 0 211 -63 211 -147c0 -51 -33 -87 -72 -110c58 -19 95 -57 95 -116c0 -96 -74 -164 -236 -164c-178 0 -219 95 -219 95l61 75s51 -62 146 -62c72 0 95 23 95 61c0 35 -23 54 -83 54h-100v98h108c35 1 62 23 62 59c0 32 -26 56 -87 56
c-90 0 -133 -49 -133 -49z" />
    <glyph glyph-name="afii10074.sc" horiz-adv-x="683" 
d="M594 500v-500h-141v264l10 48h-2l-229 -291l-5 -21h-138v500h141v-268l-6 -45h1l227 292l7 21h135z" />
    <glyph glyph-name="afii10075.sc" horiz-adv-x="683" 
d="M594 500v-500h-141v264l10 48h-2l-229 -291l-5 -21h-138v500h141v-268l-6 -45h1l227 292l7 21h135zM352 631c78 0 99 63 99 63l7 -2l88 -18s-17 -126 -194 -126c-175 0 -193 126 -193 126l89 18l6 2s21 -63 98 -63z" />
    <glyph glyph-name="afii10076.sc" horiz-adv-x="633" 
d="M89 0v500h148v-220l48 28l163 192h162l-209 -238l228 -262h-170l-168 194l-54 -25v-169h-148z" />
    <glyph glyph-name="afii10077.sc" horiz-adv-x="655" 
d="M149 500h417v-500h-148v391h-137c-1 -303 -71 -410 -188 -410c-53 0 -67 19 -67 19l5 112s9 -6 34 -6c66 0 84 87 84 394z" />
    <glyph glyph-name="afii10078.sc" horiz-adv-x="866" 
d="M777 500v-500h-135v343h-4l-135 -343h-142l-135 343h-4v-343h-133v500h187l154 -388h4l155 388h188z" />
    <glyph glyph-name="afii10079.sc" horiz-adv-x="677" 
d="M588 500v-500h-148v200h-203v-200h-148v500h148v-201h203v201h148z" />
    <glyph glyph-name="afii10080.sc" horiz-adv-x="639" 
d="M600 250c0 -158 -90 -269 -280 -269s-281 111 -281 269c0 157 91 268 281 268s280 -111 280 -268zM465 250c0 96 -40 158 -145 158s-146 -62 -146 -158c0 -97 40 -159 146 -159s145 62 145 159z" />
    <glyph glyph-name="afii10081.sc" horiz-adv-x="675" 
d="M587 500v-500h-147v391h-203v-391h-148v500h498z" />
    </font>
</defs>
</svg>
